BasicallyAMono-Light.ufo
<glyph name="exclam" format="2">
  <advance width="1020"/>
  <unicode hex="0021"/>
  <outline>
    <contour>
      <point x="465.23747" y="323.11346" type="line"/>
      <point x="554.76253" y="323.11346" type="line"/>
      <point x="554.76253" y="1170.0" type="line"/>
      <point x="465.23747" y="1170.0" type="line"/>
    </contour>
    <contour>
      <point x="616.50396" y="106.50396" type="curve" smooth="yes"/>
      <point x="616.50396" y="165.28509"/>
      <point x="568.78113" y="213.00792"/>
      <point x="510.0" y="213.00792" type="curve" smooth="yes"/>
      <point x="451.21887" y="213.00792"/>
      <point x="403.49604" y="165.28509"/>
      <point x="403.49604" y="106.50396" type="curve" smooth="yes"/>
      <point x="403.49604" y="47.72282"/>
      <point x="451.21887" y="0.0"/>
      <point x="510.0" y="0.0" type="curve" smooth="yes"/>
      <point x="568.78113" y="-0.0"/>
      <point x="616.50396" y="47.72282"/>
    </contour>
  </outline>
</glyph>
<glyph name="quotedbl" format="2">
  <advance width="1020"/>
  <unicode hex="0022"/>
  <outline>
    <contour>
      <point x="592.5214899713467" y="959.3123209169054" type="line"/>
      <point x="682.2636103151863" y="959.3123209169054" type="line"/>
      <point x="682.2636103151863" y="1296.6189111747851" type="line"/>
      <point x="592.5214899713467" y="1296.6189111747851" type="line"/>
    </contour>
    <contour>
      <point x="337.73638968481373" y="959.3123209169054" type="line"/>
      <point x="427.47851002865326" y="959.3123209169054" type="line"/>
      <point x="427.47851002865326" y="1296.6189111747851" type="line"/>
      <point x="337.73638968481373" y="1296.6189111747851" type="line"/>
    </contour>
  </outline>
</glyph>
<glyph name="numbersign" format="2">
  <advance width="980"/>
  <unicode hex="0023"/>
  <outline>
    <contour>
      <point x="173.36096954345703" y="15" type="line"/>
      <point x="265.0454788208008" y="15" type="line"/>
      <point x="330.16287994384766" y="350" type="line"/>
      <point x="558.4783706665039" y="350" type="line"/>
      <point x="493.36096954345703" y="15" type="line"/>
      <point x="585.0454788208008" y="15" type="line"/>
      <point x="650.1628799438477" y="350" type="line"/>
      <point x="825" y="350" type="line"/>
      <point x="825" y="440" type="line"/>
      <point x="667.657112121582" y="440" type="line"/>
      <point x="724.0273971557617" y="730" type="line"/>
      <point x="905" y="730" type="line"/>
      <point x="905" y="820" type="line"/>
      <point x="741.5216293334961" y="820" type="line"/>
      <point x="806.639030456543" y="1155" type="line"/>
      <point x="714.9545211791992" y="1155" type="line"/>
      <point x="649.8371200561523" y="820" type="line"/>
      <point x="421.5216293334961" y="820" type="line"/>
      <point x="486.63903045654297" y="1155" type="line"/>
      <point x="394.9545211791992" y="1155" type="line"/>
      <point x="329.83712005615234" y="820" type="line"/>
      <point x="155" y="820" type="line"/>
      <point x="155" y="730" type="line"/>
      <point x="312.34288787841797" y="730" type="line"/>
      <point x="255.97260284423828" y="440" type="line"/>
      <point x="75" y="440" type="line"/>
      <point x="75" y="350" type="line"/>
      <point x="238.4783706665039" y="350" type="line"/>
    </contour>
    <contour>
      <point x="347.65711212158203" y="440" type="line"/>
      <point x="404.0273971557617" y="730" type="line"/>
      <point x="632.342887878418" y="730" type="line"/>
      <point x="575.9726028442383" y="440" type="line"/>
    </contour>
  </outline>
</glyph>
<glyph name="dollar" format="2">
  <advance width="980"/>
  <unicode hex="0024"/>
  <outline>
    <contour>
      <point x="433.20314025878906" y="657.6582107543945" type="line"/>
      <point x="320.0767531039153" y="680.1769115257267"/>
      <point x="235.0" y="760.7055219503981"/>
      <point x="234.99999999999997" y="858.75" type="curve"/>
      <point x="235.0" y="962.0686780153193"/>
      <point x="329.12953367804096" y="1047.7455794055268"/>
      <point x="451.75" y="1062.6833877563477" type="curve"/>
      <point x="451.75" y="653.96630859375" type="line"/>
    </contour>
    <contour>
      <point x="115" y="326.25" type="line"/>
      <point x="115.0" y="165.18333857374043"/>
      <point x="262.7201775403421" y="32.52728647551777"/>
      <point x="451.75" y="16.61225128173828" type="curve"/>
      <point x="451.75" y="-105" type="line"/>
      <point x="528.25" y="-105" type="line"/>
      <point x="528.25" y="16.61144256591797" type="line"/>
      <point x="717.2798224596577" y="32.52728647551772"/>
      <point x="864.9999999999999" y="165.18333857374026"/>
      <point x="864.9999999999999" y="326.24999999999994" type="curve"/>
      <point x="865.0" y="474.3296532645997"/>
      <point x="739.7990175468376" y="596.6278800595617"/>
      <point x="573.1135940551758" y="629.8079299926758" type="curve"/>
      <point x="528.25" y="638.7383804321289" type="line"/>
      <point x="528.25" y="1062.678123474121" type="line"/>
      <point x="650.8704663219589" y="1047.7455794055268"/>
      <point x="744.9999999999999" y="962.0686780153192"/>
      <point x="745.0" y="858.7500000000001" type="curve"/>
      <point x="835" y="858.75" type="line"/>
      <point x="835.0" y="1011.1539916133403"/>
      <point x="700.6891738544961" y="1136.8332782669754"/>
      <point x="528.25" y="1153.1860580444336" type="curve"/>
      <point x="528.25" y="1275" type="line"/>
      <point x="451.75" y="1275" type="line"/>
      <point x="451.75" y="1153.1855773925781" type="line"/>
      <point x="279.31082614550394" y="1136.8332782669752"/>
      <point x="145.00000000000003" y="1011.1539916133402"/>
      <point x="145.0" y="858.75" type="curve"/>
      <point x="145.0" y="717.0629321199826"/>
      <point x="261.39831781887926" y="600.0906277399022"/>
      <point x="415.9715347290039" y="569.3586654663086" type="curve"/>
      <point x="451.75" y="562.2452545166016" type="line"/>
      <point x="451.75" y="106.98762512207031" type="line"/>
      <point x="312.51322409060276" y="121.504761026223"/>
      <point x="205.0" y="214.2072364481233"/>
      <point x="205.00000000000003" y="326.25000000000006" type="curve"/>
    </contour>
    <contour>
      <point x="775.0" y="326.25" type="curve"/>
      <point x="775.0" y="214.20723644812318"/>
      <point x="667.4867759093972" y="121.50476102622294"/>
      <point x="528.25" y="106.98123931884766" type="curve"/>
      <point x="528.25" y="547.0356674194336" type="line"/>
      <point x="555.888298034668" y="541.5406723022461" type="line"/>
      <point x="681.1177528038968" y="516.6427827684574"/>
      <point x="775.0" y="430.757647846092"/>
    </contour>
  </outline>
</glyph>
<glyph name="percent" format="2">
  <advance width="980"/>
  <unicode hex="0025"/>
  <outline>
    <contour>
      <point x="572.5" y="922.5" type="curve" smooth="yes"/>
      <point x="572.5" y="1050.82024215"/>
      <point x="468.32024215" y="1155.0"/>
      <point x="340.0" y="1155.0" type="curve" smooth="yes"/>
      <point x="211.67975785000002" y="1155.0"/>
      <point x="107.5" y="1050.82024215"/>
      <point x="107.5" y="922.5" type="curve" smooth="yes"/>
      <point x="107.49999999999997" y="794.17975785"/>
      <point x="211.67975784999996" y="690.0"/>
      <point x="340.0" y="690.0" type="curve" smooth="yes"/>
      <point x="468.32024214999996" y="690.0"/>
      <point x="572.5" y="794.17975785"/>
    </contour>
    <contour>
      <point x="482.5" y="922.5" type="curve" smooth="yes"/>
      <point x="482.5" y="843.85210965"/>
      <point x="418.64789035" y="780.0"/>
      <point x="340.0" y="780.0" type="curve" smooth="yes"/>
      <point x="261.35210965" y="780.0"/>
      <point x="197.5" y="843.85210965"/>
      <point x="197.5" y="922.5" type="curve" smooth="yes"/>
      <point x="197.5" y="1001.14789035"/>
      <point x="261.35210965" y="1065.0"/>
      <point x="340.0" y="1065.0" type="curve" smooth="yes"/>
      <point x="418.64789035" y="1065.0"/>
      <point x="482.5" y="1001.14789035"/>
    </contour>
    <contour>
      <point x="107.50000000000003" y="360.0000000000692" type="line"/>
      <point x="872.5" y="732.9967576131693" type="line"/>
      <point x="872.5" y="810.0" type="line"/>
      <point x="107.50000000000003" y="437.0032423868999" type="line"/>
    </contour>
    <contour>
      <point x="872.5" y="247.5" type="curve" smooth="yes"/>
      <point x="872.5" y="375.82024215"/>
      <point x="768.32024215" y="480.0"/>
      <point x="640.0" y="480.0" type="curve" smooth="yes"/>
      <point x="511.67975785" y="480.0"/>
      <point x="407.5" y="375.82024215"/>
      <point x="407.5" y="247.50000000000003" type="curve" smooth="yes"/>
      <point x="407.5" y="119.17975785000002"/>
      <point x="511.67975785" y="15.000000000000028"/>
      <point x="640.0" y="15.0" type="curve" smooth="yes"/>
      <point x="768.32024215" y="14.999999999999972"/>
      <point x="872.5" y="119.17975784999993"/>
    </contour>
    <contour>
      <point x="782.5" y="247.5" type="curve" smooth="yes"/>
      <point x="782.5" y="168.85210964999996"/>
      <point x="718.64789035" y="104.99999999999997"/>
      <point x="640.0" y="105.0" type="curve" smooth="yes"/>
      <point x="561.35210965" y="105.0"/>
      <point x="497.5" y="168.85210965"/>
      <point x="497.5" y="247.5" type="curve" smooth="yes"/>
      <point x="497.5" y="326.14789035"/>
      <point x="561.35210965" y="390.0"/>
      <point x="640.0" y="390.0" type="curve" smooth="yes"/>
      <point x="718.64789035" y="390.0"/>
      <point x="782.5" y="326.14789035"/>
    </contour>
  </outline>
</glyph>
<glyph name="ampersand" format="2">
  <advance width="1020"/>
  <unicode hex="0026"/>
  <outline>
    <contour>
      <point x="331.41658782958984" y="854.8779983520508" type="line"/>
      <point x="311.1149041389189" y="881.2879112137992"/>
      <point x="300.1083374329498" y="913.6657903153439"/>
      <point x="300.1083374329498" y="946.9770773638968" type="curve"/>
      <point x="300.1083374329498" y="1030.3810835381087"/>
      <point x="367.8218097687664" y="1098.0945558739252"/>
      <point x="451.22581594297844" y="1098.0945558739252" type="curve" smooth="yes"/>
      <point x="534.6298221171904" y="1098.0945558739252"/>
      <point x="602.343294453007" y="1030.3810835381087"/>
      <point x="602.343294453007" y="946.9770773638968" type="curve"/>
      <point x="602.343294453007" y="898.0491608146727"/>
      <point x="578.6545887569309" y="852.1491216324413"/>
      <point x="538.7741038666595" y="823.8032587462166" type="curve"/>
      <point x="420.1292724609375" y="739.4740447998047" type="line"/>
    </contour>
    <contour>
      <point x="275.9600419575188" y="526.9014941072642" type="curve"/>
      <point x="401.6623764038086" y="616.2469787597656" type="line"/>
      <point x="724.4611892700195" y="196.3266372680664" type="line"/>
      <point x="651.1222381616939" y="121.32088649049199"/>
      <point x="548.834242217073" y="74.74212034383949"/>
      <point x="435.7530365733508" y="74.7421203438395" type="curve"/>
      <point x="289.7248619406861" y="74.74212034383955"/>
      <point x="171.16850935272055" y="186.36535289742116"/>
      <point x="171.16850935272055" y="323.85386819484245" type="curve"/>
      <point x="171.16850935272055" y="404.50978523673734"/>
      <point x="210.21849178004055" y="480.17435494669553"/>
    </contour>
    <contour>
      <point x="451.22581594297844" y="1187.8366762177648" type="curve" smooth="yes"/>
      <point x="318.2917856243538" y="1187.8366762177648"/>
      <point x="210.36621708911022" y="1079.9111076825216"/>
      <point x="210.36621708911022" y="946.9770773638968" type="curve"/>
      <point x="210.36621708911022" y="893.8836608052819"/>
      <point x="227.90910668531365" y="842.2779627151066"/>
      <point x="260.2670767480206" y="800.1843449650536" type="curve"/>
      <point x="346.9303436279297" y="687.446418762207" type="line"/>
      <point x="223.96891021728516" y="600.0490875244141" type="line"/>
      <point x="134.5440669690244" y="536.4885675653755"/>
      <point x="81.42638900888102" y="433.56595410897273"/>
      <point x="81.42638900888102" y="323.85386819484245" type="curve"/>
      <point x="81.42638900888102" y="136.83532875300858"/>
      <point x="240.19483779627353" y="-15.000000000000018"/>
      <point x="435.75303657335087" y="-15.000000000000018" type="curve"/>
      <point x="569.3835558142518" y="-15.000000000000018"/>
      <point x="690.6821496022324" y="38.21918945551117"/>
      <point x="779.5918273925781" y="124.6086654663086" type="curve"/>
      <point x="875.3803024291992" y="0" type="line"/>
      <point x="988.5736083984375" y="0" type="line"/>
      <point x="839.1964416503906" y="194.32076263427734" type="line"/>
      <point x="895.969860014508" y="274.69814719744795"/>
      <point x="929.3346984644684" y="372.77426223815934"/>
      <point x="929.3346984644684" y="478.5816618911175" type="curve"/>
      <point x="839.5925750732422" y="478.5816650390625" type="line"/>
      <point x="839.5925781206288" y="402.11981094324085"/>
      <point x="818.2966420865397" y="330.592644238199"/>
      <point x="781.3174591064453" y="269.6139831542969" type="curve"/>
      <point x="474.8613052368164" y="668.2745971679688" type="line"/>
      <point x="590.7652359008789" y="750.6556701660156" type="line"/>
      <point x="654.3290135679472" y="795.8349090137613"/>
      <point x="692.0854147968466" y="868.9929919424374"/>
      <point x="692.0854147968466" y="946.9770773638968" type="curve"/>
      <point x="692.0854147968466" y="1079.9111076825213"/>
      <point x="584.1598462616031" y="1187.8366762177648"/>
    </contour>
  </outline>
</glyph>
<glyph name="quotesingle" format="2">
  <advance width="1020"/>
  <unicode hex="0027"/>
  <outline>
    <contour>
      <point x="465.1289398280802" y="959.3123209169054" type="line"/>
      <point x="554.8710601719197" y="959.3123209169054" type="line"/>
      <point x="554.8710601719197" y="1296.6189111747851" type="line"/>
      <point x="465.1289398280802" y="1296.6189111747851" type="line"/>
    </contour>
  </outline>
</glyph>
<glyph name="parenleft" format="2">
  <advance width="1020"/>
  <unicode hex="0028"/>
  <outline>
    <contour>
      <point x="687.1910491271908" y="-89.5250659630607" type="line"/>
      <point x="489.4868675058973" y="338.42805290135107"/>
      <point x="489.4868675058975" y="831.5719470986501"/>
      <point x="687.1910506383952" y="1259.5250659630613" type="curve"/>
      <point x="589.1245412190314" y="1259.5250659630608" type="line"/>
      <point x="402.80895721243303" y="829.1921248007793"/>
      <point x="402.8089493616049" y="340.80777284057433"/>
      <point x="589.1245176665469" y="-89.5250659630607" type="curve"/>
    </contour>
  </outline>
</glyph>
<glyph name="parenright" format="2">
  <advance width="980"/>
  <unicode hex="0029"/>
  <outline>
    <contour>
      <point x="313.79466769432247" y="-75.0" type="curve"/>
      <point x="412.53755709861935" y="-75.0" type="line"/>
      <point x="596.2052766217141" y="345.7792016542942"/>
      <point x="596.2053325706074" y="824.2202598702477"/>
      <point x="412.53772494529903" y="1245.0" type="curve"/>
      <point x="313.7946674293926" y="1245.0000000000002" type="line"/>
      <point x="509.11962912703325" y="826.6771821944235"/>
      <point x="509.11962912703325" y="343.3228178055774"/>
    </contour>
  </outline>
</glyph>
<glyph name="asterisk" format="2">
  <advance width="1020"/>
  <unicode hex="002A"/>
  <outline>
    <contour>
      <point x="140.5091323852539" y="326.9110565185547" type="line"/>
      <point x="185.38019561767578" y="249.19210052490234" type="line"/>
      <point x="465.1289367675781" y="410.7051086425781" type="line"/>
      <point x="465.1289367675781" y="87.67908477783203" type="line"/>
      <point x="554.8710632324219" y="87.67908477783203" type="line"/>
      <point x="554.8710632324219" y="410.7051086425781" type="line"/>
      <point x="834.6198043823242" y="249.19210052490234" type="line"/>
      <point x="879.4908676147461" y="326.9110565185547" type="line"/>
      <point x="599.7421188354492" y="488.424072265625" type="line"/>
      <point x="879.4908676147461" y="649.9370803833008" type="line"/>
      <point x="834.6198043823242" y="727.6560363769531" type="line"/>
      <point x="554.8710632324219" y="566.1430282592773" type="line"/>
      <point x="554.8710632324219" y="889.1690521240234" type="line"/>
      <point x="465.1289367675781" y="889.1690521240234" type="line"/>
      <point x="465.1289367675781" y="566.1430282592773" type="line"/>
      <point x="185.38019561767578" y="727.6560363769531" type="line"/>
      <point x="140.5091323852539" y="649.9370803833008" type="line"/>
      <point x="420.2578811645508" y="488.424072265625" type="line"/>
    </contour>
  </outline>
</glyph>
<glyph name="plus" format="2">
  <advance width="1020"/>
  <unicode hex="002B"/>
  <outline>
    <contour>
      <point x="109.25501251220703" y="443.5530090332031" type="line"/>
      <point x="465.1289367675781" y="443.5530090332031" type="line"/>
      <point x="465.1289367675781" y="87.67908477783203" type="line"/>
      <point x="554.8710632324219" y="87.67908477783203" type="line"/>
      <point x="554.8710632324219" y="443.5530090332031" type="line"/>
      <point x="910.744987487793" y="443.5530090332031" type="line"/>
      <point x="910.744987487793" y="533.2951278686523" type="line"/>
      <point x="554.8710632324219" y="533.2951278686523" type="line"/>
      <point x="554.8710632324219" y="889.1690521240234" type="line"/>
      <point x="465.1289367675781" y="889.1690521240234" type="line"/>
      <point x="465.1289367675781" y="533.2951278686523" type="line"/>
      <point x="109.25501251220703" y="533.2951278686523" type="line"/>
    </contour>
  </outline>
</glyph>
<glyph name="comma" format="2">
  <advance width="980"/>
  <unicode hex="002C"/>
  <outline>
    <contour>
      <point x="449.51905059814453" y="-300" type="line"/>
      <point x="515.345301632027" y="-185.98559261764564"/>
      <point x="550.0" y="-56.6524975873958"/>
      <point x="550.0" y="75.0" type="curve"/>
      <point x="550" y="240" type="line"/>
      <point x="430" y="240" type="line"/>
      <point x="430" y="75" type="line"/>
      <point x="430.00000000000006" y="-35.58809797341249"/>
      <point x="400.89005337090265" y="-144.2278977988223"/>
      <point x="345.5960043841964" y="-239.99999999999994" type="curve"/>
    </contour>
  </outline>
</glyph>
<glyph name="hyphen" format="2">
  <advance width="980"/>
  <unicode hex="002D"/>
  <outline>
    <contour>
      <point x="115.0" y="445.0" type="line"/>
      <point x="865.0" y="445.0" type="line"/>
      <point x="865.0" y="535.0" type="line"/>
      <point x="115.0" y="535.0" type="line"/>
    </contour>
  </outline>
</glyph>
<glyph name="period" format="2">
  <advance width="1020"/>
  <unicode hex="002E"/>
  <outline>
    <contour>
      <point x="616.5039577836412" y="106.50395778364117" type="curve" smooth="yes"/>
      <point x="616.5039577836412" y="165.28509177387866"/>
      <point x="568.7811339902375" y="213.00791556728234"/>
      <point x="510.0" y="213.00791556728234" type="curve" smooth="yes"/>
      <point x="451.2188660097625" y="213.00791556728234"/>
      <point x="403.49604221635883" y="165.28509177387866"/>
      <point x="403.49604221635883" y="106.50395778364117" type="curve" smooth="yes"/>
      <point x="403.49604221635883" y="47.722823793403705"/>
      <point x="451.2188660097625" y="0.0"/>
      <point x="510.0" y="0.0" type="curve" smooth="yes"/>
      <point x="568.7811339902374" y="-1.4623306962872775e-14"/>
      <point x="616.5039577836412" y="47.72282379340367"/>
    </contour>
  </outline>
</glyph>
<glyph name="slash" format="2">
  <advance width="1020"/>
  <unicode hex="002F"/>
  <outline>
    <contour>
      <point x="248.1498906999708" y="0.0" type="line"/>
      <point x="343.4204759772998" y="0.0" type="line"/>
      <point x="801.8501093000292" y="1259.5250659630608" type="line"/>
      <point x="706.5795240227002" y="1259.5250659630608" type="line"/>
    </contour>
  </outline>
</glyph>
<glyph name="zero" format="2">
  <advance width="1020"/>
  <unicode hex="0030"/>
  <outline>
    <contour>
      <point x="510.0" y="1100.47493" type="curve" smooth="yes"/>
      <point x="635.4223161308" y="1100.47493"/>
      <point x="742.6210354332991" y="1021.8298611529298"/>
      <point x="784.9301986694336" y="911.1782302856445" type="curve"/>
      <point x="215.76516723632812" y="364.41773986816406" type="line"/>
      <point x="215.76516723632812" y="806.2401123046875" type="line"/>
      <point x="215.76517" y="968.63273"/>
      <point x="347.60738" y="1100.47493"/>
    </contour>
    <contour>
      <point x="804.2348327636719" y="363.7598876953125" type="line"/>
      <point x="804.23483" y="201.36727"/>
      <point x="672.39262" y="69.52507"/>
      <point x="510.0" y="69.52507" type="curve" smooth="yes"/>
      <point x="384.5776838692" y="69.52507"/>
      <point x="277.378964566701" y="148.1701388470703"/>
      <point x="235.0698013305664" y="258.82176971435547" type="curve"/>
      <point x="804.2348327636719" y="805.5822601318359" type="line"/>
    </contour>
    <contour>
      <point x="126.2401123046875" y="363.7598876953125" type="line"/>
      <point x="126.24011" y="151.95704"/>
      <point x="298.19715" y="-20.0"/>
      <point x="510.0" y="-20.0" type="curve" smooth="yes"/>
      <point x="721.80285" y="-20.0"/>
      <point x="893.75989" y="151.95704"/>
      <point x="893.75989" y="363.75989" type="curve"/>
      <point x="893.7598876953125" y="806.2401123046875" type="line"/>
      <point x="893.75989" y="1018.04296"/>
      <point x="721.80285" y="1190.0"/>
      <point x="510.0" y="1190.0" type="curve" smooth="yes"/>
      <point x="298.19715" y="1190.0"/>
      <point x="126.24011" y="1018.04296"/>
      <point x="126.24011" y="806.24011" type="curve"/>
    </contour>
  </outline>
</glyph>
<glyph name="one" format="2">
  <advance width="1020"/>
  <unicode hex="0031"/>
  <outline>
    <contour>
      <point x="181.53034210205078" y="0" type="line"/>
      <point x="888.4696578979492" y="0" type="line"/>
      <point x="888.4696578979492" y="89.52507019042969" type="line"/>
      <point x="600.3430099487305" y="89.52507019042969" type="line"/>
      <point x="600.3430099487305" y="1170" type="line"/>
      <point x="510.8179397583008" y="1170" type="line"/>
      <point x="181.53034210205078" y="979.8857192993164" type="line"/>
      <point x="181.53034210205078" y="876.5110702514648" type="line"/>
      <point x="510.8179397583008" y="1066.625358581543" type="line"/>
      <point x="510.8179397583008" y="89.52507019042969" type="line"/>
      <point x="181.53034210205078" y="89.52507019042969" type="line"/>
    </contour>
  </outline>
</glyph>
<glyph name="two" format="2">
  <advance width="1020"/>
  <unicode hex="0032"/>
  <outline>
    <contour>
      <point x="129.88538360595703" y="0" type="line"/>
      <point x="890.114616394043" y="0" type="line"/>
      <point x="890.114616394043" y="89.74211883544922" type="line"/>
      <point x="266.2378921508789" y="89.74211883544922" type="line"/>
      <point x="760.1772308349609" y="521.54296875" type="line"/>
      <point x="842.7459404021658" y="593.7243836753557"/>
      <point x="890.1146131805158" y="698.0509707976603"/>
      <point x="890.1146131805158" y="807.7220630372493" type="curve"/>
      <point x="890.1146131805158" y="1017.5130273730659"/>
      <point x="719.7909643358166" y="1187.836676217765"/>
      <point x="510.0" y="1187.836676217765" type="curve" smooth="yes"/>
      <point x="300.2090356641834" y="1187.836676217765"/>
      <point x="129.88538681948427" y="1017.513027373066"/>
      <point x="129.88538681948427" y="807.7220630372493" type="curve"/>
      <point x="219.62751007080078" y="807.7220611572266" type="line"/>
      <point x="219.6275071633238" y="967.9830032286534"/>
      <point x="349.73905980859604" y="1098.0945558739254"/>
      <point x="510.0" y="1098.0945558739254" type="curve" smooth="yes"/>
      <point x="670.260940191404" y="1098.0945558739254"/>
      <point x="800.3724928366762" y="967.9830032286534"/>
      <point x="800.3724928366762" y="807.7220630372493" type="curve"/>
      <point x="800.3724928366762" y="723.9434674729499"/>
      <point x="764.18719734928" y="644.2475807024514"/>
      <point x="701.1123203738616" y="589.1076408288689" type="curve"/>
      <point x="129.88538360595703" y="89.74211883544922" type="line"/>
    </contour>
  </outline>
</glyph>
<glyph name="three" format="2">
  <advance width="1020"/>
  <unicode hex="0033"/>
  <outline>
    <contour>
      <point x="130.38522338867188" y="311.51001739501953" type="line"/>
      <point x="130.38522" y="128.67383"/>
      <point x="299.89274" y="-20.0"/>
      <point x="509.0" y="-20.0" type="curve" smooth="yes"/>
      <point x="718.10726" y="-20.0"/>
      <point x="887.61478" y="128.67383"/>
      <point x="887.61478" y="311.51002" type="curve"/>
      <point x="887.61478" y="434.5862012985"/>
      <point x="810.8056810917128" y="542.1823608954229"/>
      <point x="696.8124694824219" y="599.3642654418945" type="curve"/>
      <point x="801.926812902253" y="655.1675919189889"/>
      <point x="872.1794200000002" y="756.37220232035"/>
      <point x="872.17942" y="871.74749" type="curve"/>
      <point x="872.17942" y="1047.2726"/>
      <point x="709.58136" y="1190.0"/>
      <point x="509.0" y="1190.0" type="curve" smooth="yes"/>
      <point x="308.41864" y="1190.0"/>
      <point x="145.82058" y="1047.2726"/>
      <point x="145.82058" y="871.74749" type="curve"/>
      <point x="235.34564971923828" y="871.7474899291992" type="line"/>
      <point x="235.34565" y="997.86536"/>
      <point x="357.8447" y="1100.47493"/>
      <point x="509.0" y="1100.47493" type="curve" smooth="yes"/>
      <point x="660.1553000000001" y="1100.47493"/>
      <point x="782.65435" y="997.86536"/>
      <point x="782.65435" y="871.74749" type="curve"/>
      <point x="782.65435" y="779.0776479581723"/>
      <point x="717.663990206569" y="643.0200326500477"/>
      <point x="466.25" y="643.0200415058202" type="curve"/>
      <point x="440.31266021728516" y="643.0200424194336" type="line"/>
      <point x="440.31266021728516" y="553.4949798583984" type="line"/>
      <point x="466.25" y="553.4949798583984" type="line"/>
      <point x="724.84330805272" y="553.4949798583984"/>
      <point x="798.08971" y="412.7939323675915"/>
      <point x="798.08971" y="311.51002" type="curve"/>
      <point x="798.08971" y="178.08117999999993"/>
      <point x="668.70958" y="69.52507"/>
      <point x="509.0" y="69.52507" type="curve" smooth="yes"/>
      <point x="349.29042" y="69.52507"/>
      <point x="219.91029" y="178.08118"/>
      <point x="219.91029" y="311.51002" type="curve"/>
    </contour>
  </outline>
</glyph>
<glyph name="four" format="2">
  <advance width="1020"/>
  <unicode hex="0034"/>
  <outline>
    <contour>
      <point x="200.81708526611328" y="389.0808868408203" type="line"/>
      <point x="680.9169082641602" y="1024.039176940918" type="line"/>
      <point x="680.9169082641602" y="389.0808868408203" type="line"/>
    </contour>
    <contour>
      <point x="88.30945587158203" y="299.3387680053711" type="line"/>
      <point x="680.9169082641602" y="299.3387680053711" type="line"/>
      <point x="680.9169082641602" y="0" type="line"/>
      <point x="770.6590270996094" y="0" type="line"/>
      <point x="770.6590270996094" y="299.3387680053711" type="line"/>
      <point x="951.690544128418" y="299.3387680053711" type="line"/>
      <point x="951.690544128418" y="389.0808868408203" type="line"/>
      <point x="770.6590270996094" y="389.0808868408203" type="line"/>
      <point x="770.6590270996094" y="1172.8366775512695" type="line"/>
      <point x="680.9169082641602" y="1172.8366775512695" type="line"/>
      <point x="88.30945587158203" y="389.0808868408203" type="line"/>
    </contour>
  </outline>
</glyph>
<glyph name="five" format="2">
  <advance width="1020"/>
  <unicode hex="0035"/>
  <outline>
    <contour>
      <point x="884.083163198564" y="370.27220630372483" type="curve" smooth="yes"/>
      <point x="884.083163198564" y="582.9097237512892"/>
      <point x="711.4484743424036" y="755.5444126074498"/>
      <point x="498.8109568948392" y="755.5444126074498" type="curve" smooth="yes"/>
      <point x="404.4141218358765" y="755.5444126074499"/>
      <point x="317.900908578475" y="721.5221535648823"/>
      <point x="250.87525939941406" y="665.0703277587891" type="curve"/>
      <point x="294.8113784790039" y="1083.0945587158203" type="line"/>
      <point x="851.0357055664062" y="1083.0945587158203" type="line"/>
      <point x="851.0357055664062" y="1172.8366775512695" type="line"/>
      <point x="214.00720977783203" y="1172.8366775512695" type="line"/>
      <point x="145.91683959960938" y="525" type="line"/>
      <point x="247.04393768310547" y="525" type="line"/>
      <point x="299.09122489418655" y="609.4655676478395"/>
      <point x="392.4239312803651" y="665.8022922636102"/>
      <point x="498.81095689483914" y="665.8022922636102" type="curve" smooth="yes"/>
      <point x="661.918450197991" y="665.8022922636102"/>
      <point x="794.3410428547245" y="533.3796996068767"/>
      <point x="794.3410428547245" y="370.27220630372483" type="curve" smooth="yes"/>
      <point x="794.3410428547245" y="207.16471300057296"/>
      <point x="661.9184501979909" y="74.74212034383952"/>
      <point x="498.810956894839" y="74.74212034383952" type="curve" smooth="yes"/>
      <point x="392.4229526354051" y="74.74212034383952"/>
      <point x="299.089507776457" y="131.07988143759925"/>
      <point x="247.04234344569872" y="215.54441523073737" type="curve"/>
      <point x="145.92565155029297" y="215.54441833496094" type="line"/>
      <point x="205.57082479869973" y="79.84365073934465"/>
      <point x="341.2023278625647" y="-15.000000000000018"/>
      <point x="498.81095689483897" y="-15.000000000000034" type="curve" smooth="yes"/>
      <point x="711.4484743424035" y="-15.000000000000018"/>
      <point x="884.083163198564" y="157.63468885616032"/>
    </contour>
  </outline>
</glyph>
<glyph name="six" format="2">
  <advance width="980"/>
  <unicode hex="0036"/>
  <outline>
    <contour>
      <point x="845.0" y="370.0" type="curve" smooth="yes"/>
      <point x="845.0" y="565.9298321"/>
      <point x="685.9298321" y="725.0"/>
      <point x="490.0" y="725.0" type="curve" smooth="yes"/>
      <point x="451.11694110042663" y="725.0"/>
      <point x="413.6855628513851" y="718.735182079676"/>
      <point x="378.6613082885742" y="707.1557388305664" type="curve"/>
      <point x="637.2243194580078" y="1155" type="line"/>
      <point x="533.30126953125" y="1155" type="line"/>
      <point x="182.56098175048828" y="547.5" type="line"/>
      <point x="182.56476593017578" y="547.4978179931641" type="line"/>
      <point x="152.31833213985564" y="495.2842353335948"/>
      <point x="135.00000000000006" y="434.6486155400518"/>
      <point x="135.00000000000009" y="370.0" type="curve" smooth="yes"/>
      <point x="135.0" y="174.07016790000006"/>
      <point x="294.07016789999994" y="15.0"/>
      <point x="489.99999999999994" y="15.0" type="curve" smooth="yes"/>
      <point x="685.9298320999999" y="14.999999999999943"/>
      <point x="845.0" y="174.07016789999994"/>
    </contour>
    <contour>
      <point x="755.0" y="370.0" type="curve" smooth="yes"/>
      <point x="755.0" y="223.74251969999995"/>
      <point x="636.2574803" y="105.0"/>
      <point x="489.99999999999994" y="105.0" type="curve" smooth="yes"/>
      <point x="343.7425197" y="105.0"/>
      <point x="225.0" y="223.74251970000003"/>
      <point x="225.0" y="370.0" type="curve" smooth="yes"/>
      <point x="225.0" y="418.335172089544"/>
      <point x="237.9687053838475" y="463.665241890783"/>
      <point x="260.61331939697266" y="502.6906204223633" type="curve"/>
      <point x="260.88756561279297" y="503.1656265258789" type="line"/>
      <point x="306.8297611354943" y="581.9844093713635"/>
      <point x="392.27250675330356" y="635.0"/>
      <point x="490.0" y="635.0" type="curve" smooth="yes"/>
      <point x="636.2574803" y="635.0"/>
      <point x="755.0" y="516.2574803"/>
    </contour>
  </outline>
</glyph>
<glyph name="seven" format="2">
  <advance width="1020"/>
  <unicode hex="0037"/>
  <outline>
    <contour>
      <point x="296.4193801879883" y="0" type="line"/>
      <point x="394.6451873779297" y="0" type="line"/>
      <point x="882.4422836303711" y="1080.4749298095703" type="line"/>
      <point x="882.4422836303711" y="1170" type="line"/>
      <point x="137.5577163696289" y="1170" type="line"/>
      <point x="137.5577163696289" y="1080.4749298095703" type="line"/>
      <point x="784.2164688110352" y="1080.4749298095703" type="line"/>
    </contour>
  </outline>
</glyph>
<glyph name="eight" format="2">
  <advance width="1020"/>
  <unicode hex="0038"/>
  <outline>
    <contour>
      <point x="900.4297994269341" y="314.5173778954045" type="curve" smooth="yes"/>
      <point x="900.4297994269341" y="436.6383030665178"/>
      <point x="821.5469766989889" y="543.3322650468131"/>
      <point x="704.4764709472656" y="600.2447204589844" type="curve"/>
      <point x="812.6487533374068" y="655.8311308334073"/>
      <point x="884.9570200573065" y="756.3702949325349"/>
      <point x="884.9570200573066" y="871.0646558323672" type="curve" smooth="yes"/>
      <point x="884.9570200573065" y="1045.8958917988143"/>
      <point x="716.9444112240687" y="1187.8366762177648"/>
      <point x="510.0" y="1187.8366762177648" type="curve" smooth="yes"/>
      <point x="303.05558877593126" y="1187.8366762177648"/>
      <point x="135.04297994269342" y="1045.8958917988143"/>
      <point x="135.04297994269342" y="871.0646558323672" type="curve" smooth="yes"/>
      <point x="135.04297994269342" y="756.3722180761305"/>
      <point x="207.3488218177599" y="655.8345024285975"/>
      <point x="315.5181198120117" y="600.247673034668" type="curve"/>
      <point x="198.45067383235613" y="543.3290872161126"/>
      <point x="119.57020057306592" y="436.6364844106157"/>
      <point x="119.57020057306596" y="314.5173778954046" type="curve" smooth="yes"/>
      <point x="119.5702005730659" y="132.65178768391476"/>
      <point x="294.5159294406876" y="-15.000000000000018"/>
      <point x="509.99999999999994" y="-15.000000000000018" type="curve" smooth="yes"/>
      <point x="725.4840705593123" y="-15.000000000000076"/>
      <point x="900.4297994269341" y="132.65178768391468"/>
    </contour>
    <contour>
      <point x="795.214899713467" y="871.0646558323672" type="curve" smooth="yes"/>
      <point x="795.214899713467" y="745.7634440103326"/>
      <point x="667.4143870796561" y="644.034755790809"/>
      <point x="509.99999999999994" y="644.034755790809" type="curve" smooth="yes"/>
      <point x="352.5856129203438" y="644.034755790809"/>
      <point x="224.78510028653295" y="745.7634440103327"/>
      <point x="224.78510028653295" y="871.0646558323672" type="curve" smooth="yes"/>
      <point x="224.78510028653295" y="996.3658676544019"/>
      <point x="352.5856129203438" y="1098.0945558739252"/>
      <point x="510.0" y="1098.0945558739252" type="curve" smooth="yes"/>
      <point x="667.4143870796562" y="1098.0945558739252"/>
      <point x="795.214899713467" y="996.3658676544019"/>
    </contour>
    <contour>
      <point x="810.6876790830945" y="314.5173778954045" type="curve" smooth="yes"/>
      <point x="810.6876790830945" y="182.18181182832728"/>
      <point x="675.9540464148996" y="74.74212034383946"/>
      <point x="509.99999999999994" y="74.74212034383952" type="curve" smooth="yes"/>
      <point x="344.0459535851003" y="74.74212034383952"/>
      <point x="209.31232091690543" y="182.18181182832734"/>
      <point x="209.31232091690543" y="314.5173778954045" type="curve" smooth="yes"/>
      <point x="209.31232091690543" y="446.8529439624816"/>
      <point x="344.0459535851003" y="554.2926354469694"/>
      <point x="510.0" y="554.2926354469694" type="curve" smooth="yes"/>
      <point x="675.9540464148997" y="554.2926354469694"/>
      <point x="810.6876790830945" y="446.8529439624816"/>
    </contour>
  </outline>
</glyph>
<glyph name="nine" format="2">
  <advance width="1020"/>
  <unicode hex="0039"/>
  <outline>
    <contour>
      <point x="897.8510028653295" y="799.9856733524354" type="curve" smooth="yes"/>
      <point x="897.8510028653295" y="1014.0464673558739"/>
      <point x="724.0607940034386" y="1187.8366762177648"/>
      <point x="510.0" y="1187.8366762177648" type="curve" smooth="yes"/>
      <point x="295.93920599656167" y="1187.8366762177648"/>
      <point x="122.14899713467054" y="1014.0464673558739"/>
      <point x="122.14899713467054" y="799.9856733524355" type="curve" smooth="yes"/>
      <point x="122.14899713467054" y="585.9248793489971"/>
      <point x="295.93920599656155" y="412.13467048710595"/>
      <point x="509.99999999999994" y="412.13467048710595" type="curve" smooth="yes"/>
      <point x="555.8008756065636" y="412.13467048710595"/>
      <point x="599.758174398631" y="420.09074061914123"/>
      <point x="640.5642929077148" y="434.70458984375" type="curve"/>
      <point x="383.9924774169922" y="0" type="line"/>
      <point x="488.20008087158203" y="0" type="line"/>
      <point x="844.0118255615234" y="602.844856262207" type="line"/>
      <point x="844.0071411132812" y="602.8476257324219" type="line"/>
      <point x="878.2124435997068" y="660.6202423733922"/>
      <point x="897.8510028653295" y="728.0276390226215"/>
    </contour>
    <contour>
      <point x="808.1088825214899" y="799.9856733524355" type="curve" smooth="yes"/>
      <point x="808.1088825214899" y="635.4549034934097"/>
      <point x="674.5307698590257" y="501.8767908309454"/>
      <point x="509.99999999999994" y="501.8767908309455" type="curve" smooth="yes"/>
      <point x="345.4692301409742" y="501.8767908309455"/>
      <point x="211.89111747851007" y="635.4549034934097"/>
      <point x="211.89111747851007" y="799.9856733524355" type="curve" smooth="yes"/>
      <point x="211.89111747851007" y="964.5164432114613"/>
      <point x="345.4692301409743" y="1098.0945558739252"/>
      <point x="510.0" y="1098.0945558739252" type="curve" smooth="yes"/>
      <point x="674.5307698590259" y="1098.0945558739252"/>
      <point x="808.1088825214899" y="964.5164432114613"/>
    </contour>
  </outline>
</glyph>
<glyph name="colon" format="2">
  <advance width="980"/>
  <unicode hex="003A"/>
  <outline>
    <contour>
      <point x="595.0" y="660.0" type="curve" smooth="yes"/>
      <point x="595.0" y="717.9510771"/>
      <point x="547.9510771" y="765.0"/>
      <point x="490.0" y="765.0" type="curve" smooth="yes"/>
      <point x="432.0489229" y="765.0"/>
      <point x="385.0" y="717.9510771"/>
      <point x="385.0" y="660.0" type="curve" smooth="yes"/>
      <point x="385.0" y="602.0489229"/>
      <point x="432.0489229" y="555.0"/>
      <point x="490.0" y="555.0" type="curve" smooth="yes"/>
      <point x="547.9510771" y="555.0"/>
      <point x="595.0" y="602.0489229"/>
    </contour>
    <contour>
      <point x="595.0" y="120.0" type="curve" smooth="yes"/>
      <point x="595.0" y="177.95107710000002"/>
      <point x="547.9510771" y="225.0"/>
      <point x="490.0" y="225.0" type="curve" smooth="yes"/>
      <point x="432.0489229" y="225.0"/>
      <point x="385.0" y="177.95107710000002"/>
      <point x="385.0" y="120.0" type="curve" smooth="yes"/>
      <point x="385.0" y="62.04892290000001"/>
      <point x="432.0489229" y="15.0"/>
      <point x="490.0" y="15.0" type="curve" smooth="yes"/>
      <point x="547.9510771" y="14.999999999999986"/>
      <point x="595.0" y="62.04892289999997"/>
    </contour>
  </outline>
</glyph>
<glyph name="semicolon" format="2">
  <advance width="1020"/>
  <unicode hex="003B"/>
  <outline>
    <contour>
      <point x="616.7621776504299" y="694.7277936962751" type="curve" smooth="yes"/>
      <point x="616.7621776504299" y="753.6514431094555"/>
      <point x="568.9236494131806" y="801.4899713467048"/>
      <point x="510.0" y="801.4899713467048" type="curve" smooth="yes"/>
      <point x="451.0763505868195" y="801.4899713467048"/>
      <point x="403.2378223495702" y="753.6514431094555"/>
      <point x="403.2378223495702" y="694.7277936962751" type="curve" smooth="yes"/>
      <point x="403.2378223495702" y="635.8041442830945"/>
      <point x="451.0763505868195" y="587.9656160458452"/>
      <point x="510.0" y="587.9656160458452" type="curve" smooth="yes"/>
      <point x="568.9236494131804" y="587.9656160458452"/>
      <point x="616.7621776504299" y="635.8041442830945"/>
    </contour>
    <contour>
      <point x="462.9645462036133" y="-338.85386657714844" type="line"/>
      <point x="533.3099819389133" y="-217.01199605351607"/>
      <point x="570.3438395415473" y="-78.79975788021532"/>
      <point x="570.3438395415473" y="61.891117478510026" type="curve"/>
      <point x="570.3438415527344" y="230.5444107055664" type="line"/>
      <point x="449.6561584472656" y="230.5444107055664" type="line"/>
      <point x="449.6561584472656" y="61.89112091064453" type="line"/>
      <point x="449.65616045845275" y="-57.61464537446131"/>
      <point x="418.19882967629263" y="-175.01500212398318"/>
      <point x="358.445948249807" y="-278.5100286532951" type="curve"/>
    </contour>
  </outline>
</glyph>
<glyph name="less" format="2">
  <advance width="1020"/>
  <unicode hex="003C"/>
  <outline>
    <contour>
      <point x="107.72427368164062" y="535.9412307739258" type="line"/>
      <point x="107.72427368164062" y="438.5442581176758" type="line"/>
      <point x="907.2757263183594" y="95.95645904541016" type="line"/>
      <point x="907.2757263183594" y="193.35343170166016" type="line"/>
      <point x="221.37965393066406" y="487.2427444458008" type="line"/>
      <point x="907.2757263183594" y="781.1320495605469" type="line"/>
      <point x="907.2757263183594" y="878.5290222167969" type="line"/>
    </contour>
  </outline>
</glyph>
<glyph name="equal" format="2">
  <advance width="1020"/>
  <unicode hex="003D"/>
  <outline>
    <contour>
      <point x="110.22427" y="579.85488" type="line"/>
      <point x="909.77573" y="579.85488" type="line"/>
      <point x="909.77573" y="669.37995" type="line"/>
      <point x="110.22427" y="669.37995" type="line"/>
    </contour>
    <contour>
      <point x="110.22427" y="305.10554" type="line"/>
      <point x="909.77573" y="305.10554" type="line"/>
      <point x="909.77573" y="394.63061" type="line"/>
      <point x="110.22427" y="394.63061" type="line"/>
    </contour>
  </outline>
</glyph>
<glyph name="greater" format="2">
  <advance width="1020"/>
  <unicode hex="003E"/>
  <outline>
    <contour>
      <point x="913.244987487793" y="537.4260482788086" type="line"/>
      <point x="111.75501251220703" y="889.1690521240234" type="line"/>
      <point x="111.75501251220703" y="791.1651000976562" type="line"/>
      <point x="801.5879135131836" y="488.42406463623047" type="line"/>
      <point x="111.75501251220703" y="185.68303680419922" type="line"/>
      <point x="111.75501251220703" y="87.67908477783203" type="line"/>
      <point x="913.244987487793" y="439.4220886230469" type="line"/>
    </contour>
  </outline>
</glyph>
<glyph name="question" format="2">
  <advance width="1020"/>
  <unicode hex="003F"/>
  <outline>
    <contour>
      <point x="460.1289367675781" y="323.8968505859375" type="line"/>
      <point x="549.8710632324219" y="323.8968505859375" type="line"/>
      <point x="549.8710632324219" y="492.3661193847656" type="line"/>
      <point x="721.4226093520815" y="514.4087757849118"/>
      <point x="854.1690544412605" y="661.15822699113"/>
      <point x="854.1690544412605" y="838.6676217765043" type="curve"/>
      <point x="854.1690544412606" y="1031.379267441834"/>
      <point x="697.7116456653296" y="1187.836676217765"/>
      <point x="505.0" y="1187.836676217765" type="curve" smooth="yes"/>
      <point x="312.28835433467054" y="1187.836676217765"/>
      <point x="155.8309455587393" y="1031.379267441834"/>
      <point x="155.8309455587393" y="838.6676217765043" type="curve"/>
      <point x="245.57306671142578" y="838.6676254272461" type="line"/>
      <point x="245.57306590257883" y="981.8492432974213"/>
      <point x="361.81837847908315" y="1098.0945558739254"/>
      <point x="505.0" y="1098.0945558739254" type="curve" smooth="yes"/>
      <point x="648.1816215209169" y="1098.0945558739254"/>
      <point x="764.4269340974213" y="981.8492432974213"/>
      <point x="764.4269340974213" y="838.6676217765043" type="curve"/>
      <point x="764.4269340974213" y="695.4860002555874"/>
      <point x="648.1816215209169" y="579.2406876790832"/>
      <point x="505.0" y="579.2406876790832" type="curve"/>
      <point x="460.1289367675781" y="579.2406845092773" type="line"/>
    </contour>
    <contour>
      <point x="611.7621776504297" y="106.76217765042979" type="curve" smooth="yes"/>
      <point x="611.7621776504297" y="165.6858270636103"/>
      <point x="563.9236494131806" y="213.52435530085958"/>
      <point x="505.0" y="213.52435530085958" type="curve" smooth="yes"/>
      <point x="446.0763505868195" y="213.52435530085958"/>
      <point x="398.23782234957025" y="165.6858270636103"/>
      <point x="398.23782234957025" y="106.76217765042979" type="curve" smooth="yes"/>
      <point x="398.23782234957025" y="47.83852823724929"/>
      <point x="446.07635058681944" y="0.0"/>
      <point x="505.0" y="0.0" type="curve" smooth="yes"/>
      <point x="563.9236494131806" y="-1.465876131081009e-14"/>
      <point x="611.7621776504297" y="47.83852823724925"/>
    </contour>
  </outline>
</glyph>
<glyph name="at" format="2">
  <advance width="1020"/>
  <unicode hex="0040"/>
  <outline>
    <contour>
      <point x="109.25501251220703" y="385.74498748779297" type="line"/>
      <point x="109.2550143266476" y="164.56780889054443"/>
      <point x="288.82282321719197" y="-15.000000000000018"/>
      <point x="509.99999999999994" y="-15.000000000000018" type="curve" smooth="yes"/>
      <point x="682.0338198734358" y="-15.000000000000018"/>
      <point x="828.8944550029964" y="93.6364406918817"/>
      <point x="885.6632536530153" y="246.01719197707735" type="curve"/>
      <point x="787.8702850341797" y="246.0171890258789" type="line"/>
      <point x="736.6572196061454" y="144.45786407966773"/>
      <point x="631.4058594139844" y="74.7421203438395"/>
      <point x="509.9999999999999" y="74.74212034383952" type="curve" smooth="yes"/>
      <point x="338.3528473616045" y="74.74212034383952"/>
      <point x="198.99713467048713" y="214.097833034957"/>
      <point x="198.99713467048713" y="385.74498567335246" type="curve"/>
      <point x="198.99713134765625" y="787.0916900634766" type="line"/>
      <point x="198.99713467048713" y="958.738843182808"/>
      <point x="338.35284736160463" y="1098.0945558739252"/>
      <point x="510.0" y="1098.0945558739252" type="curve" smooth="yes"/>
      <point x="681.6471526383955" y="1098.0945558739252"/>
      <point x="821.0028653295129" y="958.7388431828078"/>
      <point x="821.0028653295129" y="787.0916905444125" type="curve"/>
      <point x="821.0028686523438" y="586.8911209106445" type="line"/>
      <point x="821.0028653295129" y="499.7865922590257"/>
      <point x="750.2850409787966" y="429.0687679083093"/>
      <point x="663.1805157593124" y="429.0687679083093" type="curve"/>
      <point x="585.8166198730469" y="429.0687713623047" type="line"/>
      <point x="585.8166198730469" y="757.6934127807617" type="line"/>
      <point x="585.8166189111748" y="799.5377404848136"/>
      <point x="551.8443307426935" y="833.5100286532951"/>
      <point x="510.0" y="833.5100286532951" type="curve" smooth="yes"/>
      <point x="468.1556692573066" y="833.5100286532951"/>
      <point x="434.18338108882523" y="799.5377404848138"/>
      <point x="434.18338108882523" y="757.6934097421203" type="curve" smooth="yes"/>
      <point x="434.1833801269531" y="415.1432647705078" type="line"/>
      <point x="434.18338108882523" y="373.29893573295124"/>
      <point x="468.1556692573066" y="339.32664756446985"/>
      <point x="510.0" y="339.32664756446985" type="curve" smooth="yes"/>
      <point x="663.1805191040039" y="339.32664489746094" type="line"/>
      <point x="799.8150651232093" y="339.3266475644698"/>
      <point x="910.7449856733524" y="450.2565681146131"/>
      <point x="910.7449856733524" y="586.89111747851" type="curve"/>
      <point x="910.744987487793" y="787.0916900634766" type="line"/>
      <point x="910.7449856733524" y="1008.2688673272205"/>
      <point x="731.177176782808" y="1187.8366762177648"/>
      <point x="510.0" y="1187.8366762177648" type="curve" smooth="yes"/>
      <point x="288.822823217192" y="1187.8366762177648"/>
      <point x="109.2550143266476" y="1008.2688673272205"/>
      <point x="109.2550143266476" y="787.0916905444125" type="curve"/>
    </contour>
  </outline>
</glyph>
<glyph name="A" format="2">
  <advance width="1020"/>
  <unicode hex="0041"/>
  <outline>
    <contour>
      <point x="49.25462341308594" y="0" type="line"/>
      <point x="144.20046997070312" y="0" type="line"/>
      <point x="270.0151672363281" y="356.18921661376953" type="line"/>
      <point x="749.9848327636719" y="356.18921661376953" type="line"/>
      <point x="875.7995300292969" y="0" type="line"/>
      <point x="970.7453765869141" y="0" type="line"/>
      <point x="557.4729309082031" y="1170" type="line"/>
      <point x="462.5270690917969" y="1170" type="line"/>
    </contour>
    <contour>
      <point x="301.6375961303711" y="445.7142868041992" type="line"/>
      <point x="510" y="1035.6011810302734" type="line"/>
      <point x="718.3624038696289" y="445.7142868041992" type="line"/>
    </contour>
  </outline>
</glyph>
<glyph name="B" format="2">
  <advance width="1020"/>
  <unicode hex="0042"/>
  <outline>
    <contour>
      <point x="145.65962982177734" y="0" type="line"/>
      <point x="556.709098815918" y="0.0" type="line"/>
      <point x="839.2971906485976" y="0.0"/>
      <point x="914.34037" y="190.54099280615793"/>
      <point x="914.34037" y="314.88127" type="curve" smooth="yes"/>
      <point x="914.34037" y="439.81446692680004"/>
      <point x="841.4240305968996" y="547.8515217492327"/>
      <point x="735.8635101318359" y="598.7192993164062" type="curve"/>
      <point x="815.8498033773353" y="655.8297909227047"/>
      <point x="868.0342999999999" y="749.4281761556999"/>
      <point x="868.0343" y="855.1187299999999" type="curve" smooth="yes"/>
      <point x="868.0343" y="979.4590071938419"/>
      <point x="792.9911217734755" y="1170.0"/>
      <point x="510.40302999999994" y="1170.0" type="curve"/>
      <point x="145.65962982177734" y="1170" type="line"/>
    </contour>
    <contour>
      <point x="510.4030303955078" y="1080.4749298095703" type="line"/>
      <point x="757.4184805903865" y="1080.4749298095703"/>
      <point x="778.50923" y="910.7180290734207"/>
      <point x="778.50923" y="855.11873" type="curve" smooth="yes"/>
      <point x="778.50923" y="799.5194314265794"/>
      <point x="757.418480214654" y="629.7625316279776"/>
      <point x="510.40302999999994" y="629.7625296592862" type="curve"/>
      <point x="235.18470001220703" y="629.7625274658203" type="line"/>
      <point x="235.18470001220703" y="1080.4749298095703" type="line"/>
    </contour>
    <contour>
      <point x="556.709098815918" y="540.2374725341797" type="line"/>
      <point x="803.7245485897761" y="540.2374725341797"/>
      <point x="824.8153" y="370.48056857342056"/>
      <point x="824.8153" y="314.88127" type="curve" smooth="yes"/>
      <point x="824.8153" y="259.2819709265794"/>
      <point x="803.724549714654" y="89.52506989321729"/>
      <point x="556.7091" y="89.52507002234817" type="curve"/>
      <point x="235.18470001220703" y="89.52507019042969" type="line"/>
      <point x="235.18470001220703" y="540.2374725341797" type="line"/>
    </contour>
  </outline>
</glyph>
<glyph name="C" format="2">
  <advance width="1020"/>
  <unicode hex="0043"/>
  <outline>
    <contour>
      <point x="92.72427325677693" y="442.5257263183594" type="line"/>
      <point x="92.72427669365659" y="96.70515277516841"/>
      <point x="335.9542826222648" y="-19.99999999999998"/>
      <point x="512.5" y="-20.0" type="curve" smooth="yes"/>
      <point x="744.1805300000001" y="-20.0"/>
      <point x="932.27573" y="168.09519999999995"/>
      <point x="932.27573" y="399.77573" type="curve"/>
      <point x="842.7506637573242" y="399.7757263183594" type="line"/>
      <point x="842.75066" y="217.5054299999999"/>
      <point x="694.7703000000001" y="69.52507"/>
      <point x="512.5" y="69.52507" type="curve" smooth="yes"/>
      <point x="380.635266000537" y="69.52507000000001"/>
      <point x="182.24934252772323" y="150.55811098847187"/>
      <point x="182.24933956640237" y="442.52573" type="curve"/>
      <point x="182.2493366762734" y="727.4742736816406" type="line"/>
      <point x="182.2493337149525" y="1019.4418925090866"/>
      <point x="380.635266000537" y="1100.47493"/>
      <point x="512.5" y="1100.47493" type="curve" smooth="yes"/>
      <point x="694.7702966865236" y="1100.47493"/>
      <point x="842.75066" y="952.4945700000001"/>
      <point x="842.75066" y="770.22427" type="curve"/>
      <point x="932.2757263183594" y="770.2242736816406" type="line"/>
      <point x="932.27573" y="1001.9048033134766"/>
      <point x="744.1805300000001" y="1190.0"/>
      <point x="512.5" y="1190.0" type="curve" smooth="yes"/>
      <point x="335.9542826222648" y="1190.0"/>
      <point x="92.724266987984" y="1073.294843727273"/>
      <point x="92.7242704248637" y="727.47427" type="curve"/>
    </contour>
  </outline>
</glyph>
<glyph name="D" format="2">
  <advance width="1020"/>
  <unicode hex="0044"/>
  <outline>
    <contour>
      <point x="134.65962982177734" y="0" type="line"/>
      <point x="503.56463623046875" y="0" type="line"/>
      <point x="724.20687" y="0.0"/>
      <point x="903.34037" y="179.1335"/>
      <point x="903.34037" y="399.77573" type="curve"/>
      <point x="903.3403701782227" y="770.2242736816406" type="line"/>
      <point x="903.34037" y="990.8665"/>
      <point x="724.20687" y="1170.0"/>
      <point x="503.56464" y="1170.0" type="curve"/>
      <point x="134.65962982177734" y="1170" type="line"/>
    </contour>
    <contour>
      <point x="813.815299987793" y="399.7757263183594" type="line"/>
      <point x="813.8153" y="228.54373"/>
      <point x="674.79664" y="89.52507"/>
      <point x="503.56464" y="89.52507" type="curve"/>
      <point x="224.18470001220703" y="89.52507019042969" type="line"/>
      <point x="224.18470001220703" y="1080.4749298095703" type="line"/>
      <point x="503.56463623046875" y="1080.4749298095703" type="line"/>
      <point x="674.79664" y="1080.47493"/>
      <point x="813.8153" y="941.45627"/>
      <point x="813.8153" y="770.22427" type="curve"/>
    </contour>
  </outline>
</glyph>
<glyph name="E" format="2">
  <advance width="1020"/>
  <unicode hex="0045"/>
  <outline>
    <contour>
      <point x="142.70057678222656" y="0" type="line"/>
      <point x="882.2994232177734" y="0" type="line"/>
      <point x="882.2994232177734" y="89.74211883544922" type="line"/>
      <point x="232.44269561767578" y="89.74211883544922" type="line"/>
      <point x="232.44269561767578" y="541.5472793579102" type="line"/>
      <point x="820.4083099365234" y="541.5472793579102" type="line"/>
      <point x="820.4083099365234" y="631.2893981933594" type="line"/>
      <point x="232.44269561767578" y="631.2893981933594" type="line"/>
      <point x="232.44269561767578" y="1083.0945587158203" type="line"/>
      <point x="882.2994232177734" y="1083.0945587158203" type="line"/>
      <point x="882.2994232177734" y="1172.8366775512695" type="line"/>
      <point x="142.70057678222656" y="1172.8366775512695" type="line"/>
    </contour>
  </outline>
</glyph>
<glyph name="F" format="2">
  <advance width="1020"/>
  <unicode hex="0046"/>
  <outline>
    <contour>
      <point x="146.09498596191406" y="0" type="line"/>
      <point x="235.62005615234375" y="0" type="line"/>
      <point x="235.62005615234375" y="540.2374649047852" type="line"/>
      <point x="822.1635894775391" y="540.2374649047852" type="line"/>
      <point x="822.1635894775391" y="629.7625350952148" type="line"/>
      <point x="235.62005615234375" y="629.7625350952148" type="line"/>
      <point x="235.62005615234375" y="1080.4749374389648" type="line"/>
      <point x="883.9050140380859" y="1080.4749374389648" type="line"/>
      <point x="883.9050140380859" y="1170" type="line"/>
      <point x="146.09498596191406" y="1170" type="line"/>
    </contour>
  </outline>
</glyph>
<glyph name="H" format="2">
  <advance width="1020"/>
  <unicode hex="0048"/>
  <outline>
    <contour>
      <point x="125.65962982177734" y="0" type="line"/>
      <point x="215.18470001220703" y="0" type="line"/>
      <point x="215.18470001220703" y="540.2374725341797" type="line"/>
      <point x="804.815299987793" y="540.2374725341797" type="line"/>
      <point x="804.815299987793" y="0" type="line"/>
      <point x="894.3403701782227" y="0" type="line"/>
      <point x="894.3403701782227" y="1170" type="line"/>
      <point x="804.815299987793" y="1170" type="line"/>
      <point x="804.815299987793" y="629.7625274658203" type="line"/>
      <point x="215.18470001220703" y="629.7625274658203" type="line"/>
      <point x="215.18470001220703" y="1170" type="line"/>
      <point x="125.65962982177734" y="1170" type="line"/>
    </contour>
  </outline>
</glyph>
<glyph name="I" format="2">
  <advance width="980"/>
  <unicode hex="0049"/>
  <outline>
    <contour>
      <point x="145" y="15" type="line"/>
      <point x="835" y="15" type="line"/>
      <point x="835" y="105" type="line"/>
      <point x="535" y="105" type="line"/>
      <point x="535" y="1065" type="line"/>
      <point x="835" y="1065" type="line"/>
      <point x="835" y="1155" type="line"/>
      <point x="145" y="1155" type="line"/>
      <point x="145" y="1065" type="line"/>
      <point x="445" y="1065" type="line"/>
      <point x="445" y="105" type="line"/>
      <point x="145" y="105" type="line"/>
    </contour>
  </outline>
</glyph>
<glyph name="J" format="2">
  <advance width="1020"/>
  <unicode hex="004A"/>
  <outline>
    <contour>
      <point x="120.65962982177734" y="364.34037017822266" type="line"/>
      <point x="120.65963000000002" y="152.2171499999999"/>
      <point x="292.87677999999994" y="-19.999999999999975"/>
      <point x="505.0" y="-20.0" type="curve" smooth="yes"/>
      <point x="664.0319859164899" y="-20.0"/>
      <point x="889.3403699377012" y="82.71686157778208"/>
      <point x="889.3403700094568" y="407.09037" type="curve"/>
      <point x="889.3403701782227" y="1170" type="line"/>
      <point x="799.815299987793" y="1170" type="line"/>
      <point x="799.815299987793" y="407.09037017822266" type="line"/>
      <point x="799.815299987793" y="136.45866791026378"/>
      <point x="619.1600896624816" y="69.52507"/>
      <point x="505.0" y="69.52507" type="curve" smooth="yes"/>
      <point x="342.2870099999999" y="69.52507000000001"/>
      <point x="210.1847" y="201.6273799999999"/>
      <point x="210.1847" y="364.34037" type="curve"/>
    </contour>
  </outline>
</glyph>
<glyph name="K" format="2">
  <advance width="1020"/>
  <unicode hex="004B"/>
  <outline>
    <contour>
      <point x="163.27835845947266" y="0" type="line"/>
      <point x="252.80342864990234" y="0" type="line"/>
      <point x="252.80342864990234" y="542.2955169677734" type="line"/>
      <point x="844.2519683837891" y="0" type="line"/>
      <point x="976.7216415405273" y="0" type="line"/>
      <point x="336.4533386230469" y="587.0580520629883" type="line"/>
      <point x="972.2324600219727" y="1170" type="line"/>
      <point x="839.7628021240234" y="1170" type="line"/>
      <point x="252.80342864990234" y="631.8205795288086" type="line"/>
      <point x="252.80342864990234" y="1170" type="line"/>
      <point x="163.27835845947266" y="1170" type="line"/>
    </contour>
  </outline>
</glyph>
<glyph name="L" format="2">
  <advance width="1020"/>
  <unicode hex="004C"/>
  <outline>
    <contour>
      <point x="166.53034210205078" y="0" type="line"/>
      <point x="873.4696578979492" y="0" type="line"/>
      <point x="873.4696578979492" y="89.52506256103516" type="line"/>
      <point x="256.05541229248047" y="89.52506256103516" type="line"/>
      <point x="256.05541229248047" y="1170" type="line"/>
      <point x="166.53034210205078" y="1170" type="line"/>
    </contour>
  </outline>
</glyph>
<glyph name="M" format="2">
  <advance width="1020"/>
  <unicode hex="004D"/>
  <outline>
    <contour>
      <point x="94.7889175415039" y="0" type="line"/>
      <point x="184.3139877319336" y="0" type="line"/>
      <point x="184.3139877319336" y="987.965690612793" type="line"/>
      <point x="465.23746490478516" y="416.7546157836914" type="line"/>
      <point x="554.7625350952148" y="416.7546157836914" type="line"/>
      <point x="835.6860122680664" y="987.965690612793" type="line"/>
      <point x="835.6860122680664" y="0" type="line"/>
      <point x="925.2110824584961" y="0" type="line"/>
      <point x="925.2110824584961" y="1170" type="line"/>
      <point x="825.4450302124023" y="1170" type="line"/>
      <point x="510" y="528.5951156616211" type="line"/>
      <point x="194.55496978759766" y="1170" type="line"/>
      <point x="94.7889175415039" y="1170" type="line"/>
    </contour>
  </outline>
</glyph>
<glyph name="N" format="2">
  <advance width="1020"/>
  <unicode hex="004E"/>
  <outline>
    <contour>
      <point x="124.72779083251953" y="0" type="line"/>
      <point x="214.46991729736328" y="0" type="line"/>
      <point x="214.46991729736328" y="996.8740539550781" type="line"/>
      <point x="805.5300827026367" y="0" type="line"/>
      <point x="895.2722091674805" y="0" type="line"/>
      <point x="895.2722091674805" y="1172.8366775512695" type="line"/>
      <point x="805.5300827026367" y="1172.8366775512695" type="line"/>
      <point x="805.5300827026367" y="175.9626235961914" type="line"/>
      <point x="214.46991729736328" y="1172.8366775512695" type="line"/>
      <point x="124.72779083251953" y="1172.8366775512695" type="line"/>
    </contour>
  </outline>
</glyph>
<glyph name="P" format="2">
  <advance width="980"/>
  <unicode hex="0050"/>
  <outline>
    <contour>
      <point x="135" y="15" type="line"/>
      <point x="225" y="15" type="line"/>
      <point x="225" y="405" type="line"/>
      <point x="510" y="405" type="line"/>
      <point x="716.9681325" y="405.0"/>
      <point x="885.0" y="573.0318675"/>
      <point x="885.0" y="780.0" type="curve" smooth="yes"/>
      <point x="885.0" y="986.9681325"/>
      <point x="716.9681325" y="1155.0"/>
      <point x="510.0" y="1155.0" type="curve"/>
      <point x="135" y="1155" type="line"/>
    </contour>
    <contour>
      <point x="510" y="1065" type="line"/>
      <point x="667.2957807" y="1065.0"/>
      <point x="795.0" y="937.2957807"/>
      <point x="795.0" y="780.0" type="curve" smooth="yes"/>
      <point x="795.0" y="622.7042193"/>
      <point x="667.2957807" y="495.0"/>
      <point x="510.0" y="495.0" type="curve"/>
      <point x="225" y="495" type="line"/>
      <point x="225" y="1065" type="line"/>
    </contour>
  </outline>
</glyph>
<glyph name="Q" format="2">
  <advance width="1020"/>
  <unicode hex="0051"/>
  <outline>
    <contour>
      <point x="840.2506637573242" y="399.7757263183594" type="line"/>
      <point x="840.25066" y="323.2880035783"/>
      <point x="814.1917787754179" y="252.83862895989364"/>
      <point x="770.4755249023438" y="196.83123016357422" type="curve"/>
      <point x="608.7474365234375" y="476.95250701904297" type="line"/>
      <point x="505.372802734375" y="476.95250701904297" type="line"/>
      <point x="704.1452255249023" y="132.66854858398438" type="line"/>
      <point x="649.6366092714721" y="92.95915503697904"/>
      <point x="582.5333722631999" y="69.52506999999999"/>
      <point x="509.99999999999994" y="69.52506999999994" type="curve" smooth="yes"/>
      <point x="327.7297" y="69.52507"/>
      <point x="179.74934" y="217.50543"/>
      <point x="179.74934" y="399.77573" type="curve"/>
      <point x="179.74933624267578" y="770.2242736816406" type="line"/>
      <point x="179.74934" y="952.49457"/>
      <point x="327.7297" y="1100.47493"/>
      <point x="510.0" y="1100.47493" type="curve" smooth="yes"/>
      <point x="692.2703" y="1100.47493"/>
      <point x="840.25066" y="952.49457"/>
      <point x="840.25066" y="770.22427" type="curve"/>
    </contour>
    <contour>
      <point x="90.22427368164062" y="399.7757263183594" type="line"/>
      <point x="90.22427" y="168.0952"/>
      <point x="278.31947" y="-20.0"/>
      <point x="510.0" y="-20.0" type="curve" smooth="yes"/>
      <point x="598.82052318875" y="-20.0"/>
      <point x="681.2350318899005" y="7.645553589887502"/>
      <point x="749.1009521484375" y="54.802947998046875" type="curve"/>
      <point x="780.7414474487305" y="0" type="line"/>
      <point x="884.1160888671875" y="0" type="line"/>
      <point x="817.9393005371094" y="114.6215591430664" type="line"/>
      <point x="887.3338914048077" y="189.5064153124639"/>
      <point x="929.7757300000001" y="289.72377136152005"/>
      <point x="929.7757300000001" y="399.77573000000007" type="curve"/>
      <point x="929.7757263183594" y="770.2242736816406" type="line"/>
      <point x="929.77573" y="1001.9048"/>
      <point x="741.68053" y="1190.0"/>
      <point x="510.0" y="1190.0" type="curve" smooth="yes"/>
      <point x="278.31947" y="1190.0"/>
      <point x="90.22427" y="1001.9048"/>
      <point x="90.22427" y="770.22427" type="curve"/>
    </contour>
  </outline>
</glyph>
<glyph name="R" format="2">
  <advance width="1020"/>
  <unicode hex="0052"/>
  <outline>
    <contour>
      <point x="131.99140167236328" y="0" type="line"/>
      <point x="221.73352813720703" y="0" type="line"/>
      <point x="221.73352813720703" y="402.2922668457031" type="line"/>
      <point x="532.7363891601562" y="402.2922668457031" type="line"/>
      <point x="537.6447015000558" y="402.29226361031516"/>
      <point x="542.5316988125941" y="402.3842476692425"/>
      <point x="547.395637512207" y="402.5757522583008" type="curve"/>
      <point x="810.7676849365234" y="0" type="line"/>
      <point x="918.0085983276367" y="0" type="line"/>
      <point x="644.1082992553711" y="418.6686325073242" type="line"/>
      <point x="802.5171757655646" y="466.48513073682295"/>
      <point x="918.0085959885386" y="613.6439916433283"/>
      <point x="918.0085959885386" y="787.56446991404" type="curve" smooth="yes"/>
      <point x="918.0085959885387" y="1000.2019873616046"/>
      <point x="745.3739071323782" y="1172.836676217765"/>
      <point x="532.7363896848137" y="1172.836676217765" type="curve"/>
      <point x="131.99140167236328" y="1172.8366775512695" type="line"/>
    </contour>
    <contour>
      <point x="532.7363891601562" y="1083.0945587158203" type="line"/>
      <point x="695.8438829879656" y="1083.0945558739254"/>
      <point x="828.2664756446991" y="950.6719632171919"/>
      <point x="828.2664756446991" y="787.56446991404" type="curve" smooth="yes"/>
      <point x="828.2664756446991" y="624.4569766108883"/>
      <point x="695.8438829879657" y="492.0343839541547"/>
      <point x="532.7363896848137" y="492.0343839541547" type="curve"/>
      <point x="221.73352813720703" y="492.03438568115234" type="line"/>
      <point x="221.73352813720703" y="1083.0945587158203" type="line"/>
    </contour>
  </outline>
</glyph>
<glyph name="T" format="2">
  <advance width="1020"/>
  <unicode hex="0054"/>
  <outline>
    <contour>
      <point x="465.2374725341797" y="0" type="line"/>
      <point x="554.7625274658203" y="0" type="line"/>
      <point x="554.7625274658203" y="1080.4749298095703" type="line"/>
      <point x="917.4934005737305" y="1080.4749298095703" type="line"/>
      <point x="917.4934005737305" y="1170" type="line"/>
      <point x="102.50659942626953" y="1170" type="line"/>
      <point x="102.50659942626953" y="1080.4749298095703" type="line"/>
      <point x="465.2374725341797" y="1080.4749298095703" type="line"/>
    </contour>
  </outline>
</glyph>
<glyph name="U" format="2">
  <advance width="1020"/>
  <unicode hex="0055"/>
  <outline>
    <contour>
      <point x="115.36939239501953" y="417.38060760498047" type="line"/>
      <point x="115.36939239501955" y="86.78536333887405"/>
      <point x="345.872800306651" y="-19.99999999999998"/>
      <point x="510.0" y="-20.0" type="curve" smooth="yes"/>
      <point x="674.127199693349" y="-20.0"/>
      <point x="904.6306108667608" y="86.78536561414268"/>
      <point x="904.6306098712711" y="417.38061" type="curve"/>
      <point x="904.6306076049805" y="1170" type="line"/>
      <point x="815.1055374145508" y="1170" type="line"/>
      <point x="815.1055374145508" y="417.38060760498047" type="line"/>
      <point x="815.1055374145508" y="140.38600918815263"/>
      <point x="629.1037383796569" y="69.52507"/>
      <point x="510.0" y="69.52507" type="curve" smooth="yes"/>
      <point x="390.8962616203431" y="69.52507000000001"/>
      <point x="204.8944592385582" y="140.3860114634212"/>
      <point x="204.89446013896432" y="417.38061" type="curve"/>
      <point x="204.89446258544922" y="1170" type="line"/>
      <point x="115.36939239501953" y="1170" type="line"/>
    </contour>
  </outline>
</glyph>
<glyph name="V" format="2">
  <advance width="1020"/>
  <unicode hex="0056"/>
  <outline>
    <contour>
      <point x="462.7181167602539" y="0" type="line"/>
      <point x="557.2818832397461" y="0" type="line"/>
      <point x="955.3100280761719" y="1170" type="line"/>
      <point x="860.7462692260742" y="1170" type="line"/>
      <point x="510" y="138.98464965820312" type="line"/>
      <point x="159.25373077392578" y="1170" type="line"/>
      <point x="64.68997192382812" y="1170" type="line"/>
    </contour>
  </outline>
</glyph>
<glyph name="W" format="2">
  <advance width="1020"/>
  <unicode hex="0057"/>
  <outline>
    <contour>
      <point x="260.1636276245117" y="0" type="line"/>
      <point x="351.25697326660156" y="0" type="line"/>
      <point x="510" y="911.3511276245117" type="line"/>
      <point x="668.7430267333984" y="0" type="line"/>
      <point x="759.8363723754883" y="0" type="line"/>
      <point x="964.1260757446289" y="1172.8366775512695" type="line"/>
      <point x="873.0327301025391" y="1172.8366775512695" type="line"/>
      <point x="714.2897033691406" y="261.4855651855469" type="line"/>
      <point x="555.5466690063477" y="1172.8366775512695" type="line"/>
      <point x="464.45333099365234" y="1172.8366775512695" type="line"/>
      <point x="305.7103042602539" y="261.4855651855469" type="line"/>
      <point x="146.96726989746094" y="1172.8366775512695" type="line"/>
      <point x="55.873924255371094" y="1172.8366775512695" type="line"/>
    </contour>
  </outline>
</glyph>
<glyph name="X" format="2">
  <advance width="1020"/>
  <unicode hex="0058"/>
  <outline>
    <contour>
      <point x="75.88060760498047" y="0" type="line"/>
      <point x="182.69448852539062" y="0" type="line"/>
      <point x="510" y="502.9352798461914" type="line"/>
      <point x="837.3055114746094" y="0" type="line"/>
      <point x="944.1193923950195" y="0" type="line"/>
      <point x="563.4069442749023" y="585" type="line"/>
      <point x="944.1193923950195" y="1170" type="line"/>
      <point x="837.3055114746094" y="1170" type="line"/>
      <point x="510" y="667.0647201538086" type="line"/>
      <point x="182.69448852539062" y="1170" type="line"/>
      <point x="75.88060760498047" y="1170" type="line"/>
      <point x="456.5930633544922" y="585" type="line"/>
    </contour>
  </outline>
</glyph>
<glyph name="Y" format="2">
  <advance width="1020"/>
  <unicode hex="0059"/>
  <outline>
    <contour>
      <point x="465.1289367675781" y="0" type="line"/>
      <point x="554.8710632324219" y="0" type="line"/>
      <point x="554.8710632324219" y="495.1289367675781" type="line"/>
      <point x="933.1805191040039" y="1172.8366775512695" type="line"/>
      <point x="830.4029235839844" y="1172.8366775512695" type="line"/>
      <point x="510" y="598.8633422851562" type="line"/>
      <point x="189.59707641601562" y="1172.8366775512695" type="line"/>
      <point x="86.8194808959961" y="1172.8366775512695" type="line"/>
      <point x="465.1289367675781" y="495.1289367675781" type="line"/>
    </contour>
  </outline>
</glyph>
<glyph name="Z" format="2">
  <advance width="1020"/>
  <unicode hex="005A"/>
  <outline>
    <contour>
      <point x="140.20057678222656" y="0" type="line"/>
      <point x="879.7994232177734" y="0" type="line"/>
      <point x="879.7994232177734" y="89.74211883544922" type="line"/>
      <point x="246.6233673095703" y="89.74211883544922" type="line"/>
      <point x="879.7994232177734" y="1083.0945587158203" type="line"/>
      <point x="879.7994232177734" y="1172.8366775512695" type="line"/>
      <point x="140.20057678222656" y="1172.8366775512695" type="line"/>
      <point x="140.20057678222656" y="1083.0945587158203" type="line"/>
      <point x="773.3766326904297" y="1083.0945587158203" type="line"/>
      <point x="140.20057678222656" y="89.74211883544922" type="line"/>
    </contour>
  </outline>
</glyph>
<glyph name="bracketleft" format="2">
  <advance width="1020"/>
  <unicode hex="005B"/>
  <outline>
    <contour>
      <point x="314.4555892944336" y="-89.74211883544922" type="line"/>
      <point x="775.5444107055664" y="-89.74211883544922" type="line"/>
      <point x="775.5444107055664" y="0" type="line"/>
      <point x="404.1977081298828" y="0" type="line"/>
      <point x="404.1977081298828" y="1172.8366775512695" type="line"/>
      <point x="775.5444107055664" y="1172.8366775512695" type="line"/>
      <point x="775.5444107055664" y="1262.5787963867188" type="line"/>
      <point x="314.4555892944336" y="1262.5787963867188" type="line"/>
    </contour>
  </outline>
</glyph>
<glyph name="backslash" format="2">
  <advance width="1020"/>
  <unicode hex="005C"/>
  <outline>
    <contour>
      <point x="772.5213350444199" y="0.0" type="line"/>
      <point x="312.9802346803526" y="1262.5787965616046" type="line"/>
      <point x="217.4786649555802" y="1262.5787965616046" type="line"/>
      <point x="677.0197653196474" y="0.0" type="line"/>
    </contour>
  </outline>
</glyph>
<glyph name="bracketright" format="2">
  <advance width="1020"/>
  <unicode hex="005D"/>
  <outline>
    <contour>
      <point x="705.5444107055664" y="-89.74211883544922" type="line"/>
      <point x="705.5444107055664" y="1262.5787963867188" type="line"/>
      <point x="244.4555892944336" y="1262.5787963867188" type="line"/>
      <point x="244.4555892944336" y="1172.8366775512695" type="line"/>
      <point x="615.8022918701172" y="1172.8366775512695" type="line"/>
      <point x="615.8022918701172" y="0" type="line"/>
      <point x="244.4555892944336" y="0" type="line"/>
      <point x="244.4555892944336" y="-89.74211883544922" type="line"/>
    </contour>
  </outline>
</glyph>
<glyph name="asciicircum" format="2">
  <advance width="980"/>
  <unicode hex="005E"/>
  <outline>
    <contour>
      <point x="268.75" y="705" type="line"/>
      <point x="365.1744918823242" y="705" type="line"/>
      <point x="490" y="1029.6197891235352" type="line"/>
      <point x="614.8255081176758" y="705" type="line"/>
      <point x="711.25" y="705" type="line"/>
      <point x="538.2122421264648" y="1155" type="line"/>
      <point x="441.78775787353516" y="1155" type="line"/>
    </contour>
  </outline>
</glyph>
<glyph name="underscore" format="2">
  <advance width="1020"/>
  <unicode hex="005F"/>
  <outline>
    <contour>
      <point x="109.2550143266476" y="-168.65329512893982" type="line"/>
      <point x="910.7449856733524" y="-168.65329512893982" type="line"/>
      <point x="910.7449856733524" y="-78.91117478510029" type="line"/>
      <point x="109.2550143266476" y="-78.91117478510029" type="line"/>
    </contour>
  </outline>
</glyph>
<glyph name="grave" format="2">
  <advance width="1020"/>
  <unicode hex="0060"/>
  <outline>
    <contour>
      <point x="630.4636185958182" y="1028.4240687679082" type="line"/>
      <point x="478.7262775116482" y="1296.6189111747851" type="line"/>
      <point x="389.53638140418195" y="1296.6189111747851" type="line"/>
      <point x="541.2737224883517" y="1028.4240687679082" type="line"/>
    </contour>
  </outline>
</glyph>
<glyph name="b" format="2">
  <advance width="1020"/>
  <unicode hex="0062"/>
  <outline>
    <contour>
      <point x="105.22427368164062" y="0" type="line"/>
      <point x="194.7493438720703" y="0" type="line"/>
      <point x="194.7493438720703" y="142.4869842529297" type="line"/>
      <point x="270.7493835910835" y="46.56883875153052"/>
      <point x="388.24134067280943" y="-15.000000000000007"/>
      <point x="520.0" y="-15.0" type="curve" smooth="yes"/>
      <point x="748.9209528865435" y="-15.000000000000078"/>
      <point x="934.7757255936676" y="170.8547727071239"/>
      <point x="934.7757255936676" y="399.7757255936676" type="curve" smooth="yes"/>
      <point x="934.7757255936676" y="628.6966784802111"/>
      <point x="748.9209528865435" y="814.5514511873351"/>
      <point x="520.0" y="814.5514511873351" type="curve" smooth="yes"/>
      <point x="388.24134067280943" y="814.5514511873351"/>
      <point x="270.7493835910835" y="752.9826124358046"/>
      <point x="194.7493438720703" y="657.0588836669922" type="curve"/>
      <point x="194.7493438720703" y="1170" type="line"/>
      <point x="105.22427368164062" y="1170" type="line"/>
    </contour>
    <contour>
      <point x="845.2506596306068" y="399.7757255936676" type="curve" smooth="yes"/>
      <point x="845.2506596306068" y="220.2650012786279"/>
      <point x="699.5107243150396" y="74.52506596306061"/>
      <point x="520.0" y="74.52506596306067" type="curve" smooth="yes"/>
      <point x="340.4892756849604" y="74.52506596306067"/>
      <point x="194.7493403693931" y="220.26500127862798"/>
      <point x="194.7493403693931" y="399.7757255936676" type="curve" smooth="yes"/>
      <point x="194.7493403693931" y="579.2864499087073"/>
      <point x="340.48927568496043" y="725.0263852242745"/>
      <point x="520.0" y="725.0263852242745" type="curve" smooth="yes"/>
      <point x="699.5107243150396" y="725.0263852242745"/>
      <point x="845.2506596306068" y="579.2864499087073"/>
    </contour>
  </outline>
</glyph>
<glyph name="c" format="2">
  <advance width="1020"/>
  <unicode hex="0063"/>
  <outline>
    <contour>
      <point x="529.859980480023" y="74.52506596306063" type="curve" smooth="yes"/>
      <point x="350.34925616498333" y="74.52506596306067"/>
      <point x="204.60932084941606" y="220.26500127862798"/>
      <point x="204.60932084941606" y="399.7757255936676" type="curve" smooth="yes"/>
      <point x="204.60932084941606" y="579.2864499087073"/>
      <point x="350.3492561649834" y="725.0263852242745"/>
      <point x="529.859980480023" y="725.0263852242745" type="curve" smooth="yes"/>
      <point x="653.5182765638542" y="725.0263852242745"/>
      <point x="761.151244741395" y="655.8680883153687"/>
      <point x="816.1576499033099" y="554.1292875989446" type="curve"/>
      <point x="914.9094173461592" y="554.1292875989446" type="line"/>
      <point x="853.6180027120715" y="706.7164184725813"/>
      <point x="704.2327330289493" y="814.5514511873351"/>
      <point x="529.859980480023" y="814.5514511873351" type="curve" smooth="yes"/>
      <point x="300.9390275934794" y="814.5514511873351"/>
      <point x="115.08425488635538" y="628.6966784802112"/>
      <point x="115.08425488635538" y="399.7757255936676" type="curve" smooth="yes"/>
      <point x="115.08425488635538" y="170.85477270712408"/>
      <point x="300.93902759347935" y="-15.00000000000002"/>
      <point x="529.8599804800228" y="-15.00000000000002" type="curve" smooth="yes"/>
      <point x="704.2386849737243" y="-15.000000000000062"/>
      <point x="853.6282007541868" y="92.84239440520211"/>
      <point x="914.9157451136446" y="245.42216358839053" type="curve"/>
      <point x="816.1651945491578" y="245.42216358839053" type="line"/>
      <point x="761.1612445325602" y="143.689788291544"/>
      <point x="653.5240209070321" y="74.5250659630606"/>
    </contour>
  </outline>
</glyph>
<glyph name="d" format="2">
  <advance width="1020"/>
  <unicode hex="0064"/>
  <outline>
    <contour>
      <point x="825.2506561279297" y="0" type="line"/>
      <point x="914.7757263183594" y="0" type="line"/>
      <point x="914.7757263183594" y="1170" type="line"/>
      <point x="825.2506561279297" y="1170" type="line"/>
      <point x="825.2506561279297" y="657.0644683837891" type="line"/>
      <point x="749.2506164089166" y="752.9826124358046"/>
      <point x="631.7586593271906" y="814.5514511873351"/>
      <point x="500.0" y="814.5514511873353" type="curve" smooth="yes"/>
      <point x="271.07904711345645" y="814.5514511873351"/>
      <point x="85.22427440633243" y="628.6966784802112"/>
      <point x="85.22427440633243" y="399.7757255936676" type="curve" smooth="yes"/>
      <point x="85.22427440633243" y="170.85477270712408"/>
      <point x="271.0790471134564" y="-15.00000000000002"/>
      <point x="499.99999999999994" y="-15.00000000000002" type="curve" smooth="yes"/>
      <point x="631.7586593271906" y="-15.000000000000053"/>
      <point x="749.2506164089166" y="46.56883875153042"/>
      <point x="825.2506561279297" y="142.49256896972656" type="curve"/>
    </contour>
    <contour>
      <point x="825.2506596306068" y="399.7757255936676" type="curve" smooth="yes"/>
      <point x="825.2506596306068" y="220.2650012786279"/>
      <point x="679.5107243150396" y="74.52506596306061"/>
      <point x="499.99999999999994" y="74.52506596306067" type="curve" smooth="yes"/>
      <point x="320.4892756849604" y="74.52506596306067"/>
      <point x="174.7493403693931" y="220.26500127862798"/>
      <point x="174.7493403693931" y="399.7757255936676" type="curve" smooth="yes"/>
      <point x="174.7493403693931" y="579.2864499087073"/>
      <point x="320.48927568496043" y="725.0263852242745"/>
      <point x="500.0" y="725.0263852242745" type="curve" smooth="yes"/>
      <point x="679.5107243150396" y="725.0263852242745"/>
      <point x="825.2506596306068" y="579.2864499087073"/>
    </contour>
  </outline>
</glyph>
<glyph name="e" format="2">
  <advance width="1020"/>
  <unicode hex="0065"/>
  <outline>
    <contour>
      <point x="884.9170481498136" y="222.26912928759896" type="curve"/>
      <point x="782.5162124633789" y="222.26912689208984" type="line"/>
      <point x="724.4413728584436" y="133.337888407964"/>
      <point x="624.0347261533018" y="74.52506596306058"/>
      <point x="509.9999999999999" y="74.52506596306064" type="curve" smooth="yes"/>
      <point x="344.1313726900061" y="74.52506596306067"/>
      <point x="207.09568416303838" y="198.95540228897818"/>
      <point x="187.225341796875" y="359.4894485473633" type="curve"/>
      <point x="832.7705841064453" y="359.4894485473633" type="line"/>
      <point x="832.7705841064453" y="359.48944091796875" type="line"/>
      <point x="922.8330841064453" y="359.48944091796875" type="line"/>
      <point x="924.1181733851386" y="372.6951988836723"/>
      <point x="924.7757255936674" y="386.15927839502314"/>
      <point x="924.7757255936674" y="399.77572559366763" type="curve" smooth="yes"/>
      <point x="924.7757255936676" y="628.6966784802111"/>
      <point x="738.9209528865435" y="814.5514511873351"/>
      <point x="510.0" y="814.5514511873351" type="curve" smooth="yes"/>
      <point x="281.07904711345645" y="814.5514511873351"/>
      <point x="95.22427440633243" y="628.6966784802112"/>
      <point x="95.22427440633243" y="399.7757255936676" type="curve" smooth="yes"/>
      <point x="95.22427440633243" y="170.85477270712408"/>
      <point x="281.0790471134564" y="-15.00000000000002"/>
      <point x="509.99999999999994" y="-15.00000000000002" type="curve" smooth="yes"/>
      <point x="675.4169070300989" y="-15.00000000000006"/>
      <point x="818.3471487831284" y="82.04259924143767"/>
    </contour>
    <contour>
      <point x="510.0" y="725.0263852242745" type="curve" smooth="yes"/>
      <point x="672.7510645608146" y="725.0263852242745"/>
      <point x="807.742856328741" y="605.2295210969394"/>
      <point x="831.5306930541992" y="449.01451110839844" type="curve"/>
      <point x="188.4602279663086" y="449.01451110839844" type="line"/>
      <point x="212.22289875605517" y="605.1991285294498"/>
      <point x="347.22829170588926" y="725.0263852242746"/>
    </contour>
  </outline>
</glyph>
<glyph name="f" format="2">
  <advance width="980"/>
  <unicode hex="0066"/>
  <outline>
    <contour>
      <point x="365" y="15" type="line"/>
      <point x="455" y="15" type="line"/>
      <point x="455" y="675" type="line"/>
      <point x="865" y="675" type="line"/>
      <point x="865" y="765" type="line"/>
      <point x="455" y="765" type="line"/>
      <point x="455" y="840" type="line"/>
      <point x="455.0" y="964.1808795000001"/>
      <point x="555.8191205" y="1065.0"/>
      <point x="680.0" y="1065.0" type="curve"/>
      <point x="865" y="1065" type="line"/>
      <point x="865" y="1155" type="line"/>
      <point x="680" y="1155" type="line"/>
      <point x="506.14676870000005" y="1155.0"/>
      <point x="365.0" y="1013.8532313000001"/>
      <point x="365.0" y="840.0" type="curve"/>
      <point x="365" y="765" type="line"/>
      <point x="115" y="765" type="line"/>
      <point x="115" y="675" type="line"/>
      <point x="365" y="675" type="line"/>
    </contour>
  </outline>
</glyph>
<glyph name="g" format="2">
  <advance width="1020"/>
  <unicode hex="0067"/>
  <outline>
    <contour>
      <point x="94.57019805908203" y="-69.41260528564453" type="line"/>
      <point x="94.57020057306593" y="-296.02195642091687"/>
      <point x="278.548244152149" y="-480.0"/>
      <point x="505.15759312320915" y="-480.0" type="curve" smooth="yes"/>
      <point x="731.7669420942692" y="-480.0"/>
      <point x="915.7449856733524" y="-296.02195642091704"/>
      <point x="915.7449856733524" y="-69.41260744985682" type="curve"/>
      <point x="915.744987487793" y="801.4899749755859" type="line"/>
      <point x="826.0028686523438" y="801.4899749755859" type="line"/>
      <point x="826.0028686523438" y="658.6408538818359" type="line"/>
      <point x="749.8252973393805" y="754.7813310689256"/>
      <point x="632.0621971642497" y="816.4899713467048"/>
      <point x="499.9999999999999" y="816.4899713467049" type="curve" smooth="yes"/>
      <point x="270.54409791719206" y="816.4899713467049"/>
      <point x="84.2550143266476" y="630.2008877561605"/>
      <point x="84.2550143266476" y="400.7449856733524" type="curve" smooth="yes"/>
      <point x="84.2550143266476" y="171.28908359054444"/>
      <point x="270.54409791719195" y="-15.000000000000018"/>
      <point x="499.99999999999994" y="-15.000000000000018" type="curve" smooth="yes"/>
      <point x="632.0621971642497" y="-15.000000000000052"/>
      <point x="749.8252973393804" y="46.708640277779104"/>
      <point x="826.0028686523438" y="142.8461685180664" type="curve"/>
      <point x="826.0028686523438" y="-69.41260528564453" type="line"/>
      <point x="826.0028653295129" y="-246.4919322765044"/>
      <point x="682.2369179498568" y="-390.25787965616047"/>
      <point x="505.15759312320915" y="-390.25787965616047" type="curve" smooth="yes"/>
      <point x="328.0782682965616" y="-390.25787965616047"/>
      <point x="184.3123209169055" y="-246.49193227650431"/>
      <point x="184.3123209169055" y="-69.41260744985671" type="curve"/>
    </contour>
    <contour>
      <point x="826.0028653295129" y="400.7449856733524" type="curve" smooth="yes"/>
      <point x="826.0028653295128" y="220.81910773495693"/>
      <point x="679.9258779383954" y="74.74212034383946"/>
      <point x="499.99999999999994" y="74.74212034383952" type="curve" smooth="yes"/>
      <point x="320.0741220616046" y="74.74212034383952"/>
      <point x="173.99713467048713" y="220.81910773495702"/>
      <point x="173.99713467048713" y="400.7449856733524" type="curve" smooth="yes"/>
      <point x="173.99713467048713" y="580.6708636117479"/>
      <point x="320.0741220616046" y="726.7478510028653"/>
      <point x="500.0" y="726.7478510028653" type="curve" smooth="yes"/>
      <point x="679.9258779383954" y="726.7478510028653"/>
      <point x="826.0028653295129" y="580.6708636117479"/>
    </contour>
  </outline>
</glyph>
<glyph name="h" format="2">
  <advance width="1020"/>
  <unicode hex="0068"/>
  <outline>
    <contour>
      <point x="142.9369659423828" y="0" type="line"/>
      <point x="232.67908477783203" y="0" type="line"/>
      <point x="232.67908477783203" y="439.4269332885742" type="line"/>
      <point x="232.6790830945559" y="598.0036636977078"/>
      <point x="361.4232703997135" y="726.7478510028653"/>
      <point x="520.0" y="726.7478510028653" type="curve" smooth="yes"/>
      <point x="678.5767296002865" y="726.7478510028653"/>
      <point x="807.3209169054442" y="598.0036636977078"/>
      <point x="807.3209169054442" y="439.42693409742117" type="curve"/>
      <point x="807.320915222168" y="0" type="line"/>
      <point x="897.0630340576172" y="0" type="line"/>
      <point x="897.0630340576172" y="439.4269332885742" type="line"/>
      <point x="897.0630372492836" y="647.5336878421203"/>
      <point x="728.1067537446992" y="816.4899713467049"/>
      <point x="520.0" y="816.4899713467049" type="curve" smooth="yes"/>
      <point x="404.94942983276553" y="816.4899713467049"/>
      <point x="301.8646719064228" y="764.8507661740621"/>
      <point x="232.67908477783203" y="683.4947509765625" type="curve"/>
      <point x="232.67908477783203" y="1172.8366775512695" type="line"/>
      <point x="142.9369659423828" y="1172.8366775512695" type="line"/>
    </contour>
  </outline>
</glyph>
<glyph name="i" format="2">
  <advance width="1020"/>
  <unicode hex="0069"/>
  <outline>
    <contour>
      <point x="621.8073878627968" y="1004.8416886543537" type="curve" smooth="yes"/>
      <point x="621.8073878627968" y="1049.992414762797"/>
      <point x="585.1507261084432" y="1086.6490765171504"/>
      <point x="540.0" y="1086.6490765171504" type="curve" smooth="yes"/>
      <point x="494.8492738915567" y="1086.6490765171504"/>
      <point x="458.1926121372031" y="1049.992414762797"/>
      <point x="458.1926121372031" y="1004.8416886543537" type="curve" smooth="yes"/>
      <point x="458.1926121372031" y="959.6909625459103"/>
      <point x="494.84927389155666" y="923.0343007915568"/>
      <point x="540.0" y="923.0343007915568" type="curve" smooth="yes"/>
      <point x="585.1507261084432" y="923.0343007915568"/>
      <point x="621.8073878627968" y="959.6909625459103"/>
    </contour>
    <contour>
      <point x="186.53034210205078" y="0" type="line"/>
      <point x="893.4696578979492" y="0" type="line"/>
      <point x="893.4696578979492" y="89.52506256103516" type="line"/>
      <point x="615.6332473754883" y="89.52506256103516" type="line"/>
      <point x="615.6332473754883" y="799.5514526367188" type="line"/>
      <point x="217.40105438232422" y="799.5514526367188" type="line"/>
      <point x="217.40105438232422" y="710.0263824462891" type="line"/>
      <point x="526.1081771850586" y="710.0263824462891" type="line"/>
      <point x="526.1081771850586" y="89.52506256103516" type="line"/>
      <point x="186.53034210205078" y="89.52506256103516" type="line"/>
    </contour>
  </outline>
</glyph>
<glyph name="j" format="2">
  <advance width="980"/>
  <unicode hex="006A"/>
  <outline>
    <contour>
      <point x="703.0" y="966.0" type="curve" smooth="yes"/>
      <point x="703.0" y="1010.70511662"/>
      <point x="666.70511662" y="1047.0"/>
      <point x="622.0" y="1047.0" type="curve" smooth="yes"/>
      <point x="577.29488338" y="1047.0"/>
      <point x="541.0" y="1010.70511662"/>
      <point x="541.0" y="966.0" type="curve" smooth="yes"/>
      <point x="541.0" y="921.29488338"/>
      <point x="577.29488338" y="885.0"/>
      <point x="622.0" y="885.0" type="curve" smooth="yes"/>
      <point x="666.70511662" y="885.0"/>
      <point x="703.0" y="921.29488338"/>
    </contour>
    <contour>
      <point x="167" y="-280" type="line"/>
      <point x="372" y="-280" type="line"/>
      <point x="534.8149309" y="-280.0"/>
      <point x="667.0" y="-147.81493089999998"/>
      <point x="667.0" y="15.000000000000018" type="curve"/>
      <point x="667" y="765" type="line"/>
      <point x="287" y="765" type="line"/>
      <point x="287" y="675" type="line"/>
      <point x="577" y="675" type="line"/>
      <point x="577" y="15" type="line"/>
      <point x="577.0" y="-98.14257909999999"/>
      <point x="485.14257910000003" y="-190.0"/>
      <point x="372.0" y="-190.0" type="curve"/>
      <point x="167" y="-190" type="line"/>
    </contour>
  </outline>
</glyph>
<glyph name="k" format="2">
  <advance width="1020"/>
  <unicode hex="006B"/>
  <outline>
    <contour>
      <point x="188.23782348632812" y="0" type="line"/>
      <point x="277.97994232177734" y="0" type="line"/>
      <point x="277.97994232177734" y="355.8739242553711" type="line"/>
      <point x="785.458869934082" y="0" type="line"/>
      <point x="941.7621765136719" y="0" type="line"/>
      <point x="370.2967758178711" y="400.74498748779297" type="line"/>
      <point x="941.7621765136719" y="801.4899749755859" type="line"/>
      <point x="785.458869934082" y="801.4899749755859" type="line"/>
      <point x="277.97994232177734" y="445.61605072021484" type="line"/>
      <point x="277.97994232177734" y="1172.8366775512695" type="line"/>
      <point x="188.23782348632812" y="1172.8366775512695" type="line"/>
    </contour>
  </outline>
</glyph>
<glyph name="l" format="2">
  <advance width="1020"/>
  <unicode hex="006C"/>
  <outline>
    <contour>
      <point x="166.53034210205078" y="0" type="line"/>
      <point x="873.4696578979492" y="0" type="line"/>
      <point x="873.4696578979492" y="89.52507019042969" type="line"/>
      <point x="595.6332473754883" y="89.52507019042969" type="line"/>
      <point x="595.6332473754883" y="1170" type="line"/>
      <point x="197.40106201171875" y="1170" type="line"/>
      <point x="197.40106201171875" y="1080.4749298095703" type="line"/>
      <point x="506.1081771850586" y="1080.4749298095703" type="line"/>
      <point x="506.1081771850586" y="89.52507019042969" type="line"/>
      <point x="166.53034210205078" y="89.52507019042969" type="line"/>
    </contour>
  </outline>
</glyph>
<glyph name="m" format="2">
  <advance width="980"/>
  <unicode hex="006D"/>
  <outline>
    <contour>
      <point x="90" y="15" type="line"/>
      <point x="180" y="15" type="line"/>
      <point x="180" y="540" type="line"/>
      <point x="180.0" y="614.5085277000001"/>
      <point x="240.4914723" y="675.0"/>
      <point x="315.0" y="675.0" type="curve" smooth="yes"/>
      <point x="389.5085277" y="675.0"/>
      <point x="450.0" y="614.5085277000001"/>
      <point x="450.0" y="540.0" type="curve"/>
      <point x="450" y="15" type="line"/>
      <point x="540" y="15" type="line"/>
      <point x="540" y="540" type="line"/>
      <point x="540.0" y="614.5085277000001"/>
      <point x="600.4914722999999" y="675.0"/>
      <point x="675.0" y="675.0" type="curve" smooth="yes"/>
      <point x="749.5085277000001" y="675.0"/>
      <point x="810.0" y="614.5085277000001"/>
      <point x="810.0" y="540.0" type="curve"/>
      <point x="810" y="15" type="line"/>
      <point x="900" y="15" type="line"/>
      <point x="900" y="540" type="line"/>
      <point x="900.0" y="664.1808795"/>
      <point x="799.1808795" y="765.0"/>
      <point x="675.0" y="765.0" type="curve" smooth="yes"/>
      <point x="601.4353711650796" y="765.0"/>
      <point x="536.0692380242903" y="729.6188831369531"/>
      <point x="495.0045700073242" y="674.9348602294922" type="curve"/>
      <point x="453.9404719734025" y="729.6136271289048"/>
      <point x="388.57009279361847" y="765.0000000000001"/>
      <point x="314.99999999999994" y="765.0" type="curve" smooth="yes"/>
      <point x="264.3656189265135" y="765.0"/>
      <point x="217.61530821014378" y="748.238053377546"/>
      <point x="180" y="719.9548110961914" type="curve"/>
      <point x="180" y="765" type="line"/>
      <point x="90" y="765" type="line"/>
    </contour>
  </outline>
</glyph>
<glyph name="n" format="2">
  <advance width="1020"/>
  <unicode hex="006E"/>
  <outline>
    <contour>
      <point x="134.81266021728516" y="0" type="line"/>
      <point x="224.33773040771484" y="0" type="line"/>
      <point x="224.33773040771484" y="438.36412048339844" type="line"/>
      <point x="224.33773" y="599.3369"/>
      <point x="355.02721" y="730.02639"/>
      <point x="516.0" y="730.02639" type="curve" smooth="yes"/>
      <point x="676.97279" y="730.02639"/>
      <point x="807.66227" y="599.3369"/>
      <point x="807.66227" y="438.36412" type="curve"/>
      <point x="807.6622695922852" y="0" type="line"/>
      <point x="897.1873397827148" y="0" type="line"/>
      <point x="897.1873397827148" y="438.36412048339844" type="line"/>
      <point x="897.18734" y="648.74713"/>
      <point x="726.38302" y="819.55145"/>
      <point x="516.0" y="819.55145" type="curve" smooth="yes"/>
      <point x="399.02472666678" y="819.55145"/>
      <point x="294.2851384682074" y="766.7475964333705"/>
      <point x="224.33773040771484" y="683.6863174438477" type="curve"/>
      <point x="224.33773040771484" y="799.5514526367188" type="line"/>
      <point x="134.81266021728516" y="799.5514526367188" type="line"/>
    </contour>
  </outline>
</glyph>
<glyph name="o" format="2">
  <advance width="980"/>
  <unicode hex="006F"/>
  <outline>
    <contour>
      <point x="865.0" y="390.0" type="curve" smooth="yes"/>
      <point x="865.0" y="596.9681325"/>
      <point x="696.9681325" y="765.0"/>
      <point x="490.0" y="765.0" type="curve" smooth="yes"/>
      <point x="283.0318675" y="765.0"/>
      <point x="115.0" y="596.9681325"/>
      <point x="115.0" y="390.0" type="curve" smooth="yes"/>
      <point x="115.0" y="183.03186750000003"/>
      <point x="283.0318674999999" y="15.0"/>
      <point x="489.99999999999994" y="15.0" type="curve" smooth="yes"/>
      <point x="696.9681324999999" y="14.999999999999943"/>
      <point x="865.0" y="183.03186749999992"/>
    </contour>
    <contour>
      <point x="775.0" y="390.0" type="curve" smooth="yes"/>
      <point x="775.0" y="232.70421929999992"/>
      <point x="647.2957807" y="104.99999999999994"/>
      <point x="489.99999999999994" y="105.0" type="curve" smooth="yes"/>
      <point x="332.7042193" y="105.0"/>
      <point x="205.0" y="232.7042193"/>
      <point x="205.0" y="390.0" type="curve" smooth="yes"/>
      <point x="205.0" y="547.2957807"/>
      <point x="332.7042193" y="675.0"/>
      <point x="490.0" y="675.0" type="curve" smooth="yes"/>
      <point x="647.2957807" y="675.0"/>
      <point x="775.0" y="547.2957807"/>
    </contour>
  </outline>
</glyph>
<glyph name="p" format="2">
  <advance width="980"/>
  <unicode hex="0070"/>
  <outline>
    <contour>
      <point x="125" y="-465" type="line"/>
      <point x="215" y="-465" type="line"/>
      <point x="215" y="146.38507080078125" type="line"/>
      <point x="283.80120149126685" y="65.98520504512153"/>
      <point x="385.99346692556736" y="14.999999999999993"/>
      <point x="499.9999999999999" y="15.000000000000014" type="curve" smooth="yes"/>
      <point x="706.9681324999999" y="14.999999999999943"/>
      <point x="875.0" y="183.03186749999992"/>
      <point x="875.0" y="390.0" type="curve" smooth="yes"/>
      <point x="875.0" y="596.9681325"/>
      <point x="706.9681325" y="765.0"/>
      <point x="500.0" y="765.0" type="curve" smooth="yes"/>
      <point x="385.9934669255675" y="765.0"/>
      <point x="283.8012014912669" y="714.0147949548784"/>
      <point x="215" y="633.6137161254883" type="curve"/>
      <point x="215" y="765" type="line"/>
      <point x="125" y="765" type="line"/>
    </contour>
    <contour>
      <point x="785.0" y="390.0" type="curve" smooth="yes"/>
      <point x="785.0" y="232.70421929999992"/>
      <point x="657.2957807" y="104.99999999999994"/>
      <point x="499.99999999999994" y="105.0" type="curve" smooth="yes"/>
      <point x="342.7042193" y="105.0"/>
      <point x="215.0" y="232.7042193"/>
      <point x="215.0" y="390.0" type="curve" smooth="yes"/>
      <point x="215.0" y="547.2957807"/>
      <point x="342.7042193" y="675.0"/>
      <point x="500.0" y="675.0" type="curve" smooth="yes"/>
      <point x="657.2957807" y="675.0"/>
      <point x="785.0" y="547.2957807"/>
    </contour>
  </outline>
</glyph>
<glyph name="r" format="2">
  <advance width="980"/>
  <unicode hex="0072"/>
  <outline>
    <contour>
      <point x="167.5" y="15" type="line"/>
      <point x="647.5" y="15" type="line"/>
      <point x="647.5" y="105" type="line"/>
      <point x="392.5" y="105" type="line"/>
      <point x="392.5" y="345" type="line"/>
      <point x="392.5" y="527.1319566000001"/>
      <point x="540.3680434" y="675.0"/>
      <point x="722.5" y="675.0" type="curve"/>
      <point x="872.5" y="675" type="line"/>
      <point x="872.5" y="765" type="line"/>
      <point x="722.5" y="765" type="line"/>
      <point x="588.7039440173704" y="765.0"/>
      <point x="469.4362257812966" y="702.3020570097179"/>
      <point x="392.5" y="604.7004089355469" type="curve"/>
      <point x="392.5" y="765" type="line"/>
      <point x="167.5" y="765" type="line"/>
      <point x="167.5" y="675" type="line"/>
      <point x="302.5" y="675" type="line"/>
      <point x="302.5" y="105" type="line"/>
      <point x="167.5" y="105" type="line"/>
    </contour>
  </outline>
</glyph>
<glyph name="s" format="2">
  <advance width="1020"/>
  <unicode hex="0073"/>
  <outline>
    <contour>
      <point x="113.37731170654297" y="216.73070526123047" type="line"/>
      <point x="113.37730840516906" y="88.83504867590706"/>
      <point x="288.8575542006836" y="-14.999999999999961"/>
      <point x="504.9999996980451" y="-14.99999999999999" type="curve" smooth="yes"/>
      <point x="721.1424451954065" y="-15.00000000000002"/>
      <point x="896.6226909909211" y="88.83504867590696"/>
      <point x="896.6226909909211" y="216.7307058047493" type="curve"/>
      <point x="896.6226909909211" y="328.0141239247835"/>
      <point x="763.690890909054" y="420.4793687735888"/>
      <point x="586.8701042034381" y="443.37285809277864" type="curve"/>
      <point x="436.8130645751953" y="462.8011703491211" type="line"/>
      <point x="315.68924013041965" y="478.4834145544479"/>
      <point x="225.66952476400812" y="530.2681612389108"/>
      <point x="225.66952476400814" y="593.1109828496043" type="curve"/>
      <point x="225.66952476400812" y="667.2659172361643"/>
      <point x="350.8333150382166" y="727.4703166226914"/>
      <point x="504.9999996980451" y="727.4703166226914" type="curve" smooth="yes"/>
      <point x="659.1666843578737" y="727.4703166226914"/>
      <point x="784.3304746320821" y="667.2659172361643"/>
      <point x="784.3304746320821" y="593.1109828496043" type="curve"/>
      <point x="881.1873321533203" y="593.1109848022461" type="line"/>
      <point x="881.1873347903934" y="715.3273033610325"/>
      <point x="712.6234402692852" y="814.5514511873351"/>
      <point x="504.9999996980451" y="814.5514511873351" type="curve" smooth="yes"/>
      <point x="297.376559126805" y="814.5514511873351"/>
      <point x="128.81266460569677" y="715.3273033610325"/>
      <point x="128.81266460569677" y="593.1109828496043" type="curve"/>
      <point x="128.81266460569677" y="486.85134736046876"/>
      <point x="256.3080583403352" y="398.55009803103434"/>
      <point x="425.9630869560946" y="376.5754764124083" type="curve"/>
      <point x="576.0191497802734" y="357.13941955566406" type="line"/>
      <point x="704.3193623910087" y="340.52129117687497"/>
      <point x="799.7658308326098" y="284.5512762052326"/>
      <point x="799.7658308326098" y="216.73070580474942" type="curve"/>
      <point x="799.7658308326098" y="136.89643480077504"/>
      <point x="667.6856892839949" y="72.08113456464379"/>
      <point x="504.9999996980451" y="72.08113456464382" type="curve" smooth="yes"/>
      <point x="342.3143101120952" y="72.08113456464385"/>
      <point x="210.2341685634804" y="136.89643480077513"/>
      <point x="210.2341685634804" y="216.73070580474942" type="curve"/>
    </contour>
  </outline>
</glyph>
<glyph name="t" format="2">
  <advance width="980"/>
  <unicode hex="0074"/>
  <outline>
    <contour>
      <point x="330" y="310" type="line"/>
      <point x="330.0" y="147.18506910000002"/>
      <point x="462.18506909999996" y="15.0"/>
      <point x="625.0" y="15.0" type="curve"/>
      <point x="817.5" y="15" type="line"/>
      <point x="817.5" y="105" type="line"/>
      <point x="625" y="105" type="line"/>
      <point x="511.85742089999997" y="105.0"/>
      <point x="420.0" y="196.85742090000002"/>
      <point x="420.0" y="310.0" type="curve"/>
      <point x="420" y="675" type="line"/>
      <point x="817.5" y="675" type="line"/>
      <point x="817.5" y="765" type="line"/>
      <point x="420" y="765" type="line"/>
      <point x="420" y="985" type="line"/>
      <point x="330" y="985" type="line"/>
      <point x="330" y="765" type="line"/>
      <point x="112.5" y="765" type="line"/>
      <point x="112.5" y="675" type="line"/>
      <point x="330" y="675" type="line"/>
    </contour>
  </outline>
</glyph>
<glyph name="u" format="2">
  <advance width="1020"/>
  <unicode hex="0075"/>
  <outline>
    <contour>
      <point x="130.4369659423828" y="362.0630340576172" type="line"/>
      <point x="130.43696275071636" y="153.95628350458455"/>
      <point x="299.3932462553008" y="-15.000000000000018"/>
      <point x="507.49999999999994" y="-15.000000000000018" type="curve" smooth="yes"/>
      <point x="622.5505701672344" y="-15.000000000000018"/>
      <point x="725.6353280935771" y="36.639205172642804"/>
      <point x="794.820915222168" y="117.9952163696289" type="curve"/>
      <point x="794.820915222168" y="0" type="line"/>
      <point x="884.5630340576172" y="0" type="line"/>
      <point x="884.5630340576172" y="801.4899749755859" type="line"/>
      <point x="794.820915222168" y="801.4899749755859" type="line"/>
      <point x="794.820915222168" y="362.0630340576172" type="line"/>
      <point x="794.8209169054442" y="203.48630764899704"/>
      <point x="666.0767296002865" y="74.74212034383952"/>
      <point x="507.49999999999994" y="74.74212034383952" type="curve" smooth="yes"/>
      <point x="348.9232703997135" y="74.74212034383952"/>
      <point x="220.1790830945559" y="203.48630764899713"/>
      <point x="220.1790830945559" y="362.0630372492837" type="curve"/>
      <point x="220.17908477783203" y="801.4899749755859" type="line"/>
      <point x="130.4369659423828" y="801.4899749755859" type="line"/>
    </contour>
  </outline>
</glyph>
<glyph name="v" format="2">
  <advance width="1020"/>
  <unicode hex="0076"/>
  <outline>
    <contour>
      <point x="460.74017333984375" y="0" type="line"/>
      <point x="559.2598266601562" y="0" type="line"/>
      <point x="926.5616836547852" y="799.5514526367188" type="line"/>
      <point x="828.0420227050781" y="799.5514526367188" type="line"/>
      <point x="510" y="107.22997283935547" type="line"/>
      <point x="191.95797729492188" y="799.5514526367188" type="line"/>
      <point x="93.43831634521484" y="799.5514526367188" type="line"/>
    </contour>
  </outline>
</glyph>
<glyph name="w" format="2">
  <advance width="1020"/>
  <unicode hex="0077"/>
  <outline>
    <contour>
      <point x="259.7867126464844" y="0" type="line"/>
      <point x="352.38771057128906" y="0" type="line"/>
      <point x="510" y="619.50341796875" type="line"/>
      <point x="667.6122894287109" y="0" type="line"/>
      <point x="760.2132873535156" y="0" type="line"/>
      <point x="964.1260757446289" y="801.4899749755859" type="line"/>
      <point x="871.5250701904297" y="801.4899749755859" type="line"/>
      <point x="713.9127883911133" y="181.98655700683594" type="line"/>
      <point x="556.3004989624023" y="801.4899749755859" type="line"/>
      <point x="463.69950103759766" y="801.4899749755859" type="line"/>
      <point x="306.0872116088867" y="181.98655700683594" type="line"/>
      <point x="148.4749298095703" y="801.4899749755859" type="line"/>
      <point x="55.873924255371094" y="801.4899749755859" type="line"/>
    </contour>
  </outline>
</glyph>
<glyph name="x" format="2">
  <advance width="980"/>
  <unicode hex="0078"/>
  <outline>
    <contour>
      <point x="115" y="15" type="line"/>
      <point x="232.7152862548828" y="15" type="line"/>
      <point x="490" y="320.18456268310547" type="line"/>
      <point x="747.2847137451172" y="15" type="line"/>
      <point x="865" y="15" type="line"/>
      <point x="548.8576431274414" y="390" type="line"/>
      <point x="865" y="765" type="line"/>
      <point x="747.2847137451172" y="765" type="line"/>
      <point x="490" y="459.81543731689453" type="line"/>
      <point x="232.7152862548828" y="765" type="line"/>
      <point x="115" y="765" type="line"/>
      <point x="431.1423568725586" y="390" type="line"/>
    </contour>
  </outline>
</glyph>
<glyph name="y" format="2">
  <advance width="980"/>
  <unicode hex="0079"/>
  <outline>
    <contour>
      <point x="212.8749542236328" y="-465" type="line"/>
      <point x="312.45853424072266" y="-465" type="line"/>
      <point x="895" y="765" type="line"/>
      <point x="795.4164199829102" y="765" type="line"/>
      <point x="490" y="120.13225555419922" type="line"/>
      <point x="184.58358001708984" y="765" type="line"/>
      <point x="85" y="765" type="line"/>
      <point x="440.20821380615234" y="15.000007629394531" type="line"/>
    </contour>
  </outline>
</glyph>
<glyph name="z" format="2">
  <advance width="980"/>
  <unicode hex="007A"/>
  <outline>
    <contour>
      <point x="120" y="15" type="line"/>
      <point x="840" y="15" type="line"/>
      <point x="840" y="105" type="line"/>
      <point x="249.5792236328125" y="105" type="line"/>
      <point x="840" y="675" type="line"/>
      <point x="840" y="765" type="line"/>
      <point x="120" y="765" type="line"/>
      <point x="120" y="675" type="line"/>
      <point x="710.4207763671875" y="675" type="line"/>
      <point x="120" y="105" type="line"/>
    </contour>
  </outline>
</glyph>
<glyph name="braceleft" format="2">
  <advance width="1020"/>
  <unicode hex="007B"/>
  <outline>
    <contour>
      <point x="465.2374720545417" y="222.31463623046875" type="line"/>
      <point x="465.23747492130195" y="-33.19889961427896"/>
      <point x="631.2669603194233" y="-44.762531317154604"/>
      <point x="732.31464" y="-44.76252903412348" type="curve"/>
      <point x="801.7282333374023" y="-44.76252746582031" type="line"/>
      <point x="801.7282333374023" y="44.76252746582031" type="line"/>
      <point x="728.7403451774783" y="44.762527465820305" type="line"/>
      <point x="562.9701742650175" y="44.76252746582033"/>
      <point x="554.7625304127982" y="142.77204548109108"/>
      <point x="554.762529520362" y="222.31464" type="curve"/>
      <point x="554.7625279454583" y="362.68536376953125" type="line"/>
      <point x="554.7625271480797" y="433.75549722274235"/>
      <point x="552.9953874491752" y="518.9069317482365"/>
      <point x="464.8347625732422" y="584.992431640625" type="curve"/>
      <point x="552.9953860597961" y="651.102377962054"/>
      <point x="554.7625303178288" y="736.2366408211625"/>
      <point x="554.762529520362" y="807.31464" type="curve"/>
      <point x="554.7625279053561" y="951.2596548225216" type="line"/>
      <point x="554.7625260454809" y="1117.0298257349823"/>
      <point x="652.7720454810911" y="1125.2374691687228"/>
      <point x="732.31464" y="1125.2374709658766" type="curve"/>
      <point x="801.7282333374023" y="1125.2374725341797" type="line"/>
      <point x="801.7282333374023" y="1214.7625274658203" type="line"/>
      <point x="732.3146362304688" y="1214.7625274658203" type="line"/>
      <point x="476.80110038572104" y="1214.7625274658203"/>
      <point x="465.2374693459232" y="1048.7330396805767"/>
      <point x="465.237470479638" y="947.68536" type="curve"/>
      <point x="465.2374720946438" y="803.7403451774783" type="line"/>
      <point x="465.2374739545192" y="637.9701742650176"/>
      <point x="367.2279545189089" y="629.7625308312772"/>
      <point x="287.68536" y="629.7625290341234" type="curve"/>
      <point x="218.27176666259766" y="629.7625274658203" type="line"/>
      <point x="218.27176666259766" y="540.2374725341797" type="line"/>
      <point x="287.68536376953125" y="540.2374725341797" type="line"/>
      <point x="362.696305634651" y="540.2374725341797"/>
      <point x="465.2374685469228" y="534.9477205181374"/>
      <point x="465.23747043953585" y="366.25965112684287" type="curve"/>
    </contour>
  </outline>
</glyph>
<glyph name="bar" format="2">
  <advance width="1020"/>
  <unicode hex="007C"/>
  <outline>
    <contour>
      <point x="465.1289398280802" y="-89.74212034383953" type="line"/>
      <point x="554.8710601719197" y="-89.74212034383953" type="line"/>
      <point x="554.8710601719197" y="1262.5787965616046" type="line"/>
      <point x="465.1289398280802" y="1262.5787965616046" type="line"/>
    </contour>
  </outline>
</glyph>
<glyph name="braceright" format="2">
  <advance width="1020"/>
  <unicode hex="007D"/>
  <outline>
    <contour>
      <point x="330" y="-89.74211883544922" type="line"/>
      <point x="454.10971567220633" y="-89.74212034383953"/>
      <point x="554.8710601719198" y="11.01922415587392"/>
      <point x="554.8710601719198" y="135.12893982808023" type="curve"/>
      <point x="554.8710632324219" y="406.4183349609375" type="line"/>
      <point x="554.8710601719198" y="480.9980296366762"/>
      <point x="615.4203084722063" y="541.5472779369627"/>
      <point x="690.0" y="541.5472779369627" type="curve"/>
      <point x="802.4355316162109" y="541.5472793579102" type="line"/>
      <point x="802.4355316162109" y="631.2893981933594" type="line"/>
      <point x="690" y="631.2893981933594" type="line"/>
      <point x="615.4203084722063" y="631.2893982808023"/>
      <point x="554.8710601719198" y="691.8386465810888"/>
      <point x="554.8710601719198" y="766.4183381088825" type="curve"/>
      <point x="554.8710632324219" y="1037.7077331542969" type="line"/>
      <point x="554.8710601719198" y="1161.8174520618911"/>
      <point x="454.10971567220633" y="1262.5787965616046"/>
      <point x="330.00000000000006" y="1262.5787965616046" type="curve"/>
      <point x="217.56446838378906" y="1262.5787963867188" type="line"/>
      <point x="217.56446838378906" y="1172.8366775512695" type="line"/>
      <point x="330" y="1172.8366775512695" type="line"/>
      <point x="404.57969152779367" y="1172.836676217765"/>
      <point x="465.12893982808026" y="1112.2874279174785"/>
      <point x="465.12893982808026" y="1037.7077363896847" type="curve"/>
      <point x="465.1289367675781" y="766.4183349609375" type="line"/>
      <point x="465.12893982808026" y="692.8238830192932"/>
      <point x="500.55905634244965" y="627.4392777999042"/>
      <point x="555.2781448364258" y="586.4242858886719" type="curve"/>
      <point x="500.5590563424497" y="545.3973984178608"/>
      <point x="465.1289398280803" y="480.01279319847174"/>
      <point x="465.1289398280803" y="406.41833810888266" type="curve"/>
      <point x="465.1289367675781" y="135.12893676757812" type="line"/>
      <point x="465.12893982808026" y="60.54924830028657"/>
      <point x="404.5796915277938" y="0.0"/>
      <point x="330.00000000000006" y="0.0" type="curve"/>
      <point x="217.56446838378906" y="0" type="line"/>
      <point x="217.56446838378906" y="-89.74211883544922" type="line"/>
    </contour>
  </outline>
</glyph>
<glyph name="tilde" format="2">
  <advance width="1020"/>
  <unicode hex="007E"/>
  <outline>
    <contour>
      <point x="576.0953979528891" y="500.76986682661044" type="curve"/>
      <point x="491.1830935396599" y="549.7940069118315" type="line"/>
      <point x="425.54737641913425" y="587.6888045262191"/>
      <point x="386.58324590082503" y="601.88816"/>
      <point x="339.5151" y="601.88816" type="curve"/>
      <point x="212.96604999999994" y="601.88816"/>
      <point x="110.22427000000002" y="499.14638"/>
      <point x="110.22427" y="372.59733" type="curve"/>
      <point x="199.74933624267578" y="372.59732818603516" type="line"/>
      <point x="199.7493399999999" y="449.7361482575684"/>
      <point x="262.37627999999995" y="512.36309"/>
      <point x="339.5151" y="512.36309" type="curve"/>
      <point x="377.13046250135835" y="512.36309"/>
      <point x="403.3319454534686" y="497.14025659808067"/>
      <point x="443.9046019412453" y="473.71562299002943" type="curve"/>
      <point x="528.8169065739226" y="424.6914821765007" type="line"/>
      <point x="594.4526235123337" y="386.79668420222356"/>
      <point x="633.416754099175" y="372.59733"/>
      <point x="680.4849" y="372.59733" type="curve"/>
      <point x="807.0339500000001" y="372.59733"/>
      <point x="909.77573" y="475.33910999999995"/>
      <point x="909.77573" y="601.88816" type="curve"/>
      <point x="820.2506637573242" y="601.8881607055664" type="line"/>
      <point x="820.2506600000005" y="524.749339744873"/>
      <point x="757.62372" y="462.1224"/>
      <point x="680.4849" y="462.1224" type="curve"/>
      <point x="642.8695374986416" y="462.1224"/>
      <point x="616.6680545651399" y="477.3452334341541"/>
    </contour>
  </outline>
</glyph>
<glyph name="invertedexclam" format="2">
  <advance width="980"/>
  <unicode hex="00A1"/>
  <outline>
    <contour>
      <point x="385.0" y="660.0" type="curve" smooth="yes"/>
      <point x="385.0" y="602.0489229"/>
      <point x="432.0489229" y="555.0"/>
      <point x="490.0" y="555.0" type="curve" smooth="yes"/>
      <point x="547.9510771" y="555.0"/>
      <point x="595.0" y="602.0489229"/>
      <point x="595.0" y="660.0" type="curve" smooth="yes"/>
      <point x="595.0" y="717.9510771"/>
      <point x="547.9510771" y="765.0"/>
      <point x="490.0" y="765.0" type="curve" smooth="yes"/>
      <point x="432.04892290000004" y="765.0"/>
      <point x="385.0" y="717.9510771"/>
    </contour>
    <contour>
      <point x="535.0" y="449.0" type="line"/>
      <point x="445.0" y="449.0" type="line"/>
      <point x="444.9999999999999" y="-375.0" type="line"/>
      <point x="534.9999999999999" y="-375.0" type="line"/>
    </contour>
  </outline>
</glyph>
<glyph name="cent" format="2">
  <advance width="1020"/>
  <unicode hex="00A2"/>
  <outline>
    <contour>
      <point x="486.39891815185547" y="-123.48284912109375" type="line"/>
      <point x="562.9428482055664" y="-123.48284912109375" type="line"/>
      <point x="562.9428482055664" y="-18.27155303955078" type="line"/>
      <point x="723.4655729154018" y="-3.7392511543851814"/>
      <point x="858.0273759322" y="101.32832239579999"/>
      <point x="915.10484" y="245.42215999999993" type="curve"/>
      <point x="816.6501998901367" y="245.42215728759766" type="line"/>
      <point x="766.87241500496" y="151.53181845624"/>
      <point x="673.1329966605826" y="84.4630927263416"/>
      <point x="562.9428482055664" y="71.73383331298828" type="curve"/>
      <point x="562.9428482055664" y="727.8245162963867" type="line"/>
      <point x="673.1336204524921" y="715.0883641458367"/>
      <point x="766.87360807127" y="648.0190000206999"/>
      <point x="816.65126" y="554.1292899999999" type="curve"/>
      <point x="915.1045684814453" y="554.1292877197266" type="line"/>
      <point x="858.0269853975" y="698.2233964893001"/>
      <point x="723.4653197503906" y="803.2907403094335"/>
      <point x="562.9428482055664" y="817.8185348510742" type="curve"/>
      <point x="562.9428482055664" y="923.0343017578125" type="line"/>
      <point x="486.39891815185547" y="923.0343017578125" type="line"/>
      <point x="486.39891815185547" y="817.8241271972656" type="line"/>
      <point x="272.6258020307159" y="798.4685184222698"/>
      <point x="104.89515999999995" y="618.5553519243199"/>
      <point x="104.89515999999995" y="399.77572999999995" type="curve" smooth="yes"/>
      <point x="104.89516" y="180.99609863251996"/>
      <point x="272.62580203071593" y="1.0829316087372831"/>
      <point x="486.39891815185547" y="-18.266952514648438" type="curve"/>
    </contour>
    <contour>
      <point x="194.42023000000006" y="399.77573000000007" type="curve" smooth="yes"/>
      <point x="194.42023" y="569.1022869158"/>
      <point x="322.12949863863986" y="708.8361116672585"/>
      <point x="486.39891815185547" y="727.8221130371094" type="curve"/>
      <point x="486.39891815185547" y="71.72557830810547" type="line"/>
      <point x="322.1294986386399" y="90.71534833274154"/>
      <point x="194.42023000000012" y="230.4491730842"/>
    </contour>
  </outline>
</glyph>
<glyph name="pound" format="2">
  <advance width="1020"/>
  <unicode hex="00A3"/>
  <outline>
    <contour>
      <point x="110.22427368164062" y="0" type="line"/>
      <point x="909.7757263183594" y="0" type="line"/>
      <point x="909.7757263183594" y="89.52507019042969" type="line"/>
      <point x="323.23219299316406" y="89.52507019042969" type="line"/>
      <point x="323.23219299316406" y="484.4391174316406" type="line"/>
      <point x="693.6807403564453" y="484.4391174316406" type="line"/>
      <point x="693.6807403564453" y="560.9830474853516" type="line"/>
      <point x="323.23219299316406" y="560.9830474853516" type="line"/>
      <point x="323.23219299316406" y="851.9656982421875" type="line"/>
      <point x="323.23219" y="989.12168"/>
      <point x="434.58545" y="1100.47493"/>
      <point x="571.74142" y="1100.47493" type="curve" smooth="yes"/>
      <point x="708.8974" y="1100.47493"/>
      <point x="820.25066" y="989.12168"/>
      <point x="820.25066" y="851.9657" type="curve"/>
      <point x="909.7757263183594" y="851.9656982421875" type="line"/>
      <point x="909.77573" y="1038.53191"/>
      <point x="758.30763" y="1190.0"/>
      <point x="571.74142" y="1190.0" type="curve" smooth="yes"/>
      <point x="385.17522" y="1190.0"/>
      <point x="233.70712" y="1038.53191"/>
      <point x="233.70712" y="851.9657" type="curve"/>
      <point x="233.70712280273438" y="560.9830474853516" type="line"/>
      <point x="110.22427368164062" y="560.9830474853516" type="line"/>
      <point x="110.22427368164062" y="484.4391174316406" type="line"/>
      <point x="233.70712280273438" y="484.4391174316406" type="line"/>
      <point x="233.70712280273438" y="89.52507019042969" type="line"/>
      <point x="110.22427368164062" y="89.52507019042969" type="line"/>
    </contour>
  </outline>
</glyph>
<glyph name="currency" format="2">
  <advance width="980"/>
  <unicode hex="00A4"/>
  <outline>
    <contour>
      <point x="773.75" y="585.0" type="curve" smooth="yes"/>
      <point x="773.75" y="647.0820189065823"/>
      <point x="753.7692515076502" y="704.5341082065293"/>
      <point x="719.8932723999023" y="751.253662109375" type="curve"/>
      <point x="899.2380523681641" y="930.5984420776367" type="line"/>
      <point x="835.5984420776367" y="994.2380523681641" type="line"/>
      <point x="656.2538528442383" y="814.8934631347656" type="line"/>
      <point x="609.5201951858547" y="848.7740898761751"/>
      <point x="552.07450182401" y="868.75"/>
      <point x="490.0000000000001" y="868.7499999999999" type="curve" smooth="yes"/>
      <point x="427.925654781877" y="868.75"/>
      <point x="370.48009467018636" y="848.7741906692893"/>
      <point x="323.746337890625" y="814.8932723999023" type="curve"/>
      <point x="144.40155792236328" y="994.2380523681641" type="line"/>
      <point x="80.76194763183594" y="930.5984420776367" type="line"/>
      <point x="260.1065368652344" y="751.2538528442383" type="line"/>
      <point x="226.23064768702983" y="704.5338183533166"/>
      <point x="206.25000000000006" y="647.0818623006954"/>
      <point x="206.25000000000006" y="584.9999999999999" type="curve" smooth="yes"/>
      <point x="206.25" y="522.9179810934177"/>
      <point x="226.2307484923498" y="465.4658917934707"/>
      <point x="260.10672760009766" y="418.746337890625" type="curve"/>
      <point x="80.76194763183594" y="239.40155792236328" type="line"/>
      <point x="144.40155792236328" y="175.76194763183594" type="line"/>
      <point x="323.7461471557617" y="355.1065368652344" type="line"/>
      <point x="370.47980481414527" y="321.22591012382486"/>
      <point x="427.92549817598996" y="301.24999999999994"/>
      <point x="489.99999999999994" y="301.24999999999994" type="curve" smooth="yes"/>
      <point x="552.074345218123" y="301.25"/>
      <point x="609.5199053298136" y="321.22580933071066"/>
      <point x="656.253662109375" y="355.10672760009766" type="curve"/>
      <point x="835.5984420776367" y="175.76194763183594" type="line"/>
      <point x="899.2380523681641" y="239.40155792236328" type="line"/>
      <point x="719.8934631347656" y="418.7461471557617" type="line"/>
      <point x="753.7693523129702" y="465.4661816466833"/>
      <point x="773.75" y="522.9181376993046"/>
    </contour>
    <contour>
      <point x="683.75" y="585.0" type="curve" smooth="yes"/>
      <point x="683.75" y="478.06646487499995"/>
      <point x="596.9335351249999" y="391.25"/>
      <point x="490.0" y="391.25" type="curve" smooth="yes"/>
      <point x="383.06646487499995" y="391.25"/>
      <point x="296.25" y="478.066464875"/>
      <point x="296.25" y="585.0" type="curve" smooth="yes"/>
      <point x="296.25" y="691.933535125"/>
      <point x="383.066464875" y="778.75"/>
      <point x="490.0" y="778.75" type="curve" smooth="yes"/>
      <point x="596.933535125" y="778.75"/>
      <point x="683.75" y="691.933535125"/>
    </contour>
  </outline>
</glyph>
<glyph name="yen" format="2">
  <advance width="1020"/>
  <unicode hex="00A5"/>
  <outline>
    <contour>
      <point x="109.25501251220703" y="280.0650405883789" type="line"/>
      <point x="465.1289367675781" y="280.0650405883789" type="line"/>
      <point x="465.1289367675781" y="0" type="line"/>
      <point x="554.8710632324219" y="0" type="line"/>
      <point x="554.8710632324219" y="280.0650405883789" type="line"/>
      <point x="910.744987487793" y="280.0650405883789" type="line"/>
      <point x="910.744987487793" y="356.7945556640625" type="line"/>
      <point x="554.8710632324219" y="356.7945556640625" type="line"/>
      <point x="554.8710632324219" y="495.1289367675781" type="line"/>
      <point x="910.744987487793" y="495.1289367675781" type="line"/>
      <point x="910.744987487793" y="571.8584518432617" type="line"/>
      <point x="597.7029495239258" y="571.8584518432617" type="line"/>
      <point x="933.1805191040039" y="1172.8366775512695" type="line"/>
      <point x="830.4029235839844" y="1172.8366775512695" type="line"/>
      <point x="510" y="598.8633422851562" type="line"/>
      <point x="189.59707641601562" y="1172.8366775512695" type="line"/>
      <point x="86.8194808959961" y="1172.8366775512695" type="line"/>
      <point x="422.2970504760742" y="571.8584518432617" type="line"/>
      <point x="109.25501251220703" y="571.8584518432617" type="line"/>
      <point x="109.25501251220703" y="495.1289367675781" type="line"/>
      <point x="465.1289367675781" y="495.1289367675781" type="line"/>
      <point x="465.1289367675781" y="356.7945556640625" type="line"/>
      <point x="109.25501251220703" y="356.7945556640625" type="line"/>
    </contour>
  </outline>
</glyph>
<glyph name="brokenbar" format="2">
  <advance width="1020"/>
  <unicode hex="00A6"/>
  <outline>
    <contour>
      <point x="465.23746701846966" y="642.4967018469657" type="line"/>
      <point x="554.7625329815304" y="642.4967018469657" type="line"/>
      <point x="554.7625329815304" y="1259.5250659630608" type="line"/>
      <point x="465.23746701846966" y="1259.5250659630608" type="line"/>
    </contour>
    <contour>
      <point x="465.23746701846966" y="-89.5250659630607" type="line"/>
      <point x="554.7625329815304" y="-89.5250659630607" type="line"/>
      <point x="554.7625329815304" y="527.5032981530344" type="line"/>
      <point x="465.23746701846966" y="527.5032981530344" type="line"/>
    </contour>
  </outline>
</glyph>
<glyph name="section" format="2">
  <advance width="1020"/>
  <unicode hex="00A7"/>
  <outline>
    <contour>
      <point x="851.12137" y="948.43228" type="line"/>
      <point x="851.12137" y="1081.5145"/>
      <point x="698.61308" y="1190.0"/>
      <point x="510.0" y="1190.0" type="curve" smooth="yes"/>
      <point x="321.38692" y="1190.0"/>
      <point x="168.87863" y="1081.5145"/>
      <point x="168.87863" y="948.43228" type="curve"/>
      <point x="258.40369" y="948.43228" type="line"/>
      <point x="258.40369" y="1032.12587"/>
      <point x="370.75012" y="1100.47493"/>
      <point x="510.0" y="1100.47493" type="curve" smooth="yes"/>
      <point x="649.24988" y="1100.47493"/>
      <point x="761.59631" y="1032.12587"/>
      <point x="761.59631" y="948.43228" type="curve"/>
    </contour>
    <contour>
      <point x="510.0" y="279.29639" type="curve" smooth="yes"/>
      <point x="474.765682648" y="279.29639"/>
      <point x="441.11031113848475" y="284.05254334332005"/>
      <point x="410.22576904296875" y="292.7137451171875" type="curve"/>
      <point x="312.58887194089004" y="323.06850291135"/>
      <point x="241.50261902784592" y="387.5988531806713"/>
      <point x="237.96170806884766" y="466.3802490234375" type="curve"/>
      <point x="237.92159271240234" y="467.7455291748047" type="line"/>
      <point x="237.83148193359375" y="471.22059631347656" type="line"/>
      <point x="237.8232192993164" y="472.5" type="line"/>
      <point x="237.82322" y="578.93918"/>
      <point x="359.5096" y="665.70361"/>
      <point x="510.0" y="665.70361" type="curve" smooth="yes"/>
      <point x="548.0057485584" y="665.70361"/>
      <point x="584.1743916383411" y="660.1698195885101"/>
      <point x="617.0099334716797" y="650.1695251464844" type="curve"/>
      <point x="705.68971207736" y="622.18186173751"/>
      <point x="770.8009532766025" y="562.9544536445859"/>
      <point x="780.8298416137695" y="491.740966796875" type="curve"/>
      <point x="780.8482513427734" y="491.5976028442383" type="line"/>
      <point x="781.3840789794922" y="487.23883056640625" type="line"/>
      <point x="781.5085296630859" y="485.9335174560547" type="line"/>
      <point x="781.7943267822266" y="482.67166900634766" type="line"/>
      <point x="781.9086837768555" y="480.83746337890625" type="line"/>
      <point x="782.0554275512695" y="478.03663635253906" type="line"/>
      <point x="782.1168441772461" y="475.9466018676758" type="line"/>
      <point x="782.1767807006836" y="472.5" type="line"/>
      <point x="782.17678" y="366.06082"/>
      <point x="660.4904" y="279.29639"/>
    </contour>
    <contour>
      <point x="158.58838653564453" y="-3.432281494140625" type="line"/>
      <point x="158.58839" y="-136.4938"/>
      <point x="315.66717" y="-245.0"/>
      <point x="510.0" y="-245.0" type="curve" smooth="yes"/>
      <point x="704.33283" y="-245.0"/>
      <point x="861.41161" y="-136.4938"/>
      <point x="861.41161" y="-3.43228" type="curve"/>
      <point x="861.41161" y="92.97034547356"/>
      <point x="778.5088383198286" y="174.9942312582575"/>
      <point x="659.590950012207" y="215.04706573486328" type="curve"/>
      <point x="784.7517772457088" y="259.5829263069365"/>
      <point x="871.70185" y="358.26391301826"/>
      <point x="871.7018499999999" y="472.5" type="curve"/>
      <point x="871.70185" y="474.18476656398"/>
      <point x="871.6829377681843" y="475.8661497879246"/>
      <point x="871.6452713012695" y="477.48892974853516" type="curve"/>
      <point x="871.70185" y="474.70718005989"/>
      <point x="871.6692334174498" y="476.9080417923691"/>
      <point x="871.604362487793" y="478.7468032836914" type="curve"/>
      <point x="871.5706067344497" y="480.2644791592882"/>
      <point x="871.5281175692523" y="481.4077828063094"/>
      <point x="871.4769439697266" y="482.48902893066406" type="curve"/>
      <point x="871.4566493661279" y="482.9736731228799"/>
      <point x="871.4349852884915" y="483.4248635535801"/>
      <point x="871.4119644165039" y="483.68749237060547" type="curve"/>
      <point x="871.3496034440881" y="485.13171429704704"/>
      <point x="871.2772555211592" y="486.35443378772953"/>
      <point x="871.1949844360352" y="487.50902557373047" type="curve"/>
      <point x="871.1730484339727" y="487.8566061471783"/>
      <point x="871.1504172624005" y="488.180685967672"/>
      <point x="871.1270751953125" y="488.4034729003906" type="curve"/>
      <point x="871.0292325718232" y="489.9133404397191"/>
      <point x="870.9189926669154" y="491.2736822193248"/>
      <point x="870.7964477539062" y="492.5602569580078" type="curve"/>
      <point x="870.7818306095066" y="492.73310611678585"/>
      <point x="870.7670407112525" y="492.8944371598003"/>
      <point x="870.752067565918" y="493.0145950317383" type="curve"/>
      <point x="860.4668890702427" y="604.3633434769723"/>
      <point x="767.6206176248373" y="698.0178696436539"/>
      <point x="639.7122802734375" y="736.4778442382812" type="curve"/>
      <point x="399.892578125" y="811.705680847168" type="line"/>
      <point x="316.47078" y="837.87385"/>
      <point x="258.40369" y="888.49185"/>
      <point x="258.40369" y="948.43228" type="curve"/>
      <point x="168.87863159179688" y="948.4322662353516" type="line"/>
      <point x="168.87863" y="852.62839576362"/>
      <point x="248.36000171158315" y="771.0177081226436"/>
      <point x="362.6090545654297" y="730.733757019043" type="curve"/>
      <point x="236.2682036810303" y="686.5707588014167"/>
      <point x="148.29815000000002" y="587.4041652593999"/>
      <point x="148.29815" y="472.49999999999994" type="curve"/>
      <point x="148.29815" y="470.81648014146"/>
      <point x="148.31703425255847" y="469.13633861755244"/>
      <point x="148.35464477539062" y="467.5137252807617" type="curve"/>
      <point x="148.29815" y="470.28606246484"/>
      <point x="148.33095509182797" y="468.0784522762365"/>
      <point x="148.39620208740234" y="466.2358703613281" type="curve"/>
      <point x="148.42977811664443" y="464.7257744431237"/>
      <point x="148.4719476949235" y="463.59176224663923"/>
      <point x="148.52266693115234" y="462.5181655883789" type="curve"/>
      <point x="148.5435547823278" y="462.0193875244614"/>
      <point x="148.5658868620326" y="461.55469728270685"/>
      <point x="148.58966827392578" y="461.2823715209961" type="curve"/>
      <point x="148.65135621711636" y="459.85288400736226"/>
      <point x="148.7227664350145" y="458.64666245567224"/>
      <point x="148.8038558959961" y="457.5062026977539" type="curve"/>
      <point x="148.82725445349172" y="457.1354755615208"/>
      <point x="148.85144630811672" y="456.7893275973696"/>
      <point x="148.87643432617188" y="456.55030059814453" type="curve"/>
      <point x="148.9726966710681" y="455.0639696768147"/>
      <point x="149.08087932793663" y="453.72972420290216"/>
      <point x="149.20089721679688" y="452.4669876098633" type="curve"/>
      <point x="149.21834132853672" y="452.2605734846531"/>
      <point x="149.23603771228514" y="452.06766539694013"/>
      <point x="149.2539825439453" y="451.9234161376953" type="curve"/>
      <point x="149.39346791832082" y="450.3134671229485"/>
      <point x="149.54805027710506" y="448.81272281500657"/>
      <point x="149.71758270263672" y="447.3888473510742" type="curve"/>
      <point x="149.71849499760592" y="447.38018898724744"/>
      <point x="149.71941878948792" y="447.3720628402321"/>
      <point x="149.72035217285156" y="447.3656539916992" type="curve"/>
      <point x="162.1412853973738" y="337.7017676384918"/>
      <point x="254.75517688942256" y="245.84354583646342"/>
      <point x="381.5457534790039" y="208.1440658569336" type="curve"/>
      <point x="381.71166229248047" y="208.09264373779297" type="line"/>
      <point x="620.8317184448242" y="134.33876037597656" type="line"/>
      <point x="709.29567" y="107.05306"/>
      <point x="771.88654" y="57.35759"/>
      <point x="771.88654" y="-3.43228" type="curve"/>
      <point x="771.88654" y="-87.10921"/>
      <point x="654.94894" y="-155.47493"/>
      <point x="510.0" y="-155.47493" type="curve" smooth="yes"/>
      <point x="365.05106" y="-155.47493"/>
      <point x="248.11346" y="-87.10921"/>
      <point x="248.11346" y="-3.43228" type="curve"/>
    </contour>
  </outline>
</glyph>
<glyph name="diaeresis" format="2">
  <advance width="980"/>
  <unicode hex="00A8"/>
  <outline>
    <contour>
      <point x="406.8" y="1076.8" type="curve" smooth="yes"/>
      <point x="406.8" y="1110.908348236"/>
      <point x="379.108348236" y="1138.6"/>
      <point x="345.0" y="1138.6" type="curve" smooth="yes"/>
      <point x="310.891651764" y="1138.6"/>
      <point x="283.2" y="1110.908348236"/>
      <point x="283.2" y="1076.8" type="curve" smooth="yes"/>
      <point x="283.2" y="1042.691651764"/>
      <point x="310.891651764" y="1015.0"/>
      <point x="345.0" y="1015.0" type="curve" smooth="yes"/>
      <point x="379.108348236" y="1015.0"/>
      <point x="406.8" y="1042.691651764"/>
    </contour>
    <contour>
      <point x="696.8" y="1076.8" type="curve" smooth="yes"/>
      <point x="696.8" y="1110.908348236"/>
      <point x="669.108348236" y="1138.6"/>
      <point x="635.0" y="1138.6" type="curve" smooth="yes"/>
      <point x="600.891651764" y="1138.6"/>
      <point x="573.2" y="1110.908348236"/>
      <point x="573.2" y="1076.8" type="curve" smooth="yes"/>
      <point x="573.2" y="1042.691651764"/>
      <point x="600.891651764" y="1015.0"/>
      <point x="635.0" y="1015.0" type="curve" smooth="yes"/>
      <point x="669.108348236" y="1015.0"/>
      <point x="696.8" y="1042.691651764"/>
    </contour>
  </outline>
</glyph>
<glyph name="copyright" format="2">
  <advance width="1020"/>
  <unicode hex="00A9"/>
  <outline>
    <contour>
      <point x="909.77573" y="585.0" type="curve" smooth="yes"/>
      <point x="909.77573" y="805.64223"/>
      <point x="730.64223" y="984.77573"/>
      <point x="510.0" y="984.77573" type="curve" smooth="yes"/>
      <point x="289.35777" y="984.77573"/>
      <point x="110.22427" y="805.64223"/>
      <point x="110.22427" y="585.0" type="curve" smooth="yes"/>
      <point x="110.22427" y="364.35777"/>
      <point x="289.35777" y="185.22427"/>
      <point x="510.0" y="185.22427" type="curve" smooth="yes"/>
      <point x="730.64223" y="185.22427"/>
      <point x="909.77573" y="364.35777"/>
    </contour>
    <contour>
      <point x="848.89868" y="585.0" type="curve" smooth="yes"/>
      <point x="848.89868" y="397.95673"/>
      <point x="697.04327" y="246.10132"/>
      <point x="510.0" y="246.10132" type="curve" smooth="yes"/>
      <point x="322.95673" y="246.10132"/>
      <point x="171.10132" y="397.95673"/>
      <point x="171.10132" y="585.0" type="curve" smooth="yes"/>
      <point x="171.10132" y="772.04327"/>
      <point x="322.95673" y="923.89868"/>
      <point x="510.0" y="923.89868" type="curve" smooth="yes"/>
      <point x="697.04327" y="923.89868"/>
      <point x="848.89868" y="772.04327"/>
    </contour>
    <contour>
      <point x="510.0" y="433.06049" type="curve" smooth="yes"/>
      <point x="426.1423" y="433.06049"/>
      <point x="358.06049" y="501.1423"/>
      <point x="358.06049" y="585.0" type="curve" smooth="yes"/>
      <point x="358.06049" y="668.8577"/>
      <point x="426.1423" y="736.93951"/>
      <point x="510.0" y="736.93951" type="curve" smooth="yes"/>
      <point x="567.70332" y="736.93951"/>
      <point x="617.93683" y="704.70309"/>
      <point x="643.65838" y="657.26541" type="curve"/>
      <point x="722.07159" y="657.26541" type="line"/>
      <point x="691.97765" y="745.4912"/>
      <point x="608.34777" y="809.00719"/>
      <point x="510.0" y="809.00719" type="curve" smooth="yes"/>
      <point x="386.36707" y="809.00719"/>
      <point x="285.99281" y="708.63293"/>
      <point x="285.99281" y="585.0" type="curve" smooth="yes"/>
      <point x="285.99281" y="461.36707"/>
      <point x="386.36707" y="360.99281"/>
      <point x="510.0" y="360.99281" type="curve" smooth="yes"/>
      <point x="608.3474" y="360.99281"/>
      <point x="691.97702" y="424.50832"/>
      <point x="722.07128" y="512.73459" type="curve"/>
      <point x="643.65685" y="512.73459" type="line"/>
      <point x="617.93479" y="465.2956"/>
      <point x="567.70215" y="433.06049"/>
    </contour>
  </outline>
</glyph>
<glyph name="ordinalfeminine" format="2">
  <advance width="1020"/>
  <unicode hex="00AA"/>
  <outline>
    <contour>
      <point x="537.31464" y="909.6971201918276" type="curve"/>
      <point x="643.0993347167969" y="909.6971206665039" type="line"/>
      <point x="643.13766" y="846.44901"/>
      <point x="573.23695" y="793.74723"/>
      <point x="486.84697" y="793.74723" type="curve"/>
      <point x="435.80362722868153" y="793.74723"/>
      <point x="376.86234" y="811.0541832450707"/>
      <point x="376.86234" y="852.44545" type="curve"/>
      <point x="376.86234" y="911.0992277929789"/>
      <point x="473.8848913316844" y="909.6971199072061"/>
    </contour>
    <contour>
      <point x="295.84215" y="543.74885" type="line"/>
      <point x="724.15785" y="543.74885" type="line"/>
      <point x="724.15785" y="613.94077" type="line"/>
      <point x="295.84215" y="613.94077" type="line"/>
    </contour>
    <contour>
      <point x="643.1376571655273" y="723.3468322753906" type="line"/>
      <point x="724.1578521728516" y="723.3468322753906" type="line"/>
      <point x="724.1578521728516" y="951.1903381347656" type="line"/>
      <point x="724.1578521728516" y="1099.4701528903308"/>
      <point x="648.3012878120724" y="1170.0"/>
      <point x="516.33892" y="1170.0" type="curve"/>
      <point x="400.33861999999993" y="1170.0"/>
      <point x="306.46194" y="1097.90089"/>
      <point x="306.46194" y="1009.37569" type="curve"/>
      <point x="387.48211669921875" y="1009.3756866455078" type="line"/>
      <point x="387.48212" y="1053.19959"/>
      <point x="445.04139999999995" y="1088.97982"/>
      <point x="516.33892" y="1088.97982" type="curve"/>
      <point x="586.40205" y="1088.97982"/>
      <point x="643.13766" y="1051.59644"/>
      <point x="643.13766" y="993.94034" type="curve"/>
      <point x="643.1376571655273" y="987.3441619873047" type="line"/>
      <point x="537.3146362304688" y="987.3441619873047" type="line"/>
      <point x="476.4724639169325" y="987.3441619873047"/>
      <point x="295.84215" y="984.8449164710964"/>
      <point x="295.84215" y="852.44545" type="curve"/>
      <point x="295.84215" y="772.43989"/>
      <point x="381.27266999999995" y="712.72704"/>
      <point x="486.84697" y="712.72704" type="curve"/>
      <point x="546.7222499764" y="712.72704"/>
      <point x="601.397750433134" y="731.2869797636106"/>
      <point x="643.1376571655273" y="761.8920516967773" type="curve"/>
    </contour>
  </outline>
</glyph>
<glyph name="angledblleft" format="2">
  <advance width="1020"/>
  <unicode hex="00AB"/>
  <outline>
    <contour>
      <point x="806.5186233520508" y="221.2607421875" type="line"/>
      <point x="560.3061904907227" y="488.424072265625" type="line"/>
      <point x="806.5186233520508" y="755.5873947143555" type="line"/>
      <point x="684.4789047241211" y="755.5873947143555" type="line"/>
      <point x="438.26647186279297" y="488.424072265625" type="line"/>
      <point x="684.4789047241211" y="221.2607421875" type="line"/>
    </contour>
    <contour>
      <point x="551.733528137207" y="221.2607421875" type="line"/>
      <point x="305.5210952758789" y="488.424072265625" type="line"/>
      <point x="551.733528137207" y="755.5873947143555" type="line"/>
      <point x="429.69380950927734" y="755.5873947143555" type="line"/>
      <point x="183.48137664794922" y="488.424072265625" type="line"/>
      <point x="429.69380950927734" y="221.2607421875" type="line"/>
    </contour>
  </outline>
</glyph>
<glyph name="logicalnot" format="2">
  <advance width="980"/>
  <unicode hex="00AC"/>
  <outline>
    <contour>
      <point x="115" y="445" type="line"/>
      <point x="775" y="445" type="line"/>
      <point x="775" y="15" type="line"/>
      <point x="865" y="15" type="line"/>
      <point x="865" y="535" type="line"/>
      <point x="115" y="535" type="line"/>
    </contour>
  </outline>
</glyph>
<glyph name="registered" format="2">
  <advance width="1020"/>
  <unicode hex="00AE"/>
  <outline>
    <contour>
      <point x="909.7757255936676" y="770.2242744063325" type="curve" smooth="yes"/>
      <point x="909.7757255936676" y="990.8665019928761"/>
      <point x="730.6422275865436" y="1170.0"/>
      <point x="510.0" y="1170.0" type="curve" smooth="yes"/>
      <point x="289.3577724134565" y="1170.0"/>
      <point x="110.22427440633243" y="990.8665019928761"/>
      <point x="110.22427440633243" y="770.2242744063325" type="curve" smooth="yes"/>
      <point x="110.22427440633243" y="549.5820468197891"/>
      <point x="289.35777241345636" y="370.4485488126649"/>
      <point x="509.99999999999994" y="370.4485488126649" type="curve" smooth="yes"/>
      <point x="730.6422275865434" y="370.44854881266485"/>
      <point x="909.7757255936676" y="549.5820468197888"/>
    </contour>
    <contour>
      <point x="848.8986807387862" y="770.2242744063325" type="curve" smooth="yes"/>
      <point x="848.8986807387862" y="583.1810022484116"/>
      <point x="697.0432721579207" y="431.3255936675462"/>
      <point x="509.99999999999994" y="431.32559366754623" type="curve" smooth="yes"/>
      <point x="322.9567278420791" y="431.32559366754623"/>
      <point x="171.10131926121372" y="583.1810022484117"/>
      <point x="171.10131926121372" y="770.2242744063325" type="curve" smooth="yes"/>
      <point x="171.10131926121372" y="957.2675465642534"/>
      <point x="322.9567278420792" y="1109.1229551451188"/>
      <point x="510.0" y="1109.1229551451188" type="curve" smooth="yes"/>
      <point x="697.0432721579209" y="1109.1229551451188"/>
      <point x="848.8986807387862" y="957.2675465642534"/>
    </contour>
    <contour>
      <point x="356.04219818115234" y="558.0949172973633" type="line"/>
      <point x="428.10987854003906" y="558.0949172973633" type="line"/>
      <point x="428.10987854003906" y="697.33251953125" type="line"/>
      <point x="534.0813140869141" y="697.33251953125" type="line"/>
      <point x="537.6521278405572" y="697.3325203818086"/>
      <point x="541.1976504460305" y="697.4271809048211"/>
      <point x="544.7146072387695" y="697.6282272338867" type="curve"/>
      <point x="625.3348846435547" y="558.0949172973633" type="line"/>
      <point x="705.9462890625" y="558.0949172973633" type="line"/>
      <point x="615.2741775512695" y="715.0254135131836" type="line"/>
      <point x="669.2296825833351" y="740.16369039798"/>
      <point x="705.9462902374612" y="789.593942712976"/>
      <point x="705.9462902374612" y="846.4037762694047" type="curve" smooth="yes"/>
      <point x="705.9462902374612" y="928.6784414440324"/>
      <point x="628.9361769725838" y="995.4750321570009"/>
      <point x="534.0813166226853" y="995.4750321570009" type="curve"/>
      <point x="356.04219818115234" y="995.4750289916992" type="line"/>
    </contour>
    <contour>
      <point x="534.0813140869141" y="932.9653854370117" type="line"/>
      <point x="589.1609429725231" y="932.9653825329328"/>
      <point x="633.8786121371973" y="894.1784269215719"/>
      <point x="633.8786121371973" y="846.4037762694047" type="curve" smooth="yes"/>
      <point x="633.8786121371973" y="798.6291256172375"/>
      <point x="589.1609429725231" y="759.8421700058767"/>
      <point x="534.0813166226853" y="759.8421700058767" type="curve"/>
      <point x="428.10987854003906" y="759.842170715332" type="line"/>
      <point x="428.10987854003906" y="932.9653854370117" type="line"/>
    </contour>
  </outline>
</glyph>
<glyph name="macron" format="2">
  <advance width="1020"/>
  <unicode hex="00AF"/>
  <outline>
    <contour>
      <point x="243.48284960422157" y="1025.9366754617415" type="line"/>
      <point x="776.5171503957783" y="1025.9366754617415" type="line"/>
      <point x="776.5171503957783" y="1103.3758575197892" type="line"/>
      <point x="243.48284960422157" y="1103.3758575197892" type="line"/>
    </contour>
  </outline>
</glyph>
<glyph name="degree" format="2">
  <advance width="1020"/>
  <unicode hex="00B0"/>
  <outline>
    <contour>
      <point x="739.9868073878629" y="940.0131926121372" type="curve" smooth="yes"/>
      <point x="739.9868073878629" y="1066.9463660113458"/>
      <point x="636.9331733992085" y="1170.0"/>
      <point x="510.0" y="1170.0" type="curve" smooth="yes"/>
      <point x="383.06682660079156" y="1170.0"/>
      <point x="280.0131926121372" y="1066.9463660113458"/>
      <point x="280.0131926121372" y="940.0131926121372" type="curve" smooth="yes"/>
      <point x="280.0131926121371" y="813.0800192129288"/>
      <point x="383.0668266007915" y="710.0263852242745"/>
      <point x="510.0" y="710.0263852242745" type="curve" smooth="yes"/>
      <point x="636.9331733992084" y="710.0263852242745"/>
      <point x="739.9868073878629" y="813.0800192129288"/>
    </contour>
    <contour>
      <point x="650.4617414248021" y="940.0131926121372" type="curve" smooth="yes"/>
      <point x="650.4617414248021" y="862.4902477844328"/>
      <point x="587.5229448277045" y="799.5514511873351"/>
      <point x="510.0" y="799.5514511873351" type="curve" smooth="yes"/>
      <point x="432.4770551722954" y="799.5514511873351"/>
      <point x="369.53825857519786" y="862.4902477844328"/>
      <point x="369.53825857519786" y="940.0131926121372" type="curve" smooth="yes"/>
      <point x="369.53825857519786" y="1017.5361374398417"/>
      <point x="432.47705517229554" y="1080.4749340369394"/>
      <point x="510.0" y="1080.4749340369394" type="curve" smooth="yes"/>
      <point x="587.5229448277045" y="1080.4749340369394"/>
      <point x="650.4617414248021" y="1017.5361374398417"/>
    </contour>
  </outline>
</glyph>
<glyph name="plusminus" format="2">
  <advance width="1020"/>
  <unicode hex="00B1"/>
  <outline>
    <contour>
      <point x="465.1289367675781" y="250.65902709960938" type="line"/>
      <point x="554.8710632324219" y="250.65902709960938" type="line"/>
      <point x="554.8710632324219" y="525.0429763793945" type="line"/>
      <point x="829.255012512207" y="525.0429763793945" type="line"/>
      <point x="829.255012512207" y="614.7851028442383" type="line"/>
      <point x="554.8710632324219" y="614.7851028442383" type="line"/>
      <point x="554.8710632324219" y="889.1690521240234" type="line"/>
      <point x="465.1289367675781" y="889.1690521240234" type="line"/>
      <point x="465.1289367675781" y="614.7851028442383" type="line"/>
      <point x="190.74498748779297" y="614.7851028442383" type="line"/>
      <point x="190.74498748779297" y="525.0429763793945" type="line"/>
      <point x="465.1289367675781" y="525.0429763793945" type="line"/>
    </contour>
    <contour>
      <point x="190.74498567335246" y="87.67908309455586" type="line"/>
      <point x="829.2550143266476" y="87.67908309455586" type="line"/>
      <point x="829.2550143266476" y="177.4212034383954" type="line"/>
      <point x="190.74498567335246" y="177.4212034383954" type="line"/>
    </contour>
  </outline>
</glyph>
<glyph name="sup_two" format="2">
  <advance width="1020"/>
  <unicode hex="00B2"/>
  <outline>
    <contour>
      <point x="259.8644714355469" y="413.3597717285156" type="line"/>
      <point x="760.1355285644531" y="413.3597717285156" type="line"/>
      <point x="760.1355285644531" y="494.5763931274414" type="line"/>
      <point x="384.7449035644531" y="494.5763931274414" type="line"/>
      <point x="672.6768951416016" y="741.0884017944336" type="line"/>
      <point x="728.1838445355044" y="788.6104876210694"/>
      <point x="760.1355300859599" y="858.0279633305814"/>
      <point x="760.13553008596" y="931.0989541547278" type="curve"/>
      <point x="760.1355300859599" y="1069.1525102448309"/>
      <point x="648.053556090103" y="1181.2344842406878"/>
      <point x="510.0" y="1181.2344842406878" type="curve" smooth="yes"/>
      <point x="371.94644390989686" y="1181.2344842406878"/>
      <point x="259.8644699140401" y="1069.1525102448309"/>
      <point x="259.8644699140401" y="931.0989541547278" type="curve"/>
      <point x="341.0810852050781" y="931.0989532470703" type="line"/>
      <point x="341.0810888252149" y="1024.3278383941376"/>
      <point x="416.77111576059025" y="1100.017865329513"/>
      <point x="510.0" y="1100.017865329513" type="curve" smooth="yes"/>
      <point x="603.2288842394098" y="1100.017865329513"/>
      <point x="678.9189111747851" y="1024.3278383941376"/>
      <point x="678.9189111747851" y="931.0989541547278" type="curve"/>
      <point x="678.9189111747851" y="881.7534165406361"/>
      <point x="657.3416329227621" y="834.8751325586557"/>
      <point x="619.857262498577" y="802.7830142688598" type="curve"/>
      <point x="259.8644714355469" y="494.5763931274414" type="line"/>
    </contour>
  </outline>
</glyph>
<glyph name="sup_three" format="2">
  <advance width="980"/>
  <unicode hex="00B3"/>
  <outline>
    <contour>
      <point x="268.125" y="647.125" type="line"/>
      <point x="268.125" y="534.1893890325"/>
      <point x="367.5438549375" y="442.5"/>
      <point x="489.99999999999994" y="442.5" type="curve" smooth="yes"/>
      <point x="612.4561450624999" y="442.5"/>
      <point x="711.875" y="534.1893890325"/>
      <point x="711.875" y="647.125" type="curve"/>
      <point x="711.875" y="715.1227408142549"/>
      <point x="675.8340763073315" y="775.4183866486571"/>
      <point x="620.4238967895508" y="812.6341705322266" type="curve"/>
      <point x="668.5282313128457" y="847.829776125791"/>
      <point x="699.375" y="902.0729353570462"/>
      <point x="699.375" y="962.8750000000001" type="curve"/>
      <point x="699.375" y="1068.9116732175"/>
      <point x="605.5572073124999" y="1155.0"/>
      <point x="490.0" y="1155.0" type="curve" smooth="yes"/>
      <point x="374.4427926875" y="1155.0"/>
      <point x="280.625" y="1068.9116732175"/>
      <point x="280.625" y="962.875" type="curve"/>
      <point x="361.625" y="962.875" type="line"/>
      <point x="361.625" y="1024.2065565975"/>
      <point x="419.1479093075" y="1074.0"/>
      <point x="490.0" y="1074.0" type="curve" smooth="yes"/>
      <point x="560.8520906925" y="1074.0"/>
      <point x="618.375" y="1024.2065565975"/>
      <point x="618.375" y="962.875" type="curve"/>
      <point x="618.375" y="901.5434434025001"/>
      <point x="560.8520906925" y="851.75"/>
      <point x="490.0" y="851.75" type="curve"/>
      <point x="433.75" y="851.75" type="line"/>
      <point x="433.75" y="770.75" type="line"/>
      <point x="490" y="770.75" type="line"/>
      <point x="567.7510284425" y="770.75"/>
      <point x="630.875" y="715.3554943475"/>
      <point x="630.875" y="647.125" type="curve"/>
      <point x="630.875" y="578.8945056524999"/>
      <point x="567.7510284425" y="523.5"/>
      <point x="490.0" y="523.5" type="curve" smooth="yes"/>
      <point x="412.2489715575" y="523.5"/>
      <point x="349.125" y="578.8945056525"/>
      <point x="349.125" y="647.125" type="curve"/>
    </contour>
  </outline>
</glyph>
<glyph name="acute" format="2">
  <advance width="980"/>
  <unicode hex="00B4"/>
  <outline>
    <contour>
      <point x="372.50198936997316" y="1015.0" type="line"/>
      <point x="460.39708830120657" y="1015.0" type="line"/>
      <point x="607.4980106300268" y="1275.0" type="line"/>
      <point x="519.6029116987934" y="1275.0" type="line"/>
    </contour>
  </outline>
</glyph>
<glyph name="mu" format="2">
  <advance width="1020"/>
  <unicode hex="00B5"/>
  <outline>
    <contour>
      <point x="163.6694564819336" y="-240" type="line"/>
      <point x="253.4115753173828" y="-240" type="line"/>
      <point x="253.4115753173828" y="84.91858673095703" type="line"/>
      <point x="312.3040723898127" y="23.35441604729052"/>
      <point x="395.2436321191774" y="-14.999999999999993"/>
      <point x="487.0706590257879" y="-14.999999999999972" type="curve" smooth="yes"/>
      <point x="592.863456057695" y="-15.000000000000018"/>
      <point x="686.8598620080777" y="35.90805764725722"/>
      <point x="745.8779373168945" y="114.55497741699219" type="curve"/>
      <point x="782.1305020059837" y="46.41251890853306"/>
      <point x="853.8531797255062" y="0.0"/>
      <point x="936.3305444126074" y="-1.4210854715202004e-14" type="curve"/>
      <point x="936.3305435180664" y="89.74211883544922" type="line"/>
      <point x="866.8672474478693" y="89.74212034383955"/>
      <point x="810.4718624641833" y="146.1375053275255"/>
      <point x="810.4718624641833" y="215.60080229226364" type="curve"/>
      <point x="810.4718627929688" y="801.4899749755859" type="line"/>
      <point x="720.7297439575195" y="801.4899749755859" type="line"/>
      <point x="720.7297439575195" y="308.40120697021484" type="line"/>
      <point x="720.7297421203439" y="179.44124591908187"/>
      <point x="616.0306165451013" y="74.74212034383949"/>
      <point x="487.07065902578796" y="74.74212034383952" type="curve" smooth="yes"/>
      <point x="358.11070150647447" y="74.74212034383955"/>
      <point x="253.41157593123208" y="179.44124591908195"/>
      <point x="253.4115759312321" y="308.4012034383954" type="curve"/>
      <point x="253.4115753173828" y="801.4899749755859" type="line"/>
      <point x="163.6694564819336" y="801.4899749755859" type="line"/>
    </contour>
  </outline>
</glyph>
<glyph name="pilcrow" format="2">
  <advance width="1020"/>
  <unicode hex="00B6"/>
  <outline>
    <contour>
      <point x="464.2414245605469" y="-123.48284912109375" type="line"/>
      <point x="553.766487121582" y="-123.48284912109375" type="line"/>
      <point x="553.766487121582" y="1080.4749374389648" type="line"/>
      <point x="677.2493438720703" y="1080.4749374389648" type="line"/>
      <point x="677.2493438720703" y="-123.48284912109375" type="line"/>
      <point x="766.7744064331055" y="-123.48284912109375" type="line"/>
      <point x="766.7744064331055" y="1080.4749374389648" type="line"/>
      <point x="873.2783660888672" y="1080.4749374389648" type="line"/>
      <point x="873.2783660888672" y="1170" type="line"/>
      <point x="464.2414245605469" y="1170" type="line"/>
      <point x="294.5166343509235" y="1170.0"/>
      <point x="156.72163588390498" y="1032.2050015329817"/>
      <point x="156.72163588390498" y="862.4802110817943" type="curve" smooth="yes"/>
      <point x="156.72163588390498" y="692.755420630607"/>
      <point x="294.51663435092337" y="554.9604221635885"/>
      <point x="464.24142480211077" y="554.9604221635885" type="curve"/>
    </contour>
  </outline>
</glyph>
<glyph name="periodcentered" format="2">
  <advance width="1020"/>
  <unicode hex="00B7"/>
  <outline>
    <contour>
      <point x="616.7621776504297" y="381.6618911174785" type="curve" smooth="yes"/>
      <point x="616.7621776504297" y="440.585540530659"/>
      <point x="568.9236494131806" y="488.4240687679083"/>
      <point x="510.0" y="488.4240687679083" type="curve" smooth="yes"/>
      <point x="451.0763505868195" y="488.4240687679083"/>
      <point x="403.2378223495702" y="440.585540530659"/>
      <point x="403.2378223495702" y="381.6618911174785" type="curve" smooth="yes"/>
      <point x="403.2378223495702" y="322.738241704298"/>
      <point x="451.07635058681944" y="274.8997134670487"/>
      <point x="510.0" y="274.8997134670487" type="curve" smooth="yes"/>
      <point x="568.9236494131804" y="274.8997134670487"/>
      <point x="616.7621776504297" y="322.73824170429793"/>
    </contour>
  </outline>
</glyph>
<glyph name="cedilla" format="2">
  <advance width="1020"/>
  <unicode hex="00B8"/>
  <outline>
    <contour>
      <point x="443.13086700439453" y="-125.28878784179688" type="line"/>
      <point x="463.3567808217016" y="-125.28878784179688" type="line"/>
      <point x="539.4257728736858" y="-125.28878784179688"/>
      <point x="545.48648" y="-172.9842704459169"/>
      <point x="545.48648" y="-188.9248" type="curve" smooth="yes"/>
      <point x="545.48648" y="-204.8653300540831"/>
      <point x="539.4257801829326" y="-252.560818958732"/>
      <point x="463.356785636931" y="-252.560820334464" type="curve"/>
      <point x="397.0743408203125" y="-252.56082153320312" type="line"/>
      <point x="397.0743408203125" y="-330" type="line"/>
      <point x="440.8516848120534" y="-330.0" type="line"/>
      <point x="578.134927821167" y="-330.0"/>
      <point x="622.92566" y="-266.7261616545659"/>
      <point x="622.92566" y="-188.9248" type="curve" smooth="yes"/>
      <point x="622.92566" y="-124.48824113991998"/>
      <point x="579.631435486774" y="-70.08379840890657"/>
      <point x="520.5700531005859" y="-53.264427185058594" type="curve"/>
      <point x="520.5700531005859" y="22.381271362304688" type="line"/>
      <point x="443.13086700439453" y="22.381271362304688" type="line"/>
    </contour>
  </outline>
</glyph>
<glyph name="sup_one" format="2">
  <advance width="1020"/>
  <unicode hex="00B9"/>
  <outline>
    <contour>
      <point x="276.54795837402344" y="414.38999938964844" type="line"/>
      <point x="743.4520416259766" y="414.38999938964844" type="line"/>
      <point x="743.4520416259766" y="495.4101791381836" type="line"/>
      <point x="563.3728866577148" y="495.4101791381836" type="line"/>
      <point x="563.3728866577148" y="1170.7070236206055" type="line"/>
      <point x="482.35269927978516" y="1170.7070236206055" type="line"/>
      <point x="276.54795837402344" y="1051.8855895996094" type="line"/>
      <point x="276.54795837402344" y="958.5644912719727" type="line"/>
      <point x="482.35269927978516" y="1077.3859176635742" type="line"/>
      <point x="482.35269927978516" y="495.4101791381836" type="line"/>
      <point x="276.54795837402344" y="495.4101791381836" type="line"/>
    </contour>
  </outline>
</glyph>
<glyph name="ordinalmasculine" format="2">
  <advance width="980"/>
  <unicode hex="00BA"/>
  <outline>
    <contour>
      <point x="677.5" y="967.5" type="curve" smooth="yes"/>
      <point x="677.5" y="1070.98406625"/>
      <point x="593.4840662500001" y="1155.0"/>
      <point x="490.0" y="1155.0" type="curve" smooth="yes"/>
      <point x="386.51593375" y="1155.0"/>
      <point x="302.5" y="1070.98406625"/>
      <point x="302.5" y="967.5" type="curve" smooth="yes"/>
      <point x="302.5" y="864.0159337499999"/>
      <point x="386.51593374999993" y="780.0"/>
      <point x="490.0" y="780.0" type="curve" smooth="yes"/>
      <point x="593.48406625" y="780.0"/>
      <point x="677.5" y="864.0159337499999"/>
    </contour>
    <contour>
      <point x="596.5" y="967.5" type="curve" smooth="yes"/>
      <point x="596.5" y="908.72105037"/>
      <point x="548.7789496299999" y="861.0"/>
      <point x="490.0" y="861.0" type="curve" smooth="yes"/>
      <point x="431.22105036999994" y="861.0"/>
      <point x="383.5" y="908.72105037"/>
      <point x="383.5" y="967.5" type="curve" smooth="yes"/>
      <point x="383.5" y="1026.27894963"/>
      <point x="431.22105037" y="1074.0"/>
      <point x="490.0" y="1074.0" type="curve" smooth="yes"/>
      <point x="548.7789496299999" y="1074.0"/>
      <point x="596.5" y="1026.27894963"/>
    </contour>
    <contour>
      <point x="302.5" y="614.7857142857142" type="line"/>
      <point x="677.5" y="614.7857142857142" type="line"/>
      <point x="677.5" y="684.0" type="line"/>
      <point x="302.5" y="684.0" type="line"/>
    </contour>
  </outline>
</glyph>
<glyph name="angledblright" format="2">
  <advance width="1020"/>
  <unicode hex="00BB"/>
  <outline>
    <contour>
      <point x="468.4036865234375" y="220.72559356689453" type="line"/>
      <point x="590.1482391357422" y="220.72559356689453" type="line"/>
      <point x="835.7651672363281" y="487.24273681640625" type="line"/>
      <point x="590.1482391357422" y="753.7598876953125" type="line"/>
      <point x="468.4036865234375" y="753.7598876953125" type="line"/>
      <point x="714.020622253418" y="487.24273681640625" type="line"/>
    </contour>
    <contour>
      <point x="214.23483276367188" y="220.72559356689453" type="line"/>
      <point x="335.97937774658203" y="220.72559356689453" type="line"/>
      <point x="581.5963134765625" y="487.24273681640625" type="line"/>
      <point x="335.97937774658203" y="753.7598876953125" type="line"/>
      <point x="214.23483276367188" y="753.7598876953125" type="line"/>
      <point x="459.8517608642578" y="487.24273681640625" type="line"/>
    </contour>
  </outline>
</glyph>
<glyph name="one_over_four" format="2">
  <advance width="980"/>
  <unicode hex="00BC"/>
  <outline>
    <contour>
      <point x="114.25" y="613.5" type="line"/>
      <point x="451.5" y="613.5" type="line"/>
      <point x="451.5" y="694.5" type="line"/>
      <point x="323.375" y="694.5" type="line"/>
      <point x="323.375" y="1155" type="line"/>
      <point x="242.375" y="1155" type="line"/>
      <point x="114.25" y="1081.9187927246094" type="line"/>
      <point x="114.25" y="988.6686630249023" type="line"/>
      <point x="242.375" y="1061.749870300293" type="line"/>
      <point x="242.375" y="694.5" type="line"/>
      <point x="114.25" y="694.5" type="line"/>
    </contour>
    <contour>
      <point x="107.50000000000003" y="360.0000000000692" type="line"/>
      <point x="872.5" y="732.9967576131693" type="line"/>
      <point x="872.5" y="810.0" type="line"/>
      <point x="107.50000000000003" y="437.0032423868999" type="line"/>
    </contour>
    <contour>
      <point x="611.6601943969727" y="223.78845977783203" type="line"/>
      <point x="725.875" y="404.7436218261719" type="line"/>
      <point x="725.875" y="223.78845977783203" type="line"/>
    </contour>
    <contour>
      <point x="515.875" y="142.78845977783203" type="line"/>
      <point x="725.875" y="142.78845977783203" type="line"/>
      <point x="725.875" y="15" type="line"/>
      <point x="806.875" y="15" type="line"/>
      <point x="806.875" y="142.78845977783203" type="line"/>
      <point x="872.125" y="142.78845977783203" type="line"/>
      <point x="872.125" y="223.78845977783203" type="line"/>
      <point x="806.875" y="223.78845977783203" type="line"/>
      <point x="806.875" y="556.5" type="line"/>
      <point x="725.875" y="556.5" type="line"/>
      <point x="515.875" y="223.78845977783203" type="line"/>
    </contour>
  </outline>
</glyph>
<glyph name="one_over_two" format="2">
  <advance width="980"/>
  <unicode hex="00BD"/>
  <outline>
    <contour>
      <point x="114.25" y="613.5" type="line"/>
      <point x="451.5" y="613.5" type="line"/>
      <point x="451.5" y="694.5" type="line"/>
      <point x="323.375" y="694.5" type="line"/>
      <point x="323.375" y="1155" type="line"/>
      <point x="242.375" y="1155" type="line"/>
      <point x="114.25" y="1081.9187927246094" type="line"/>
      <point x="114.25" y="988.6686630249023" type="line"/>
      <point x="242.375" y="1061.749870300293" type="line"/>
      <point x="242.375" y="694.5" type="line"/>
      <point x="114.25" y="694.5" type="line"/>
    </contour>
    <contour>
      <point x="107.50000000000003" y="360.0000000000692" type="line"/>
      <point x="872.5" y="732.9967576131693" type="line"/>
      <point x="872.5" y="810.0" type="line"/>
      <point x="107.50000000000003" y="437.0032423868999" type="line"/>
    </contour>
    <contour>
      <point x="515.875" y="15" type="line"/>
      <point x="853.125" y="15" type="line"/>
      <point x="853.125" y="96" type="line"/>
      <point x="630.5934753417969" y="96" type="line"/>
      <point x="803.5621185302734" y="268.46561431884766" type="line"/>
      <point x="835.2917190343795" y="300.102932997884"/>
      <point x="853.125" y="343.06777234455154"/>
      <point x="853.125" y="387.875" type="curve"/>
      <point x="853.125" y="480.9416702475"/>
      <point x="777.5666702475" y="556.5"/>
      <point x="684.5" y="556.5" type="curve" smooth="yes"/>
      <point x="591.4333297525" y="556.5"/>
      <point x="515.875" y="480.9416702475"/>
      <point x="515.875" y="387.875" type="curve"/>
      <point x="596.875" y="387.875" type="line"/>
      <point x="596.875" y="436.23655362750003"/>
      <point x="636.1384463725001" y="475.49999999999994"/>
      <point x="684.5" y="475.49999999999994" type="curve" smooth="yes"/>
      <point x="732.8615536275" y="475.49999999999994"/>
      <point x="772.125" y="436.23655362750003"/>
      <point x="772.125" y="387.875" type="curve"/>
      <point x="772.125" y="364.59118488771725"/>
      <point x="762.8580393203114" y="342.2647561390042"/>
      <point x="746.3699376336556" y="325.82460562407704" type="curve"/>
      <point x="515.875" y="96" type="line"/>
    </contour>
  </outline>
</glyph>
<glyph name="three_over_four" format="2">
  <advance width="1020"/>
  <unicode hex="00BE"/>
  <outline>
    <contour>
      <point x="103.4481430053711" y="803.6924209594727" type="line"/>
      <point x="103.44814" y="709.98777"/>
      <point x="189.16246" y="633.80369"/>
      <point x="294.88804" y="633.80369" type="curve" smooth="yes"/>
      <point x="400.61363" y="633.80369"/>
      <point x="486.32795" y="709.98777"/>
      <point x="486.32795" y="803.69242" type="curve"/>
      <point x="486.32795" y="856.0352752621"/>
      <point x="459.5827458588369" y="902.9112351288968"/>
      <point x="417.5442123413086" y="934.0876541137695" type="curve"/>
      <point x="455.4852067066397" y="964.1195034596481"/>
      <point x="479.38204" y="1007.86192538874"/>
      <point x="479.38204" y="1056.49559" type="curve"/>
      <point x="479.38204" y="1146.91677"/>
      <point x="396.77697" y="1220.43021"/>
      <point x="294.88804" y="1220.43021" type="curve" smooth="yes"/>
      <point x="192.99912" y="1220.43021"/>
      <point x="110.39405" y="1146.91677"/>
      <point x="110.39405" y="1056.49559" type="curve"/>
      <point x="191.4142303466797" y="1056.495590209961" type="line"/>
      <point x="191.41423" y="1102.20343"/>
      <point x="237.712" y="1139.41003"/>
      <point x="294.88804" y="1139.41003" type="curve" smooth="yes"/>
      <point x="352.06407847087047" y="1139.41003"/>
      <point x="398.36186" y="1102.2034391322818"/>
      <point x="398.36186" y="1056.49559" type="curve"/>
      <point x="398.36186" y="975.44148062609"/>
      <point x="297.74684250054315" y="973.581150261565"/>
      <point x="260.599911185791" y="973.5811468628219" type="curve"/>
      <point x="253.79527282714844" y="973.5811462402344" type="line"/>
      <point x="253.79527282714844" y="892.5609664916992" type="line"/>
      <point x="260.5999111175537" y="892.5609664916992" type="line"/>
      <point x="297.93867020407083" y="892.5609664916992"/>
      <point x="405.30777" y="890.5671109986927"/>
      <point x="405.30777" y="803.69242" type="curve"/>
      <point x="405.30777" y="754.701091031257"/>
      <point x="355.90065876289833" y="714.82388"/>
      <point x="294.88804" y="714.82388" type="curve" smooth="yes"/>
      <point x="233.87542" y="714.82388"/>
      <point x="184.46832" y="754.7011"/>
      <point x="184.46832" y="803.69242" type="curve"/>
    </contour>
    <contour>
      <point x="95.76519" y="355.01319" type="line"/>
      <point x="926.18735" y="737.70018" type="line"/>
      <point x="926.18735" y="814.98681" type="line"/>
      <point x="95.76519" y="432.29982" type="line"/>
    </contour>
    <contour>
      <point x="659.004753112793" y="218.90837860107422" type="line"/>
      <point x="820.4603118896484" y="434.97989654541016" type="line"/>
      <point x="820.4603118896484" y="218.90837860107422" type="line"/>
    </contour>
    <contour>
      <point x="560.1803283691406" y="137.88819122314453" type="line"/>
      <point x="820.4603118896484" y="137.88819122314453" type="line"/>
      <point x="820.4603118896484" y="0" type="line"/>
      <point x="901.4804916381836" y="0" type="line"/>
      <point x="901.4804916381836" y="137.88819122314453" type="line"/>
      <point x="979.2348098754883" y="137.88819122314453" type="line"/>
      <point x="979.2348098754883" y="218.90837860107422" type="line"/>
      <point x="901.4804916381836" y="218.90837860107422" type="line"/>
      <point x="901.4804916381836" y="567.2339096069336" type="line"/>
      <point x="820.4603118896484" y="567.2339096069336" type="line"/>
      <point x="560.1803283691406" y="218.90837860107422" type="line"/>
    </contour>
  </outline>
</glyph>
<glyph name="invertedquestion" format="2">
  <advance width="1020"/>
  <unicode hex="00BF"/>
  <outline>
    <contour>
      <point x="418.4960422163589" y="708.047493403694" type="curve" smooth="yes"/>
      <point x="418.4960422163589" y="649.2663594134566"/>
      <point x="466.2188660097626" y="601.5435356200528"/>
      <point x="525.0" y="601.5435356200528" type="curve" smooth="yes"/>
      <point x="583.7811339902375" y="601.5435356200528"/>
      <point x="631.5039577836412" y="649.2663594134566"/>
      <point x="631.5039577836412" y="708.047493403694" type="curve" smooth="yes"/>
      <point x="631.5039577836412" y="766.8286273939316"/>
      <point x="583.7811339902375" y="814.5514511873351"/>
      <point x="525.0" y="814.5514511873351" type="curve" smooth="yes"/>
      <point x="466.2188660097626" y="814.5514511873351"/>
      <point x="418.4960422163589" y="766.8286273939316"/>
    </contour>
    <contour>
      <point x="569.7625350952148" y="491.43799591064453" type="line"/>
      <point x="480.23746490478516" y="491.43799591064453" type="line"/>
      <point x="480.23746490478516" y="323.3404846191406" type="line"/>
      <point x="309.100840230784" y="301.3505682198451"/>
      <point x="176.67546174142475" y="154.95605192199716"/>
      <point x="176.67546174142464" y="-22.124010554089693" type="curve"/>
      <point x="176.67546174142473" y="-214.369555053562"/>
      <point x="332.75445550052757" y="-370.4485488126649"/>
      <point x="525.0" y="-370.4485488126649" type="curve" smooth="yes"/>
      <point x="717.2455444994722" y="-370.4485488126649"/>
      <point x="873.3245382585752" y="-214.36955505356215"/>
      <point x="873.3245382585752" y="-22.12401055408971" type="curve"/>
      <point x="783.7994689941406" y="-22.124008178710938" type="line"/>
      <point x="783.7994722955145" y="-164.95932648205815"/>
      <point x="667.8353159279682" y="-280.9234828496042"/>
      <point x="525.0" y="-280.9234828496042" type="curve" smooth="yes"/>
      <point x="382.1646840720316" y="-280.9234828496042"/>
      <point x="266.2005277044854" y="-164.959326482058"/>
      <point x="266.20052770448547" y="-22.12401055408971" type="curve"/>
      <point x="266.20052770448547" y="120.71130537387864"/>
      <point x="382.1646840720316" y="236.6754617414248"/>
      <point x="525.0" y="236.6754617414248" type="curve"/>
      <point x="569.7625350952148" y="236.6754608154297" type="line"/>
    </contour>
  </outline>
</glyph>
<glyph name="A_with_grave" format="2">
  <advance width="980"/>
  <unicode hex="00C0"/>
  <outline>
    <contour>
      <point x="533.9475494656167" y="1275.0" type="line"/>
      <point x="386.8466271367964" y="1535.0" type="line"/>
      <point x="298.951528205563" y="1535.0" type="line"/>
      <point x="446.0524505343833" y="1275.0" type="line"/>
    </contour>
    <contour>
      <point x="85" y="15" type="line"/>
      <point x="179.32958984375" y="15" type="line"/>
      <point x="287.3976135253906" y="359.2857131958008" type="line"/>
      <point x="692.6023864746094" y="359.2857131958008" type="line"/>
      <point x="800.67041015625" y="15" type="line"/>
      <point x="895" y="15" type="line"/>
      <point x="537.164794921875" y="1155" type="line"/>
      <point x="442.835205078125" y="1155" type="line"/>
    </contour>
    <contour>
      <point x="315.64776611328125" y="449.2857131958008" type="line"/>
      <point x="490" y="1004.7412643432617" type="line"/>
      <point x="664.3522338867188" y="449.2857131958008" type="line"/>
    </contour>
  </outline>
</glyph>
<glyph name="A_with_acute" format="2">
  <advance width="1020"/>
  <unicode hex="00C1"/>
  <outline>
    <contour>
      <point x="465.40505194626684" y="1296.6189111747851" type="line"/>
      <point x="554.5949480537331" y="1296.6189111747851" type="line"/>
      <point x="706.332289137903" y="1564.8137535816618" type="line"/>
      <point x="617.1423930304368" y="1564.8137535816618" type="line"/>
    </contour>
    <contour>
      <point x="62.83667755126953" y="0" type="line"/>
      <point x="157.64855194091797" y="0" type="line"/>
      <point x="279.3487854003906" y="357.0528030395508" type="line"/>
      <point x="740.6512145996094" y="357.0528030395508" type="line"/>
      <point x="862.351448059082" y="0" type="line"/>
      <point x="957.1633224487305" y="0" type="line"/>
      <point x="557.4059371948242" y="1172.8366775512695" type="line"/>
      <point x="462.5940628051758" y="1172.8366775512695" type="line"/>
    </contour>
    <contour>
      <point x="309.9370803833008" y="446.794921875" type="line"/>
      <point x="510" y="1033.753761291504" type="line"/>
      <point x="710.0629196166992" y="446.794921875" type="line"/>
    </contour>
  </outline>
</glyph>
<glyph name="A_with_circumflex" format="2">
  <advance width="1020"/>
  <unicode hex="00C2"/>
  <outline>
    <contour>
      <point x="243.48284912109375" y="1293.4828491210938" type="line"/>
      <point x="346.18953704833984" y="1293.4828491210938" type="line"/>
      <point x="510" y="1481.5050201416016" type="line"/>
      <point x="673.8104629516602" y="1293.4828491210938" type="line"/>
      <point x="776.5171508789062" y="1293.4828491210938" type="line"/>
      <point x="561.3533401489258" y="1540.4485473632812" type="line"/>
      <point x="458.6466598510742" y="1540.4485473632812" type="line"/>
    </contour>
    <contour>
      <point x="63.91820526123047" y="0" type="line"/>
      <point x="158.50076293945312" y="0" type="line"/>
      <point x="279.9066467285156" y="356.18921661376953" type="line"/>
      <point x="740.0933532714844" y="356.18921661376953" type="line"/>
      <point x="861.4992370605469" y="0" type="line"/>
      <point x="956.0817947387695" y="0" type="line"/>
      <point x="557.2912826538086" y="1170" type="line"/>
      <point x="462.7087173461914" y="1170" type="line"/>
    </contour>
    <contour>
      <point x="310.42095947265625" y="445.7142868041992" type="line"/>
      <point x="510" y="1031.2534713745117" type="line"/>
      <point x="709.5790405273438" y="445.7142868041992" type="line"/>
    </contour>
  </outline>
</glyph>
<glyph name="A_with_smalltilde" format="2">
  <advance width="1020"/>
  <unicode hex="00C3"/>
  <outline>
    <contour>
      <point x="562.0590260471186" y="1390.0458404907858" type="curve"/>
      <point x="502.46595764160156" y="1431.7733612060547" type="line"/>
      <point x="474.7296087353882" y="1451.194556799921"/>
      <point x="441.6896169409124" y="1461.6120261972908"/>
      <point x="407.82979124027077" y="1461.6120261972908" type="curve"/>
      <point x="316.76761286276223" y="1461.6120261972908"/>
      <point x="242.83667621776505" y="1387.6810895522935"/>
      <point x="242.83667621776505" y="1296.6189111747851" type="curve"/>
      <point x="320.46360778808594" y="1296.618911743164" type="line"/>
      <point x="320.4636103151862" y="1344.8376186673765"/>
      <point x="359.61108374767906" y="1383.9850920998695"/>
      <point x="407.8297912402707" y="1383.9850920998695" type="curve"/>
      <point x="425.7590463964666" y="1383.9850920998695"/>
      <point x="443.25418793910455" y="1378.4688951602093"/>
      <point x="457.9409739528814" y="1368.1850968812898" type="curve"/>
      <point x="517.5340423583984" y="1326.4575805664062" type="line"/>
      <point x="545.2703912646118" y="1307.0363805721547"/>
      <point x="578.3103830590876" y="1296.6189111747851"/>
      <point x="612.1702087597293" y="1296.6189111747851" type="curve"/>
      <point x="703.2323871372378" y="1296.6189111747851"/>
      <point x="777.163323782235" y="1370.5498478197821"/>
      <point x="777.163323782235" y="1461.6120261972908" type="curve"/>
      <point x="699.5363922119141" y="1461.6120223999023" type="line"/>
      <point x="699.5363896848137" y="1413.393318704699"/>
      <point x="660.388916252321" y="1374.2458452722062"/>
      <point x="612.1702087597291" y="1374.2458452722062" type="curve"/>
      <point x="594.2409536035334" y="1374.245845272206"/>
      <point x="576.7458120608953" y="1379.7620422118664"/>
    </contour>
    <contour>
      <point x="62.83667755126953" y="0" type="line"/>
      <point x="157.64855194091797" y="0" type="line"/>
      <point x="279.3487854003906" y="357.0528030395508" type="line"/>
      <point x="740.6512145996094" y="357.0528030395508" type="line"/>
      <point x="862.351448059082" y="0" type="line"/>
      <point x="957.1633224487305" y="0" type="line"/>
      <point x="557.4059371948242" y="1172.8366775512695" type="line"/>
      <point x="462.5940628051758" y="1172.8366775512695" type="line"/>
    </contour>
    <contour>
      <point x="309.9370803833008" y="446.794921875" type="line"/>
      <point x="510" y="1033.753761291504" type="line"/>
      <point x="710.0629196166992" y="446.794921875" type="line"/>
    </contour>
  </outline>
</glyph>
<glyph name="A_with_diaeresis" format="2">
  <advance width="1020"/>
  <unicode hex="00C4"/>
  <outline>
    <contour>
      <point x="465.00515759312316" y="1378.6246418338108" type="curve" smooth="yes"/>
      <point x="465.00515759312316" y="1423.8848363106017"/>
      <point x="428.2596214108882" y="1460.6303724928366"/>
      <point x="382.9994269340974" y="1460.6303724928366" type="curve" smooth="yes"/>
      <point x="337.73923245730657" y="1460.6303724928366"/>
      <point x="300.9936962750716" y="1423.8848363106017"/>
      <point x="300.9936962750716" y="1378.6246418338108" type="curve" smooth="yes"/>
      <point x="300.9936962750716" y="1333.36444735702"/>
      <point x="337.7392324573065" y="1296.6189111747851"/>
      <point x="382.9994269340974" y="1296.6189111747851" type="curve" smooth="yes"/>
      <point x="428.2596214108882" y="1296.6189111747851"/>
      <point x="465.00515759312316" y="1333.36444735702"/>
    </contour>
    <contour>
      <point x="719.0063037249283" y="1378.6246418338108" type="curve" smooth="yes"/>
      <point x="719.0063037249283" y="1423.8848363106017"/>
      <point x="682.2607675426934" y="1460.6303724928366"/>
      <point x="637.0005730659025" y="1460.6303724928366" type="curve" smooth="yes"/>
      <point x="591.7403785891117" y="1460.6303724928366"/>
      <point x="554.9948424068768" y="1423.8848363106017"/>
      <point x="554.9948424068768" y="1378.6246418338108" type="curve" smooth="yes"/>
      <point x="554.9948424068768" y="1333.36444735702"/>
      <point x="591.7403785891117" y="1296.6189111747851"/>
      <point x="637.0005730659025" y="1296.6189111747851" type="curve" smooth="yes"/>
      <point x="682.2607675426934" y="1296.6189111747851"/>
      <point x="719.0063037249283" y="1333.36444735702"/>
    </contour>
    <contour>
      <point x="62.83667755126953" y="0" type="line"/>
      <point x="157.64855194091797" y="0" type="line"/>
      <point x="279.3487854003906" y="357.0528030395508" type="line"/>
      <point x="740.6512145996094" y="357.0528030395508" type="line"/>
      <point x="862.351448059082" y="0" type="line"/>
      <point x="957.1633224487305" y="0" type="line"/>
      <point x="557.4059371948242" y="1172.8366775512695" type="line"/>
      <point x="462.5940628051758" y="1172.8366775512695" type="line"/>
    </contour>
    <contour>
      <point x="309.9370803833008" y="446.794921875" type="line"/>
      <point x="510" y="1033.753761291504" type="line"/>
      <point x="710.0629196166992" y="446.794921875" type="line"/>
    </contour>
  </outline>
</glyph>
<glyph name="A_with_ring" format="2">
  <advance width="1020"/>
  <unicode hex="00C5"/>
  <outline>
    <contour>
      <point x="647.37467" y="1413.48285" type="curve" smooth="yes"/>
      <point x="647.37467" y="1489.30199"/>
      <point x="585.81914" y="1550.85752"/>
      <point x="510.0" y="1550.85752" type="curve" smooth="yes"/>
      <point x="434.18086" y="1550.85752"/>
      <point x="372.62533" y="1489.30199"/>
      <point x="372.62533" y="1413.48285" type="curve" smooth="yes"/>
      <point x="372.62533" y="1337.66371"/>
      <point x="434.18086" y="1276.10818"/>
      <point x="510.0" y="1276.10818" type="curve" smooth="yes"/>
      <point x="585.81914" y="1276.10818"/>
      <point x="647.37467" y="1337.66371"/>
    </contour>
    <contour>
      <point x="569.93549" y="1413.48285" type="curve" smooth="yes"/>
      <point x="569.93549" y="1380.40355"/>
      <point x="543.0793" y="1353.54736"/>
      <point x="510.0" y="1353.54736" type="curve" smooth="yes"/>
      <point x="476.9207" y="1353.54736"/>
      <point x="450.06451" y="1380.40355"/>
      <point x="450.06451" y="1413.48285" type="curve" smooth="yes"/>
      <point x="450.06451" y="1446.56215"/>
      <point x="476.9207" y="1473.41834"/>
      <point x="510.0" y="1473.41834" type="curve" smooth="yes"/>
      <point x="543.0793" y="1473.41834"/>
      <point x="569.93549" y="1446.56215"/>
    </contour>
    <contour>
      <point x="49.25462341308594" y="0" type="line"/>
      <point x="144.20046997070312" y="0" type="line"/>
      <point x="270.0151672363281" y="356.18921661376953" type="line"/>
      <point x="749.9848327636719" y="356.18921661376953" type="line"/>
      <point x="875.7995300292969" y="0" type="line"/>
      <point x="970.7453765869141" y="0" type="line"/>
      <point x="557.4729309082031" y="1170" type="line"/>
      <point x="462.5270690917969" y="1170" type="line"/>
    </contour>
    <contour>
      <point x="301.6375961303711" y="445.7142868041992" type="line"/>
      <point x="510" y="1035.6011810302734" type="line"/>
      <point x="718.3624038696289" y="445.7142868041992" type="line"/>
    </contour>
  </outline>
</glyph>
<glyph name="AE" format="2">
  <advance width="980"/>
  <unicode hex="00C6"/>
  <outline>
    <contour>
      <point x="90" y="15" type="line"/>
      <point x="185.2936248779297" y="15" type="line"/>
      <point x="305.10093688964844" y="359.2857131958008" type="line"/>
      <point x="492" y="359.2857131958008" type="line"/>
      <point x="492" y="15" type="line"/>
      <point x="840" y="15" type="line"/>
      <point x="840" y="105" type="line"/>
      <point x="582" y="105" type="line"/>
      <point x="582" y="540" type="line"/>
      <point x="840" y="540" type="line"/>
      <point x="840" y="630" type="line"/>
      <point x="582" y="630" type="line"/>
      <point x="582" y="1065" type="line"/>
      <point x="840" y="1065" type="line"/>
      <point x="840" y="1155" type="line"/>
      <point x="486.7063751220703" y="1155" type="line"/>
    </contour>
    <contour>
      <point x="336.41986083984375" y="449.2857131958008" type="line"/>
      <point x="492" y="896.3704299926758" type="line"/>
      <point x="492" y="449.2857131958008" type="line"/>
    </contour>
  </outline>
</glyph>
<glyph name="C_with_cedilla" format="2">
  <advance width="1020"/>
  <unicode hex="00C7"/>
  <outline>
    <contour>
      <point x="92.72427325677693" y="442.5257263183594" type="line"/>
      <point x="92.72427654817066" y="111.34402079460074"/>
      <point x="313.6090077176247" y="-3.5560953833410416"/>
      <point x="473.78041076660156" y="-18.227203369140625" type="curve"/>
      <point x="473.78041076660156" y="-125.28878784179688" type="line"/>
      <point x="494.00632854596523" y="-125.28878784179688" type="line"/>
      <point x="570.0753201829327" y="-125.28878784179688"/>
      <point x="576.13602" y="-172.9842704459169"/>
      <point x="576.13602" y="-188.9248" type="curve" smooth="yes"/>
      <point x="576.13602" y="-204.8653300540831"/>
      <point x="570.0753201829326" y="-252.56081895873206"/>
      <point x="494.006325636931" y="-252.56082033446398" type="curve"/>
      <point x="427.723876953125" y="-252.56082153320312" type="line"/>
      <point x="427.723876953125" y="-330" type="line"/>
      <point x="471.50123253631654" y="-330.0" type="line"/>
      <point x="608.7844751304135" y="-330.0"/>
      <point x="653.5752" y="-266.7261616545659"/>
      <point x="653.5752" y="-188.9248" type="curve" smooth="yes"/>
      <point x="653.5752" y="-124.48824113991998"/>
      <point x="610.2809722673919" y="-70.08379749209797"/>
      <point x="551.2195892333984" y="-53.264427185058594" type="curve"/>
      <point x="551.2195892333984" y="-18.234420776367188" type="line"/>
      <point x="764.7791111655846" y="1.3340588038877677"/>
      <point x="932.27573" y="181.14877610178996"/>
      <point x="932.2757299999998" y="399.77572999999995" type="curve"/>
      <point x="842.7506637573242" y="399.7757263183594" type="line"/>
      <point x="842.75066" y="217.5054299999999"/>
      <point x="694.7703000000001" y="69.52507"/>
      <point x="512.5" y="69.52507" type="curve" smooth="yes"/>
      <point x="380.635266000537" y="69.52507000000001"/>
      <point x="182.24934252772323" y="150.55811098847187"/>
      <point x="182.24933956640237" y="442.52573" type="curve"/>
      <point x="182.2493366762734" y="727.4742736816406" type="line"/>
      <point x="182.2493337149525" y="1019.4418925090866"/>
      <point x="380.635266000537" y="1100.47493"/>
      <point x="512.5" y="1100.47493" type="curve" smooth="yes"/>
      <point x="694.7702966865236" y="1100.47493"/>
      <point x="842.75066" y="952.4945700000001"/>
      <point x="842.75066" y="770.22427" type="curve"/>
      <point x="932.2757263183594" y="770.2242736816406" type="line"/>
      <point x="932.27573" y="1001.9048033134766"/>
      <point x="744.1805300000001" y="1190.0"/>
      <point x="512.5" y="1190.0" type="curve" smooth="yes"/>
      <point x="335.9542826222648" y="1190.0"/>
      <point x="92.724266987984" y="1073.294843727273"/>
      <point x="92.7242704248637" y="727.47427" type="curve"/>
    </contour>
  </outline>
</glyph>
<glyph name="E_with_grave" format="2">
  <advance width="1020"/>
  <unicode hex="00C8"/>
  <outline>
    <contour>
      <point x="557.0949480537331" y="1296.6189111747851" type="line"/>
      <point x="405.3576069695633" y="1564.8137535816618" type="line"/>
      <point x="316.16771086209695" y="1564.8137535816618" type="line"/>
      <point x="467.9050519462668" y="1296.6189111747851" type="line"/>
    </contour>
    <contour>
      <point x="142.70057678222656" y="0" type="line"/>
      <point x="882.2994232177734" y="0" type="line"/>
      <point x="882.2994232177734" y="89.74211883544922" type="line"/>
      <point x="232.44269561767578" y="89.74211883544922" type="line"/>
      <point x="232.44269561767578" y="541.5472793579102" type="line"/>
      <point x="820.4083099365234" y="541.5472793579102" type="line"/>
      <point x="820.4083099365234" y="631.2893981933594" type="line"/>
      <point x="232.44269561767578" y="631.2893981933594" type="line"/>
      <point x="232.44269561767578" y="1083.0945587158203" type="line"/>
      <point x="882.2994232177734" y="1083.0945587158203" type="line"/>
      <point x="882.2994232177734" y="1172.8366775512695" type="line"/>
      <point x="142.70057678222656" y="1172.8366775512695" type="line"/>
    </contour>
  </outline>
</glyph>
<glyph name="E_with_acute" format="2">
  <advance width="1020"/>
  <unicode hex="00C9"/>
  <outline>
    <contour>
      <point x="468.012911319308" y="1293.4828496042217" type="line"/>
      <point x="556.9870886806921" y="1293.4828496042217" type="line"/>
      <point x="708.357430918792" y="1561.029023746702" type="line"/>
      <point x="619.383253557408" y="1561.029023746702" type="line"/>
    </contour>
    <contour>
      <point x="143.59498596191406" y="0" type="line"/>
      <point x="881.4050140380859" y="0" type="line"/>
      <point x="881.4050140380859" y="89.52506256103516" type="line"/>
      <point x="233.12005615234375" y="89.52506256103516" type="line"/>
      <point x="233.12005615234375" y="540.2374649047852" type="line"/>
      <point x="819.6635894775391" y="540.2374649047852" type="line"/>
      <point x="819.6635894775391" y="629.7625350952148" type="line"/>
      <point x="233.12005615234375" y="629.7625350952148" type="line"/>
      <point x="233.12005615234375" y="1080.4749374389648" type="line"/>
      <point x="881.4050140380859" y="1080.4749374389648" type="line"/>
      <point x="881.4050140380859" y="1170" type="line"/>
      <point x="143.59498596191406" y="1170" type="line"/>
    </contour>
  </outline>
</glyph>
<glyph name="E_with_circumflex" format="2">
  <advance width="980"/>
  <unicode hex="00CA"/>
  <outline>
    <contour>
      <point x="255" y="1275" type="line"/>
      <point x="354.61951446533203" y="1275" type="line"/>
      <point x="505" y="1455.2850875854492" type="line"/>
      <point x="655.380485534668" y="1275" type="line"/>
      <point x="755" y="1275" type="line"/>
      <point x="554.8097610473633" y="1515" type="line"/>
      <point x="455.1902389526367" y="1515" type="line"/>
    </contour>
    <contour>
      <point x="130" y="15" type="line"/>
      <point x="880" y="15" type="line"/>
      <point x="880" y="105" type="line"/>
      <point x="220" y="105" type="line"/>
      <point x="220" y="540" type="line"/>
      <point x="820" y="540" type="line"/>
      <point x="820" y="630" type="line"/>
      <point x="220" y="630" type="line"/>
      <point x="220" y="1065" type="line"/>
      <point x="880" y="1065" type="line"/>
      <point x="880" y="1155" type="line"/>
      <point x="130" y="1155" type="line"/>
    </contour>
  </outline>
</glyph>
<glyph name="E_with_diaeresis" format="2">
  <advance width="980"/>
  <unicode hex="00CB"/>
  <outline>
    <contour>
      <point x="421.8" y="1336.8" type="curve" smooth="yes"/>
      <point x="421.8" y="1370.908348236"/>
      <point x="394.108348236" y="1398.6"/>
      <point x="360.0" y="1398.6" type="curve" smooth="yes"/>
      <point x="325.891651764" y="1398.6"/>
      <point x="298.2" y="1370.908348236"/>
      <point x="298.2" y="1336.8" type="curve" smooth="yes"/>
      <point x="298.2" y="1302.691651764"/>
      <point x="325.891651764" y="1275.0"/>
      <point x="360.0" y="1275.0" type="curve" smooth="yes"/>
      <point x="394.108348236" y="1275.0"/>
      <point x="421.8" y="1302.691651764"/>
    </contour>
    <contour>
      <point x="711.8" y="1336.8" type="curve" smooth="yes"/>
      <point x="711.8" y="1370.908348236"/>
      <point x="684.108348236" y="1398.6"/>
      <point x="650.0" y="1398.6" type="curve" smooth="yes"/>
      <point x="615.891651764" y="1398.6"/>
      <point x="588.2" y="1370.908348236"/>
      <point x="588.2" y="1336.8" type="curve" smooth="yes"/>
      <point x="588.2" y="1302.691651764"/>
      <point x="615.891651764" y="1275.0"/>
      <point x="650.0" y="1275.0" type="curve" smooth="yes"/>
      <point x="684.108348236" y="1275.0"/>
      <point x="711.8" y="1302.691651764"/>
    </contour>
    <contour>
      <point x="130" y="15" type="line"/>
      <point x="880" y="15" type="line"/>
      <point x="880" y="105" type="line"/>
      <point x="220" y="105" type="line"/>
      <point x="220" y="540" type="line"/>
      <point x="820" y="540" type="line"/>
      <point x="820" y="630" type="line"/>
      <point x="220" y="630" type="line"/>
      <point x="220" y="1065" type="line"/>
      <point x="880" y="1065" type="line"/>
      <point x="880" y="1155" type="line"/>
      <point x="130" y="1155" type="line"/>
    </contour>
  </outline>
</glyph>
<glyph name="I_with_grave" format="2">
  <advance width="1020"/>
  <unicode hex="00CC"/>
  <outline>
    <contour>
      <point x="554.48709" y="1293.48285" type="line"/>
      <point x="407.38617" y="1553.48285" type="line"/>
      <point x="318.41199" y="1553.48285" type="line"/>
      <point x="465.51291" y="1293.48285" type="line"/>
    </contour>
    <contour>
      <point x="153.13455963134766" y="0" type="line"/>
      <point x="866.8654403686523" y="0" type="line"/>
      <point x="866.8654403686523" y="89.52507019042969" type="line"/>
      <point x="554.7625274658203" y="89.52507019042969" type="line"/>
      <point x="554.7625274658203" y="1080.4749298095703" type="line"/>
      <point x="866.8654403686523" y="1080.4749298095703" type="line"/>
      <point x="866.8654403686523" y="1170" type="line"/>
      <point x="153.13455963134766" y="1170" type="line"/>
      <point x="153.13455963134766" y="1080.4749298095703" type="line"/>
      <point x="465.2374725341797" y="1080.4749298095703" type="line"/>
      <point x="465.2374725341797" y="89.52507019042969" type="line"/>
      <point x="153.13455963134766" y="89.52507019042969" type="line"/>
    </contour>
  </outline>
</glyph>
